<svg xmlns="http://www.w3.org/2000/svg" width="32" height="32" fill="none"><g clip-path="url(#mf-add-files)"><path d="M20.363 10.27v11.54c0 2.28-1.67 4.308-3.938 4.527-2.607.25-4.788-1.79-4.788-4.34V8.515c0-1.43 1.025-2.727 2.443-2.87a2.73 2.73 0 0 1 3.011 2.716v11.453c0 .6-.49 1.09-1.09 1.09s-1.09-.49-1.09-1.09V10.27c0-.447-.37-.818-.818-.818s-.818.37-.818.818v9.39c0 1.43 1.025 2.727 2.443 2.87 1.636.164 3.01-1.112 3.01-2.716V8.548c0-2.28-1.67-4.308-3.938-4.527C12.193 3.77 10 5.8 10 8.362v13.384c0 3.13 2.29 5.934 5.4 6.228C19 28.3 22 25.51 22 21.997V10.27c0-.447-.37-.818-.818-.818s-.818.37-.818.818z" fill="#a5a5a5"></path></g><defs><clipPath id="mf-add-files"><path fill="#fff" transform="translate(4 4)" d="M0 0h24v24H0z"></path></clipPath></defs></svg>
