<svg width="25" height="24" viewBox="0 0 25 24" fill="none" xmlns="http://www.w3.org/2000/svg">
<g id="Group 1">
<path id="Union" d="M12.667 20.25C17.6376 20.25 21.667 16.5563 21.667 12C21.667 7.44365 17.6376 3.75 12.667 3.75C7.69643 3.75 3.66699 7.44365 3.66699 12C3.66699 14.1036 4.5259 16.0234 5.93979 17.4806C6.37238 17.9265 6.68057 18.5192 6.52633 19.121C6.35528 19.7883 6.03499 20.3959 5.60278 20.906C5.75879 20.9339 5.91699 20.9558 6.07666 20.9713C6.27075 20.9903 6.46777 21 6.66699 21C7.949 21 9.13715 20.5979 10.1122 19.9129C10.9221 20.1323 11.7795 20.25 12.667 20.25Z" stroke="white" stroke-width="1.5" stroke-linecap="round" stroke-linejoin="round"/>
</g>
</svg>
