<svg width="50" height="49" viewBox="0 0 50 49" fill="none" xmlns="http://www.w3.org/2000/svg">
<path d="M25.04 48.864C38.3386 48.864 49.1191 38.0087 49.1191 24.618C49.1191 11.2273 38.3386 0.372009 25.04 0.372009C11.7415 0.372009 0.960938 11.2273 0.960938 24.618C0.960938 38.0087 11.7415 48.864 25.04 48.864Z" fill="#7D90E9" fill-opacity="0.16"/>
<path d="M25.4854 37.3721C25.4854 37.3721 12.9854 30.3721 12.9854 21.8721C12.9856 20.3697 13.5062 18.9139 14.4585 17.752C15.4109 16.5901 16.7363 15.7939 18.2093 15.4988C19.6824 15.2036 21.2122 15.4278 22.5387 16.1331C23.8651 16.8385 24.9064 17.9814 25.4854 19.3677H25.4853C26.0643 17.9814 27.1056 16.8385 28.432 16.1331C29.7585 15.4278 31.2882 15.2036 32.7613 15.4988C34.2343 15.7939 35.5597 16.5901 36.5121 17.752C37.4644 18.9139 37.9851 20.3697 37.9854 21.8721C37.9854 30.3721 25.4854 37.3721 25.4854 37.3721Z" fill="#7D90E9" stroke="white" stroke-width="3" stroke-linecap="round" stroke-linejoin="round"/>
</svg>
