<svg width="253" height="53" viewBox="0 0 253 53" fill="none" xmlns="http://www.w3.org/2000/svg">
<path fill-rule="evenodd" clip-rule="evenodd" d="M60.2634 10.0838C59.967 10.1206 59.7746 10.2295 59.7746 10.3605C59.7746 10.4795 59.6731 10.5767 59.549 10.5767C59.4249 10.5767 59.3234 10.6782 59.3234 10.8023C59.3234 10.9263 59.2219 11.0279 59.0978 11.0279C58.9474 11.0279 58.8722 11.1783 58.8722 11.4791C58.8722 11.7799 58.797 11.9303 58.6466 11.9303C58.4962 11.9303 58.421 12.0807 58.421 12.3815C58.421 12.6823 58.3458 12.8327 58.1954 12.8327C58.045 12.8327 57.9698 12.9831 57.9698 13.2839C57.9698 13.5847 57.8946 13.7351 57.7442 13.7351C57.5866 13.7351 57.5186 13.8939 57.5186 14.2615C57.5186 14.6291 57.4506 14.7879 57.293 14.7879C57.1298 14.7879 57.0674 14.9556 57.0674 15.3942C57.0674 15.7944 56.9907 16.0299 56.8418 16.0871C56.7124 16.1367 56.6162 16.3612 56.6162 16.6135C56.6162 16.8657 56.5199 17.0902 56.3906 17.1399C56.2638 17.1886 56.165 17.4124 56.165 17.6509C56.165 17.8842 56.0627 18.1775 55.9377 18.3025C55.8127 18.4275 55.6682 18.8384 55.6165 19.2156C55.5647 19.5929 55.4713 19.9015 55.4088 19.9015C55.3463 19.9015 55.2486 20.087 55.1917 20.3136C55.1349 20.5403 55.0236 20.7658 54.9445 20.8146C54.8654 20.8635 54.7587 21.1687 54.7076 21.4929C54.6563 21.8171 54.5548 22.1216 54.482 22.1698C54.409 22.2177 54.3078 22.5223 54.2568 22.8466C54.2059 23.1707 54.0729 23.4901 53.9613 23.5563C53.8396 23.6285 53.7586 23.944 53.7586 24.3459C53.7586 24.8406 53.6997 25.0152 53.533 25.0152C53.3659 25.0152 53.3074 25.1907 53.3074 25.692C53.3074 26.1933 53.2488 26.3688 53.0817 26.3688C52.925 26.3688 52.8561 26.5264 52.8561 26.8845C52.8561 27.1681 52.7546 27.5016 52.6305 27.6257C52.5065 27.7498 52.4049 28.0544 52.4049 28.3025C52.4049 28.5507 52.3144 28.8443 52.2039 28.9548C52.0933 29.0654 51.9631 29.4522 51.9145 29.8145C51.8659 30.1767 51.7638 30.514 51.6875 30.5641C51.6114 30.6142 51.5072 30.9206 51.4559 31.2447C51.4048 31.569 51.2959 31.8755 51.2141 31.926C51.1324 31.9765 51.0182 32.3204 50.9603 32.6902C50.9026 33.0599 50.7955 33.4017 50.7224 33.4499C50.6493 33.4978 50.5475 33.8024 50.4963 34.1267C50.4451 34.4508 50.3374 34.7593 50.2569 34.8121C50.1766 34.8647 50.0761 35.6924 50.0337 36.6512C49.9666 38.1723 49.9883 38.4065 50.2032 38.4889C50.3389 38.541 50.4497 38.673 50.4497 38.7824C50.4497 39.1397 50.9121 39.4538 51.438 39.4538C51.7961 39.4538 51.9537 39.5226 51.9537 39.6794C51.9537 39.8034 52.0553 39.905 52.1793 39.905C52.3034 39.905 52.4049 39.8034 52.4049 39.6794C52.4049 39.5123 52.5805 39.4538 53.0817 39.4538C53.583 39.4538 53.7586 39.3952 53.7586 39.2281C53.7586 39.1041 53.8601 39.0025 53.9842 39.0025C54.1082 39.0025 54.2098 38.872 54.2098 38.7124C54.2098 38.553 54.308 38.3242 54.428 38.2042C54.5479 38.0842 54.6906 37.8087 54.745 37.5919C54.7995 37.3751 54.8956 37.1977 54.9588 37.1977C55.0218 37.1977 55.1176 36.8644 55.1717 36.457C55.2257 36.0497 55.3376 35.6937 55.4202 35.6662C55.5029 35.6387 55.6132 35.346 55.6653 35.0157C55.7175 34.6854 55.8227 34.3742 55.8988 34.3242C55.975 34.2741 56.0771 33.9367 56.1257 33.5746C56.1743 33.2122 56.3046 32.8254 56.4151 32.7149C56.5256 32.6043 56.6162 32.2817 56.6162 31.9982C56.6162 31.6401 56.6851 31.4825 56.8418 31.4825C56.9922 31.4825 57.0674 31.3321 57.0674 31.0313C57.0674 30.7305 57.1426 30.5801 57.293 30.5801C57.4171 30.5801 57.5186 30.488 57.5186 30.3754C57.5186 30.1016 58.5979 29.9815 61.0696 29.9798C63.4574 29.9782 64.4371 30.0932 64.4371 30.3749C64.4371 30.4877 64.5386 30.5801 64.6627 30.5801C64.8326 30.5801 64.8883 30.7625 64.8883 31.3196C64.8883 31.7436 64.8144 32.0836 64.7152 32.1167C64.62 32.1484 64.51 32.5602 64.4709 33.0316C64.4193 33.6534 64.339 33.8889 64.1787 33.8889C63.9958 33.8889 63.9666 34.1432 64.0093 35.3655C64.0585 36.7712 64.082 36.8616 64.4966 37.2456C64.7362 37.4674 65.0182 37.6489 65.1234 37.6489C65.2285 37.6489 65.3413 37.7297 65.3742 37.8285C65.4578 38.0794 67.1733 38.0871 67.2569 37.8369C67.2915 37.7335 67.4156 37.6489 67.5328 37.6489C67.6501 37.6489 67.7459 37.5474 67.7459 37.4233C67.7459 37.2992 67.8474 37.1977 67.9715 37.1977C68.0956 37.1977 68.1971 37.0941 68.1971 36.9675C68.1971 36.8407 68.2946 36.6997 68.4135 36.654C68.5325 36.6083 68.6733 36.3737 68.7262 36.1323C68.7793 35.891 68.876 35.6937 68.9413 35.6937C69.0066 35.6937 69.0976 35.4132 69.1436 35.0704C69.1895 34.7277 69.2967 34.4042 69.3818 34.3515C69.4669 34.2989 69.5823 33.9703 69.6381 33.6212C69.6939 33.2721 69.7945 32.9865 69.8616 32.9865C69.9287 32.9865 70.0314 32.6672 70.0899 32.2769C70.1484 31.8867 70.288 31.4759 70.3999 31.3638C70.5119 31.2518 70.6035 30.9338 70.6035 30.6571C70.6035 30.3803 70.6729 30.1308 70.7575 30.1025C70.8422 30.0744 70.954 29.7811 71.0059 29.4508C71.0579 29.1206 71.1916 28.7963 71.3032 28.7301C71.4249 28.6579 71.5059 28.3424 71.5059 27.9405C71.5059 27.4458 71.5647 27.2712 71.7315 27.2712C71.8986 27.2712 71.9571 27.0957 71.9571 26.5944C71.9571 26.0931 72.0157 25.9176 72.1827 25.9176C72.3498 25.9176 72.4084 25.7421 72.4084 25.2408C72.4084 24.7395 72.4669 24.564 72.634 24.564C72.8044 24.564 72.8596 24.3802 72.8596 23.812C72.8596 23.276 72.9187 23.06 73.0653 23.06C73.193 23.06 73.3029 22.8231 73.3548 22.4367C73.4007 22.094 73.5007 21.7724 73.577 21.7223C73.6531 21.6722 73.7582 21.361 73.8104 21.0308C73.8626 20.7005 73.9724 20.408 74.0545 20.3806C74.1365 20.3532 74.2472 20.0989 74.3004 19.8154C74.3535 19.5319 74.4564 19.2999 74.5289 19.2999C74.6015 19.2999 74.7041 19.0292 74.757 18.6983C74.81 18.3675 74.9068 18.0967 74.9724 18.0967C75.038 18.0967 75.1393 17.8768 75.1977 17.6079C75.2561 17.3392 75.3681 17.0781 75.4466 17.028C75.5253 16.9779 75.6272 16.6563 75.6731 16.3136C75.725 15.9272 75.8349 15.6903 75.9626 15.6903C76.0976 15.6903 76.1684 15.5091 76.1684 15.1639C76.1684 14.7963 76.2364 14.6375 76.394 14.6375C76.5569 14.6375 76.6196 14.4704 76.6196 14.0359C76.6196 13.6014 76.5569 13.4343 76.394 13.4343C76.2364 13.4343 76.1684 13.2755 76.1684 12.9079C76.1684 12.5403 76.1004 12.3815 75.9428 12.3815C75.8187 12.3815 75.7172 12.2799 75.7172 12.1559C75.7172 12.0055 75.5668 11.9303 75.266 11.9303C74.9652 11.9303 74.8148 11.8551 74.8148 11.7047C74.8148 11.5343 74.631 11.4791 74.0628 11.4791C73.4946 11.4791 73.3108 11.5343 73.3108 11.7047C73.3108 11.8551 73.1604 11.9303 72.8596 11.9303C72.5588 11.9303 72.4084 12.0055 72.4084 12.1559C72.4084 12.2799 72.3068 12.3815 72.1827 12.3815C72.0587 12.3815 71.9571 12.483 71.9571 12.6071C71.9571 12.7312 71.8556 12.8327 71.7315 12.8327C71.6075 12.8327 71.5059 12.9632 71.5059 13.1228C71.5059 13.2822 71.4159 13.5029 71.3058 13.613C71.1955 13.7232 71.0589 13.9987 71.0021 14.2254C70.9451 14.452 70.8321 14.6375 70.7511 14.6375C70.6699 14.6375 70.6035 14.8744 70.6035 15.1639C70.6035 15.5091 70.5327 15.6903 70.3978 15.6903C70.2701 15.6903 70.1601 15.9272 70.1083 16.3136C70.0624 16.6563 69.9552 16.9798 69.87 17.0325C69.7849 17.0851 69.6703 17.4095 69.6152 17.7535C69.5602 18.0975 69.4217 18.4148 69.3074 18.4587C69.1931 18.5027 69.0995 18.738 69.0995 18.9818C69.0995 19.2258 69.0302 19.4484 68.9455 19.4767C68.8608 19.5048 68.7489 19.7981 68.6967 20.1284C68.6446 20.4586 68.5394 20.7698 68.4633 20.8199C68.3871 20.87 68.287 21.1915 68.2412 21.5343C68.1893 21.9207 68.0793 22.1576 67.9517 22.1576C67.8167 22.1576 67.7459 22.3388 67.7459 22.684C67.7459 23.0516 67.6779 23.2104 67.5203 23.2104C67.3819 23.2104 67.2947 23.3512 67.2947 23.5745C67.2947 23.8567 67.1933 23.9607 66.8435 24.0376C66.5953 24.092 66.3923 24.2328 66.3923 24.3503C66.3923 24.5277 65.883 24.564 63.3843 24.564C60.9234 24.564 60.3762 24.5261 60.3762 24.356C60.3762 24.2415 60.2327 24.1104 60.0574 24.0645C59.7642 23.9878 59.7435 23.9003 59.8018 22.9839C59.8369 22.4354 59.936 21.9404 60.0225 21.8841C60.1088 21.8277 60.2291 21.5793 60.2897 21.3319C60.3505 21.0846 60.4648 20.8422 60.5439 20.7933C60.623 20.7444 60.7294 20.4392 60.7804 20.115C60.8313 19.7909 60.9643 19.4714 61.0759 19.4052C61.1899 19.3375 61.2786 19.0321 61.2786 18.7069C61.2786 18.332 61.3579 18.0985 61.5042 18.0423C61.6361 17.9917 61.7298 17.7663 61.7298 17.4998C61.7298 17.1948 61.8046 17.0439 61.9554 17.0439C62.1225 17.0439 62.181 16.8684 62.181 16.3671C62.181 15.8658 62.2396 15.6903 62.4066 15.6903C62.5737 15.6903 62.6322 15.5148 62.6322 15.0135C62.6322 14.5122 62.6908 14.3367 62.8579 14.3367C63.0155 14.3367 63.0835 14.1779 63.0835 13.8103C63.0835 13.4427 63.1514 13.2839 63.3091 13.2839C63.4846 13.2839 63.5347 13.0834 63.5347 12.3815C63.5347 11.6795 63.4846 11.4791 63.3091 11.4791C63.1587 11.4791 63.0835 11.3287 63.0835 11.0279C63.0835 10.7271 63.0083 10.5767 62.8579 10.5767C62.7338 10.5767 62.6322 10.4843 62.6322 10.3715C62.6322 10.2414 62.3769 10.1313 61.9344 10.0707C61.2292 9.97399 61.143 9.97474 60.2634 10.0838ZM85.9445 10.2691C85.9445 10.348 85.7076 10.4571 85.4181 10.5114C85.1165 10.5679 84.8917 10.6994 84.8917 10.8189C84.8917 10.9397 84.738 11.0279 84.5276 11.0279C84.2454 11.0279 84.1413 11.1292 84.0645 11.4791C84.01 11.7272 83.8692 11.9303 83.7518 11.9303C83.6342 11.9303 83.5381 12.0366 83.5381 12.1665C83.5381 12.2966 83.4365 12.5045 83.3125 12.6286C83.1884 12.7527 83.0869 13.0524 83.0869 13.2946C83.0869 13.5859 83.0105 13.7351 82.8613 13.7351C82.7036 13.7351 82.6357 13.8939 82.6357 14.2615C82.6357 14.6291 82.5677 14.7879 82.4101 14.7879C82.243 14.7879 82.1845 14.9634 82.1845 15.4647C82.1845 15.966 82.1259 16.1415 81.9588 16.1415C81.7884 16.1415 81.7332 16.3253 81.7332 16.8935C81.7332 17.4617 81.678 17.6455 81.5076 17.6455C81.3344 17.6455 81.282 17.8377 81.282 18.4727C81.282 19.1077 81.2297 19.2999 81.0564 19.2999C80.8896 19.2999 80.8308 19.4746 80.8308 19.9692C80.8308 20.3756 80.7502 20.6859 80.6257 20.7588C80.5108 20.8262 80.3873 21.2341 80.3453 21.6849C80.3041 22.1279 80.2035 22.534 80.1218 22.5873C80.0403 22.6404 79.9346 22.9813 79.8872 23.3448C79.8397 23.7084 79.7374 24.0468 79.66 24.0968C79.5825 24.1469 79.485 24.5505 79.4435 24.9937C79.4019 25.4368 79.2991 25.8429 79.2152 25.8961C79.1311 25.9492 79.0122 26.3651 78.9508 26.82C78.8895 27.275 78.7712 27.6902 78.6882 27.743C78.605 27.7957 78.5023 28.3371 78.4598 28.9462C78.4172 29.5552 78.3073 30.1018 78.2154 30.1607C78.1042 30.232 78.0331 31.3257 78.0024 33.4335C77.9622 36.1873 77.9867 36.6107 78.1904 36.6889C78.3191 36.7383 78.4244 36.8677 78.4244 36.9766C78.4244 37.2355 79.2918 38.1001 79.5515 38.1001C79.6622 38.1001 79.7815 38.1847 79.8162 38.2881C79.8958 38.5238 85.77 38.5285 85.923 38.293C85.9762 38.211 86.729 38.0962 87.5958 38.0377C88.4625 37.9791 89.207 37.8745 89.2502 37.8053C89.2933 37.7362 89.7176 37.6309 90.1933 37.5716C90.6691 37.5124 91.0581 37.4093 91.0581 37.3427C91.0581 37.2761 91.2612 37.177 91.5093 37.1225C91.861 37.0452 91.9606 36.942 91.9606 36.6546C91.9606 36.4519 92.0621 36.2469 92.1862 36.1994C92.3585 36.1332 92.4118 35.8504 92.4118 35.0008C92.4118 34.1127 92.3663 33.8889 92.1862 33.8889C92.0621 33.8889 91.9606 33.8212 91.9606 33.7385C91.9606 33.6558 91.8083 33.4357 91.6221 33.2497C91.295 32.9226 91.203 32.9128 88.8773 32.9576C87.553 32.983 86.4483 33.0677 86.4208 33.1456C86.3528 33.3377 84.1397 33.3292 84.1397 33.1369C84.1397 33.0542 84.0318 32.9865 83.8999 32.9865C83.7682 32.9865 83.6248 32.8511 83.5817 32.6857C83.5384 32.5202 83.4432 32.3849 83.3701 32.3849C83.2971 32.3849 83.2373 31.9788 83.2373 31.4825C83.2373 30.9861 83.2952 30.5801 83.366 30.5801C83.4368 30.5801 83.5403 30.091 83.5958 29.4933C83.6624 28.7766 83.7722 28.3643 83.9183 28.2825C84.0401 28.2144 84.1397 28.0951 84.1397 28.0175C84.1397 27.9398 84.2562 27.7402 84.3987 27.5737C84.6028 27.3354 84.8422 27.2712 85.5267 27.2712C86.0046 27.2712 86.3957 27.2099 86.3957 27.1348C86.3957 27.0598 87.3432 26.9497 88.5013 26.89C89.6594 26.8302 90.6069 26.7256 90.6069 26.6571C90.6069 26.5889 90.8438 26.4884 91.1333 26.4341C91.4349 26.3775 91.6598 26.2461 91.6598 26.1265C91.6598 26.0116 91.7613 25.9176 91.8854 25.9176C92.0094 25.9176 92.111 25.8161 92.111 25.692C92.111 25.5679 92.1786 25.4664 92.2614 25.4664C92.349 25.4664 92.4118 24.9651 92.4118 24.2632C92.4118 23.294 92.3678 23.06 92.1862 23.06C92.0621 23.06 91.9606 22.9585 91.9606 22.8344C91.9606 22.7103 91.859 22.6088 91.735 22.6088C91.6109 22.6088 91.5093 22.5073 91.5093 22.3832C91.5093 22.2168 91.3356 22.1576 90.8486 22.1576C90.4001 22.1576 90.1601 22.0851 90.1013 21.932C90.032 21.7512 89.7 21.7064 88.4308 21.7064C87.1232 21.7064 86.8469 21.667 86.8469 21.4808C86.8469 21.3567 86.7454 21.2552 86.6213 21.2552C86.4375 21.2552 86.3957 21.0044 86.3957 19.9015C86.3957 18.7987 86.4375 18.5479 86.6213 18.5479C86.7917 18.5479 86.8469 18.3641 86.8469 17.7959C86.8469 17.2277 86.9021 17.0439 87.0725 17.0439C87.2396 17.0439 87.2981 16.8684 87.2981 16.3671C87.2981 15.7906 87.3426 15.6903 87.5989 15.6903C87.766 15.6903 87.8997 15.59 87.8997 15.4647C87.8997 15.2767 88.2005 15.2391 89.7045 15.2391C91.248 15.2391 91.5093 15.2734 91.5093 15.4763C91.5093 15.6832 91.7724 15.7073 93.565 15.6643C95.0397 15.6291 95.6385 15.562 95.6833 15.4271C95.7176 15.3238 95.943 15.2391 96.1843 15.2391C96.4562 15.2391 96.623 15.1604 96.623 15.0323C96.623 14.9186 96.8164 14.7868 97.0527 14.7396C97.4307 14.664 97.4935 14.5713 97.5762 13.9688C97.703 13.0435 97.5409 11.9303 97.2794 11.9303C97.1666 11.9303 97.0742 11.8287 97.0742 11.7047C97.0742 11.5806 96.9727 11.4791 96.8486 11.4791C96.7245 11.4791 96.623 11.3775 96.623 11.2535C96.623 11.1031 96.4726 11.0279 96.1718 11.0279C95.8914 11.0279 95.7206 10.9504 95.7206 10.8232C95.7206 10.6815 95.4323 10.5923 94.7843 10.5335C94.2694 10.4869 93.8237 10.3759 93.7941 10.287C93.7243 10.0773 85.9445 10.0594 85.9445 10.2691ZM119.484 11.2535C119.484 11.3775 119.383 11.4791 119.258 11.4791C119.134 11.4791 119.033 11.5806 119.033 11.7047C119.033 11.8287 118.931 11.9303 118.807 11.9303C118.683 11.9303 118.582 12.0318 118.582 12.1559C118.582 12.2799 118.48 12.3815 118.356 12.3815C118.232 12.3815 118.13 12.483 118.13 12.6071C118.13 12.7312 118.029 12.8327 117.905 12.8327C117.781 12.8327 117.679 12.9632 117.679 13.1228C117.679 13.2822 117.581 13.511 117.461 13.631C117.341 13.751 117.2 14.0216 117.147 14.2325C117.094 14.4432 116.955 14.6524 116.838 14.6971C116.722 14.7419 116.626 14.882 116.626 15.0088C116.626 15.1355 116.564 15.2391 116.488 15.2391C116.412 15.2391 116.305 15.4421 116.25 15.6903C116.196 15.9385 116.094 16.1415 116.025 16.1415C115.955 16.1415 115.854 16.3446 115.799 16.5927C115.745 16.8409 115.641 17.0439 115.568 17.0439C115.496 17.0439 115.392 17.2808 115.338 17.5703C115.282 17.8719 115.15 18.0967 115.03 18.0967C114.899 18.0967 114.822 18.2632 114.822 18.5479C114.822 18.8487 114.746 18.9991 114.596 18.9991C114.446 18.9991 114.37 19.1495 114.37 19.4503C114.37 19.7511 114.295 19.9015 114.145 19.9015C113.994 19.9015 113.919 20.052 113.919 20.3528C113.919 20.6536 113.844 20.804 113.694 20.804C113.543 20.804 113.468 20.9548 113.468 21.2598C113.468 21.5263 113.374 21.7518 113.242 21.8023C113.116 21.8511 113.017 22.0749 113.017 22.3134C113.017 22.5467 112.924 22.8309 112.81 22.9449C112.696 23.0589 112.555 23.3683 112.497 23.6326C112.439 23.8967 112.334 24.1128 112.265 24.1128C112.195 24.1128 112.094 24.3158 112.039 24.564C111.985 24.8122 111.885 25.0152 111.818 25.0152C111.751 25.0152 111.649 25.2006 111.592 25.4273C111.535 25.654 111.421 25.8811 111.339 25.932C111.257 25.983 111.151 26.3052 111.106 26.648C111.054 27.0343 110.944 27.2712 110.816 27.2712C110.688 27.2712 110.61 27.4409 110.61 27.7224C110.61 28.0232 110.535 28.1736 110.385 28.1736C110.259 28.1736 110.159 28.3073 110.159 28.4744C110.159 28.6415 110.059 28.7752 109.934 28.7752C109.809 28.7752 109.708 28.8429 109.708 28.9256C109.708 29.0084 109.606 29.076 109.482 29.076C109.358 29.076 109.257 29.0138 109.257 28.9375C109.257 28.8614 109.054 28.7545 108.806 28.7C108.43 28.6175 108.354 28.5275 108.354 28.1618C108.354 27.8903 108.276 27.7224 108.149 27.7224C108.021 27.7224 107.911 27.4855 107.859 27.0992C107.813 26.7564 107.711 26.4348 107.632 26.3848C107.553 26.3347 107.438 25.9214 107.377 25.4664C107.315 25.0114 107.204 24.6002 107.129 24.5527C107.054 24.505 106.95 24.099 106.899 23.6503C106.847 23.2015 106.741 22.7932 106.665 22.7426C106.588 22.6922 106.487 22.2353 106.441 21.7274C106.383 21.0897 106.294 20.804 106.153 20.804C106.01 20.804 105.948 20.5961 105.948 20.1165C105.948 19.7057 105.857 19.338 105.722 19.2032C105.583 19.0638 105.497 18.6947 105.497 18.2365C105.497 17.6777 105.441 17.4951 105.271 17.4951C105.104 17.4951 105.045 17.3196 105.045 16.8183C105.045 16.317 104.987 16.1415 104.82 16.1415C104.669 16.1415 104.594 15.9911 104.594 15.6903C104.594 15.3895 104.519 15.2391 104.369 15.2391C104.243 15.2391 104.143 15.1054 104.143 14.9383C104.143 14.7712 104.043 14.6375 103.917 14.6375C103.793 14.6375 103.692 14.536 103.692 14.4119C103.692 14.2878 103.596 14.1863 103.479 14.1863C103.362 14.1863 103.238 14.1018 103.203 13.9983C103.161 13.8707 102.786 13.8103 102.037 13.8103C101.289 13.8103 100.914 13.8707 100.872 13.9983C100.837 14.1018 100.713 14.1863 100.596 14.1863C100.479 14.1863 100.383 14.3217 100.383 14.4871C100.383 14.6542 100.283 14.7879 100.157 14.7879C99.9694 14.7879 99.9318 15.0887 99.9318 16.5927C99.9318 18.0967 99.9694 18.3975 100.157 18.3975C100.328 18.3975 100.383 18.5813 100.383 19.1495C100.383 19.7178 100.438 19.9015 100.609 19.9015C100.784 19.9015 100.834 20.102 100.834 20.804C100.834 21.4698 100.889 21.7064 101.041 21.7064C101.184 21.7064 101.27 21.9675 101.318 22.5474C101.356 23.01 101.456 23.433 101.54 23.4874C101.623 23.5419 101.73 23.8837 101.778 24.2473C101.825 24.6108 101.927 24.9492 102.003 24.9993C102.08 25.0493 102.185 25.5594 102.237 26.1324C102.289 26.7054 102.394 27.213 102.47 27.2604C102.546 27.3078 102.658 27.7525 102.719 28.2488C102.78 28.7452 102.898 29.1949 102.981 29.248C103.064 29.3012 103.165 29.7073 103.207 30.1504C103.248 30.5936 103.352 31.0006 103.436 31.055C103.521 31.1095 103.622 31.5468 103.662 32.0271C103.702 32.5073 103.826 32.992 103.939 33.1044C104.068 33.2342 104.143 33.6615 104.143 34.2756C104.143 35.0348 104.192 35.2425 104.369 35.2425C104.536 35.2425 104.594 35.418 104.594 35.9193C104.594 36.4206 104.653 36.5961 104.82 36.5961C104.978 36.5961 105.045 36.7549 105.045 37.1225C105.045 37.4901 105.113 37.6489 105.271 37.6489C105.452 37.6489 105.497 37.8745 105.497 38.7769C105.497 39.6794 105.452 39.905 105.271 39.905C105.104 39.905 105.045 40.0805 105.045 40.5818C105.045 41.0831 104.987 41.2586 104.82 41.2586C104.662 41.2586 104.594 41.4174 104.594 41.785C104.594 42.1526 104.526 42.3114 104.369 42.3114C104.205 42.3114 104.143 42.4791 104.143 42.9177C104.143 43.3179 104.066 43.5534 103.917 43.6105C103.789 43.6599 103.692 43.8843 103.692 44.1323C103.692 44.4002 103.613 44.5674 103.486 44.5674C103.358 44.5674 103.248 44.8043 103.197 45.1907C103.151 45.5334 103.046 45.8556 102.963 45.9066C102.881 45.9576 102.764 46.2017 102.703 46.4489C102.642 46.6963 102.533 46.9379 102.46 46.986C102.387 47.034 102.286 47.3386 102.234 47.6628C102.183 47.9869 102.079 48.2933 102.003 48.3434C101.927 48.3935 101.827 48.715 101.781 49.0578C101.735 49.4006 101.638 49.6811 101.566 49.6811C101.495 49.6811 101.436 49.9856 101.436 50.3579C101.436 50.7301 101.504 51.0347 101.586 51.0347C101.669 51.0347 101.737 51.1652 101.737 51.3248C101.737 51.4842 101.825 51.7043 101.933 51.8136C102.041 51.9228 102.174 52.1308 102.229 52.2755C102.294 52.4463 102.489 52.5387 102.785 52.5387C103.09 52.5387 103.241 52.6134 103.241 52.7643C103.241 53.0728 104.418 53.0812 104.536 52.7735C104.582 52.6545 104.817 52.5137 105.058 52.4608C105.299 52.4077 105.497 52.2683 105.497 52.1508C105.497 52.0332 105.598 51.9371 105.722 51.9371C105.863 51.9371 105.948 51.7945 105.948 51.5564C105.948 51.3469 106.045 51.1383 106.164 51.0926C106.283 51.0469 106.424 50.8122 106.477 50.5708C106.53 50.3296 106.63 50.1323 106.7 50.1323C106.77 50.1323 106.871 49.9292 106.926 49.6811C106.98 49.4329 107.081 49.2299 107.151 49.2299C107.221 49.2299 107.325 49.0137 107.383 48.7496C107.441 48.4854 107.582 48.176 107.696 48.062C107.81 47.948 107.903 47.6637 107.903 47.4304C107.903 47.1919 108.002 46.9681 108.129 46.9194C108.261 46.8688 108.354 46.6434 108.354 46.3769C108.354 46.0719 108.429 45.921 108.58 45.921C108.729 45.921 108.806 45.772 108.806 45.4823C108.806 45.2411 108.878 45.0197 108.966 44.9903C109.054 44.961 109.164 44.6507 109.211 44.3009C109.264 43.9047 109.374 43.665 109.502 43.665C109.63 43.665 109.708 43.4953 109.708 43.2138C109.708 42.913 109.783 42.7626 109.934 42.7626C110.091 42.7626 110.159 42.6038 110.159 42.2362C110.159 41.891 110.23 41.7098 110.365 41.7098C110.493 41.7098 110.603 41.47 110.656 41.0739C110.703 40.724 110.813 40.4138 110.901 40.3844C110.99 40.3551 111.062 40.1337 111.062 39.8925C111.062 39.6214 111.14 39.4538 111.267 39.4538C111.395 39.4538 111.505 39.2169 111.557 38.8305C111.603 38.4877 111.708 38.1656 111.79 38.1146C111.873 38.0636 111.987 37.8365 112.044 37.6098C112.1 37.3832 112.202 37.1977 112.269 37.1977C112.336 37.1977 112.439 36.9816 112.497 36.7175C112.555 36.4532 112.696 36.1439 112.81 36.0299C112.924 35.9159 113.017 35.5905 113.017 35.307C113.017 34.9489 113.086 34.7913 113.242 34.7913C113.393 34.7913 113.468 34.6409 113.468 34.3401C113.468 34.0393 113.543 33.8889 113.694 33.8889C113.851 33.8889 113.919 33.7301 113.919 33.3625C113.919 32.9949 113.987 32.8361 114.145 32.8361C114.308 32.8361 114.37 32.669 114.37 32.2345C114.37 31.8 114.433 31.6329 114.596 31.6329C114.754 31.6329 114.822 31.474 114.822 31.1065C114.822 30.7389 114.89 30.5801 115.047 30.5801C115.198 30.5801 115.273 30.4297 115.273 30.1289C115.273 29.8281 115.348 29.6776 115.498 29.6776C115.649 29.6776 115.724 29.5268 115.724 29.2218C115.724 28.9709 115.818 28.73 115.932 28.6861C116.046 28.6421 116.182 28.3397 116.234 28.0139C116.287 27.6881 116.393 27.4216 116.471 27.4216C116.549 27.4216 116.657 27.1847 116.712 26.8952C116.766 26.6057 116.865 26.3688 116.932 26.3688C116.999 26.3688 117.098 26.1658 117.153 25.9176C117.207 25.6694 117.309 25.4664 117.378 25.4664C117.448 25.4664 117.552 25.2503 117.61 24.9862C117.668 24.7219 117.809 24.4125 117.923 24.2985C118.037 24.1845 118.13 23.9898 118.13 23.8657C118.13 23.7416 118.232 23.5386 118.356 23.4145C118.48 23.2904 118.582 22.9906 118.582 22.7485C118.582 22.4572 118.658 22.308 118.807 22.308C118.965 22.308 119.033 22.1491 119.033 21.7816C119.033 21.414 119.101 21.2552 119.258 21.2552C119.383 21.2552 119.484 21.1246 119.484 20.965C119.484 20.8056 119.574 20.585 119.684 20.4749C119.794 20.3646 119.931 20.0891 119.988 19.8624C120.045 19.6358 120.158 19.4503 120.239 19.4503C120.32 19.4503 120.386 19.3198 120.386 19.1602C120.386 19.0008 120.48 18.777 120.594 18.663C120.708 18.549 120.848 18.2396 120.907 17.9754C120.964 17.7113 121.069 17.4951 121.138 17.4951C121.208 17.4951 121.31 17.2921 121.364 17.0439C121.419 16.7958 121.559 16.5927 121.677 16.5927C121.813 16.5927 121.89 16.4328 121.89 16.154C121.89 15.9127 121.96 15.6923 122.044 15.664C122.129 15.6359 122.241 15.3426 122.293 15.0123C122.345 14.682 122.459 14.3659 122.545 14.3096C122.775 14.1594 122.762 12.4968 122.53 12.4192C122.426 12.3846 122.342 12.2605 122.342 12.1434C122.342 12.0262 122.24 11.9303 122.116 11.9303C121.992 11.9303 121.89 11.8287 121.89 11.7047C121.89 11.5794 121.757 11.4791 121.59 11.4791C121.423 11.4791 121.289 11.3787 121.289 11.2535C121.289 11.0779 121.088 11.0279 120.386 11.0279C119.685 11.0279 119.484 11.0779 119.484 11.2535ZM133.471 11.2535C133.471 11.4039 133.321 11.4791 133.02 11.4791C132.719 11.4791 132.569 11.5543 132.569 11.7047C132.569 11.8287 132.467 11.9303 132.343 11.9303C132.219 11.9303 132.118 12.0318 132.118 12.1559C132.118 12.2799 132.022 12.3815 131.904 12.3815C131.787 12.3815 131.646 12.5845 131.591 12.8327C131.537 13.0808 131.435 13.2839 131.366 13.2839C131.296 13.2839 131.195 13.4869 131.14 13.7351C131.086 13.9832 130.984 14.1863 130.915 14.1863C130.845 14.1863 130.74 14.4063 130.682 14.6751C130.624 14.9439 130.512 15.205 130.433 15.255C130.354 15.3051 130.252 15.6267 130.207 15.9695C130.155 16.3558 130.045 16.5927 129.917 16.5927C129.788 16.5927 129.711 16.764 129.711 17.0546C129.711 17.3088 129.61 17.6182 129.486 17.7422C129.362 17.8663 129.26 18.1709 129.26 18.419C129.26 18.6672 129.159 18.9718 129.035 19.0958C128.91 19.2199 128.809 19.5535 128.809 19.837C128.809 20.1951 128.74 20.3528 128.583 20.3528C128.416 20.3528 128.358 20.5283 128.358 21.0296C128.358 21.5308 128.299 21.7064 128.132 21.7064C127.965 21.7064 127.907 21.8823 127.907 22.3878C127.907 22.855 127.836 23.0967 127.681 23.1559C127.535 23.2122 127.455 23.4456 127.455 23.8206C127.455 24.1457 127.367 24.4512 127.253 24.5189C127.141 24.5851 127.008 24.9045 126.957 25.2286C126.906 25.5529 126.805 25.8575 126.732 25.9054C126.659 25.9536 126.558 26.2581 126.506 26.5822C126.455 26.9065 126.346 27.213 126.264 27.2636C126.183 27.3141 126.071 27.6369 126.016 27.9808C125.961 28.3248 125.822 28.6421 125.708 28.6861C125.58 28.7352 125.5 28.9926 125.5 29.3561C125.5 29.7419 125.422 29.9762 125.274 30.0329C125.12 30.0922 125.049 30.3339 125.049 30.801C125.049 31.3065 124.991 31.4825 124.823 31.4825C124.656 31.4825 124.598 31.6592 124.598 32.17C124.598 32.5807 124.507 32.9484 124.372 33.0832C124.192 33.2629 124.146 33.7504 124.146 35.4788C124.146 37.3075 124.182 37.6489 124.372 37.6489C124.496 37.6489 124.598 37.7505 124.598 37.8745C124.598 37.9986 124.699 38.1001 124.823 38.1001C124.947 38.1001 125.049 38.2017 125.049 38.3257C125.049 38.4746 125.198 38.5513 125.488 38.5513C125.729 38.5513 125.954 38.636 125.989 38.7393C126.073 38.991 132.374 39.0125 132.537 38.7618C132.596 38.6706 133.116 38.5488 133.693 38.4909C134.27 38.4331 134.779 38.3247 134.825 38.2499C134.871 38.1753 135.195 38.0686 135.544 38.0128C135.893 37.957 136.179 37.8553 136.179 37.787C136.179 37.7186 136.415 37.6181 136.705 37.5638C136.995 37.5095 137.231 37.4102 137.231 37.3433C137.231 37.2764 137.434 37.177 137.683 37.1225C137.931 37.0681 138.134 36.9273 138.134 36.8098C138.134 36.6727 138.296 36.5961 138.585 36.5961C138.886 36.5961 139.036 36.5209 139.036 36.3705C139.036 36.2452 139.17 36.1449 139.337 36.1449C139.504 36.1449 139.638 36.0446 139.638 35.9193C139.638 35.779 139.78 35.6937 140.014 35.6937C140.248 35.6937 140.39 35.6084 140.39 35.4681C140.39 35.3428 140.524 35.2425 140.691 35.2425C140.858 35.2425 140.991 35.1422 140.991 35.0169C140.991 34.8928 141.093 34.7913 141.217 34.7913C141.341 34.7913 141.443 34.6898 141.443 34.5657C141.443 34.4416 141.544 34.3401 141.668 34.3401C141.792 34.3401 141.894 34.2386 141.894 34.1145C141.894 33.9904 141.995 33.8889 142.119 33.8889C142.244 33.8889 142.345 33.7874 142.345 33.6633C142.345 33.5392 142.447 33.4377 142.571 33.4377C142.695 33.4377 142.796 33.3362 142.796 33.2121C142.796 33.088 142.872 32.9865 142.964 32.9865C143.183 32.9865 144.3 31.8693 144.3 31.6506C144.3 31.5581 144.402 31.4825 144.526 31.4825C144.65 31.4825 144.752 31.3809 144.752 31.2569C144.752 31.1328 144.814 31.0313 144.89 31.0313C144.966 31.0313 145.073 30.8282 145.128 30.5801C145.182 30.3319 145.323 30.1289 145.44 30.1289C145.558 30.1289 145.654 30.0273 145.654 29.9033C145.654 29.7792 145.716 29.6776 145.792 29.6776C145.869 29.6776 145.978 29.4615 146.036 29.1974C146.094 28.9332 146.235 28.6238 146.349 28.5098C146.463 28.3958 146.556 28.01 146.556 27.6526C146.556 27.2136 146.63 26.9745 146.782 26.916C146.968 26.8448 147.008 26.4574 147.008 24.7299C147.008 23.064 146.961 22.5837 146.782 22.4047C146.647 22.2699 146.556 21.9022 146.556 21.4914C146.556 20.9807 146.498 20.804 146.331 20.804C146.18 20.804 146.105 20.6531 146.105 20.3481C146.105 20.0816 146.011 19.8561 145.88 19.8056C145.755 19.7579 145.654 19.5549 145.654 19.3544C145.654 19.1538 145.556 18.9524 145.437 18.9066C145.319 18.8609 145.178 18.6263 145.125 18.3849C145.072 18.1437 144.966 17.9463 144.89 17.9463C144.814 17.9463 144.752 17.8442 144.752 17.7192C144.752 17.5944 144.616 17.3763 144.451 17.2346C144.285 17.0929 144.15 16.8907 144.15 16.7849C144.15 16.6792 144.048 16.5927 143.924 16.5927C143.8 16.5927 143.699 16.4912 143.699 16.3671C143.699 16.243 143.597 16.1415 143.473 16.1415C143.349 16.1415 143.247 16.04 143.247 15.9159C143.247 15.7918 143.146 15.6903 143.022 15.6903C142.898 15.6903 142.796 15.5888 142.796 15.4647C142.796 15.3406 142.695 15.2391 142.571 15.2391C142.447 15.2391 142.345 15.1376 142.345 15.0135C142.345 14.8894 142.244 14.7879 142.119 14.7879C141.995 14.7879 141.894 14.6864 141.894 14.5623C141.894 14.4382 141.807 14.3367 141.702 14.3367C141.596 14.3367 141.394 14.2013 141.252 14.0359C141.11 13.8704 140.892 13.7351 140.767 13.7351C140.642 13.7351 140.54 13.6728 140.54 13.5966C140.54 13.5205 140.343 13.4149 140.102 13.3618C139.86 13.3088 139.626 13.1681 139.58 13.0491C139.534 12.9301 139.399 12.8327 139.279 12.8327C139.159 12.8327 139.037 12.7606 139.008 12.6725C138.979 12.5845 138.668 12.4741 138.319 12.4272C137.922 12.374 137.683 12.2643 137.683 12.136C137.683 12.0077 137.513 11.9303 137.231 11.9303C136.931 11.9303 136.78 11.8551 136.78 11.7047C136.78 11.5291 136.58 11.4791 135.878 11.4791C135.176 11.4791 134.975 11.429 134.975 11.2535C134.975 11.0831 134.792 11.0279 134.223 11.0279C133.655 11.0279 133.471 11.0831 133.471 11.2535ZM167.913 11.2535C167.913 11.4039 167.763 11.4791 167.462 11.4791C167.161 11.4791 167.011 11.5543 167.011 11.7047C167.011 11.8287 166.909 11.9303 166.785 11.9303C166.661 11.9303 166.56 12.0318 166.56 12.1559C166.56 12.2799 166.458 12.3815 166.334 12.3815C166.21 12.3815 166.109 12.483 166.109 12.6071C166.109 12.7312 166.007 12.8327 165.883 12.8327C165.759 12.8327 165.657 12.9342 165.657 13.0583C165.657 13.1824 165.556 13.2839 165.432 13.2839C165.308 13.2839 165.206 13.3854 165.206 13.5095C165.206 13.6336 165.105 13.7351 164.981 13.7351C164.856 13.7351 164.755 13.8387 164.755 13.9653C164.755 14.0921 164.653 14.2347 164.529 14.2822C164.405 14.3299 164.304 14.4632 164.304 14.5784C164.304 14.6936 164.202 14.7879 164.078 14.7879C163.954 14.7879 163.853 14.8894 163.853 15.0135C163.853 15.1376 163.756 15.2391 163.639 15.2391C163.521 15.2391 163.381 15.4421 163.326 15.6903C163.272 15.9385 163.131 16.1415 163.013 16.1415C162.896 16.1415 162.8 16.243 162.8 16.3671C162.8 16.4912 162.698 16.5927 162.574 16.5927C162.45 16.5927 162.348 16.6942 162.348 16.8183C162.348 16.9424 162.247 17.0439 162.123 17.0439C161.998 17.0439 161.897 17.1776 161.897 17.3447C161.897 17.5118 161.797 17.6455 161.672 17.6455C161.531 17.6455 161.446 17.7875 161.446 18.0215C161.446 18.2556 161.361 18.3975 161.22 18.3975C161.095 18.3975 160.995 18.5312 160.995 18.6983C160.995 18.8654 160.895 18.9991 160.769 18.9991C160.645 18.9991 160.544 19.1007 160.544 19.2247C160.544 19.3488 160.442 19.4503 160.318 19.4503C160.168 19.4503 160.092 19.6007 160.092 19.9015C160.092 20.2024 160.017 20.3528 159.867 20.3528C159.743 20.3528 159.641 20.4543 159.641 20.5784C159.641 20.7024 159.545 20.804 159.428 20.804C159.31 20.804 159.169 21.007 159.115 21.2552C159.06 21.5033 158.92 21.7064 158.802 21.7064C158.685 21.7064 158.588 21.8007 158.588 21.9159C158.588 22.0311 158.487 22.1643 158.363 22.212C158.239 22.2595 158.137 22.4698 158.137 22.6793C158.137 22.9174 158.053 23.06 157.912 23.06C157.786 23.06 157.686 23.1937 157.686 23.3608C157.686 23.5279 157.586 23.6616 157.46 23.6616C157.31 23.6616 157.235 23.812 157.235 24.1128C157.235 24.4136 157.16 24.564 157.009 24.564C156.885 24.564 156.784 24.6655 156.784 24.7896C156.784 24.9137 156.682 25.0152 156.558 25.0152C156.408 25.0152 156.332 25.1656 156.332 25.4664C156.332 25.7672 156.257 25.9176 156.107 25.9176C155.956 25.9176 155.881 26.068 155.881 26.3688C155.881 26.6696 155.806 26.82 155.656 26.82C155.532 26.82 155.43 26.9236 155.43 27.0503C155.43 27.1771 155.328 27.3197 155.204 27.3672C155.08 27.4149 154.979 27.6179 154.979 27.8184C154.979 28.019 154.881 28.2204 154.762 28.2661C154.643 28.3119 154.503 28.5465 154.45 28.7879C154.397 29.0291 154.257 29.2264 154.14 29.2264C154.022 29.2264 153.926 29.328 153.926 29.452C153.926 29.5761 153.864 29.6776 153.787 29.6776C153.711 29.6776 153.604 29.8807 153.55 30.1289C153.496 30.377 153.355 30.5801 153.237 30.5801C153.1 30.5801 153.024 30.7417 153.024 31.0313C153.024 31.3321 152.948 31.4825 152.798 31.4825C152.648 31.4825 152.572 31.6329 152.572 31.9337C152.572 32.2345 152.497 32.3849 152.347 32.3849C152.222 32.3849 152.121 32.5186 152.121 32.6857C152.121 32.8528 152.021 32.9865 151.896 32.9865C151.755 32.9865 151.67 33.1291 151.67 33.3672C151.67 33.5767 151.575 33.7845 151.458 33.8293C151.341 33.874 151.205 34.0749 151.154 34.2757C151.104 34.4767 150.996 34.6409 150.915 34.6409C150.834 34.6409 150.768 34.7763 150.768 34.9417C150.768 35.1071 150.675 35.2425 150.562 35.2425C150.434 35.2425 150.324 35.4822 150.271 35.8784C150.224 36.2282 150.113 36.5385 150.025 36.5678C149.764 36.6551 149.823 38.3524 150.091 38.4554C150.215 38.5029 150.316 38.6455 150.316 38.7723C150.316 38.8989 150.418 39.0025 150.542 39.0025C150.666 39.0025 150.768 39.1041 150.768 39.2281C150.768 39.3786 150.918 39.4538 151.219 39.4538C151.52 39.4538 151.67 39.529 151.67 39.6794C151.67 39.8464 151.845 39.905 152.347 39.905C152.848 39.905 153.024 39.8464 153.024 39.6794C153.024 39.529 153.174 39.4538 153.475 39.4538C153.78 39.4538 153.926 39.379 153.926 39.2235C153.926 39.0967 154.028 38.9541 154.152 38.9066C154.276 38.8589 154.377 38.7251 154.377 38.6089C154.377 38.493 154.513 38.2821 154.678 38.1404C154.843 37.9988 154.979 37.7965 154.979 37.6907C154.979 37.585 155.08 37.4985 155.204 37.4985C155.342 37.4985 155.43 37.3582 155.43 37.1386C155.43 36.9407 155.532 36.7398 155.656 36.6921C155.78 36.6446 155.881 36.502 155.881 36.3752C155.881 36.2485 155.983 36.1449 156.107 36.1449C156.257 36.1449 156.332 35.9945 156.332 35.6937C156.332 35.3929 156.408 35.2425 156.558 35.2425C156.682 35.2425 156.784 35.141 156.784 35.0169C156.784 34.8928 156.885 34.7913 157.009 34.7913C157.16 34.7913 157.235 34.6409 157.235 34.3401C157.235 34.0393 157.31 33.8889 157.46 33.8889C157.585 33.8889 157.686 33.7874 157.686 33.6633C157.686 33.5392 157.79 33.4377 157.916 33.4377C158.043 33.4377 158.186 33.3362 158.233 33.2121C158.304 33.0271 158.682 32.9865 160.334 32.9865C161.442 32.9865 162.348 33.046 162.348 33.1188C162.348 33.1916 162.738 33.2793 163.213 33.3138C163.778 33.3545 164.195 33.4766 164.417 33.666C164.733 33.9373 164.755 34.0734 164.755 35.8023C164.755 36.8688 164.815 37.6489 164.898 37.6489C164.976 37.6489 165.087 38.055 165.143 38.5513C165.212 39.1657 165.311 39.4538 165.451 39.4538C165.565 39.4538 165.657 39.5553 165.657 39.6794C165.657 39.8034 165.759 39.905 165.883 39.905C166.007 39.905 166.109 40.0065 166.109 40.1306C166.109 40.311 166.334 40.3562 167.237 40.3562C168.139 40.3562 168.365 40.311 168.365 40.1306C168.365 40.0053 168.498 39.905 168.665 39.905C168.832 39.905 168.966 39.8046 168.966 39.6794C168.966 39.5553 169.068 39.4538 169.192 39.4538C169.341 39.4538 169.417 39.3047 169.417 39.015C169.417 38.7738 169.502 38.5482 169.605 38.5137C169.732 38.4716 169.811 38.0022 169.846 37.0724C169.886 36.0157 169.948 35.6937 170.109 35.6937C170.275 35.6937 170.32 35.3896 170.32 34.2649C170.32 33.0951 170.361 32.8361 170.545 32.8361C170.735 32.8361 170.771 32.5102 170.771 30.8057C170.771 29.1502 170.811 28.7752 170.985 28.7752C171.157 28.7752 171.208 28.3764 171.248 26.7391C171.281 25.3868 171.357 24.6661 171.475 24.5936C171.595 24.519 171.667 23.7016 171.7 22.0172C171.736 20.2127 171.799 19.5334 171.937 19.4878C172.079 19.4403 172.125 18.6325 172.125 16.129C172.125 13.2992 172.093 12.8327 171.899 12.8327C171.749 12.8327 171.673 12.6823 171.673 12.3815C171.673 12.0807 171.598 11.9303 171.448 11.9303C171.324 11.9303 171.222 11.8287 171.222 11.7047C171.222 11.5806 171.121 11.4791 170.997 11.4791C170.872 11.4791 170.771 11.3775 170.771 11.2535C170.771 11.0688 170.512 11.0279 169.342 11.0279C168.172 11.0279 167.913 11.0688 167.913 11.2535ZM185.21 11.2535C185.21 11.4039 185.059 11.4791 184.758 11.4791C184.458 11.4791 184.307 11.5543 184.307 11.7047C184.307 11.8287 184.206 11.9303 184.082 11.9303C183.957 11.9303 183.856 12.0318 183.856 12.1559C183.856 12.2799 183.76 12.3815 183.642 12.3815C183.525 12.3815 183.384 12.5845 183.33 12.8327C183.275 13.0808 183.174 13.2839 183.104 13.2839C183.034 13.2839 182.933 13.4869 182.878 13.7351C182.824 13.9832 182.722 14.1863 182.653 14.1863C182.583 14.1863 182.479 14.4063 182.42 14.6751C182.362 14.9439 182.25 15.205 182.171 15.255C182.093 15.3051 181.991 15.6267 181.945 15.9695C181.893 16.3558 181.783 16.5927 181.655 16.5927C181.526 16.5927 181.449 16.764 181.449 17.0546C181.449 17.3088 181.348 17.6182 181.224 17.7422C181.1 17.8663 180.998 18.1709 180.998 18.419C180.998 18.6672 180.897 18.9718 180.773 19.0958C180.649 19.2199 180.547 19.5535 180.547 19.837C180.547 20.1951 180.478 20.3528 180.321 20.3528C180.154 20.3528 180.096 20.5283 180.096 21.0296C180.096 21.5308 180.037 21.7064 179.87 21.7064C179.703 21.7064 179.645 21.8823 179.645 22.3878C179.645 22.855 179.574 23.0967 179.419 23.1559C179.273 23.2122 179.193 23.4456 179.193 23.8206C179.193 24.1457 179.105 24.4512 178.991 24.5189C178.879 24.5851 178.746 24.9045 178.695 25.2286C178.644 25.5529 178.543 25.8575 178.47 25.9054C178.397 25.9536 178.296 26.2581 178.244 26.5822C178.193 26.9065 178.084 27.213 178.003 27.2636C177.921 27.3141 177.809 27.6369 177.754 27.9808C177.699 28.3248 177.56 28.6421 177.446 28.6861C177.318 28.7352 177.238 28.9926 177.238 29.3561C177.238 29.7419 177.16 29.9762 177.013 30.0329C176.858 30.0922 176.787 30.3339 176.787 30.801C176.787 31.3065 176.729 31.4825 176.561 31.4825C176.394 31.4825 176.336 31.6592 176.336 32.17C176.336 32.5807 176.245 32.9484 176.11 33.0832C175.931 33.2629 175.885 33.7504 175.885 35.4788C175.885 37.3075 175.92 37.6489 176.11 37.6489C176.234 37.6489 176.336 37.7505 176.336 37.8745C176.336 37.9986 176.437 38.1001 176.561 38.1001C176.686 38.1001 176.787 38.2017 176.787 38.3257C176.787 38.4746 176.936 38.5513 177.226 38.5513C177.467 38.5513 177.693 38.636 177.727 38.7393C177.811 38.991 184.112 39.0125 184.275 38.7618C184.334 38.6706 184.854 38.5488 185.431 38.4909C186.008 38.4331 186.517 38.3247 186.563 38.2499C186.61 38.1753 186.933 38.0686 187.282 38.0128C187.631 37.957 187.917 37.8553 187.917 37.787C187.917 37.7186 188.154 37.6181 188.443 37.5638C188.733 37.5095 188.97 37.4102 188.97 37.3433C188.97 37.2764 189.173 37.177 189.421 37.1225C189.669 37.0681 189.872 36.9273 189.872 36.8098C189.872 36.6727 190.034 36.5961 190.323 36.5961C190.624 36.5961 190.774 36.5209 190.774 36.3705C190.774 36.2452 190.908 36.1449 191.075 36.1449C191.242 36.1449 191.376 36.0446 191.376 35.9193C191.376 35.779 191.518 35.6937 191.752 35.6937C191.986 35.6937 192.128 35.6084 192.128 35.4681C192.128 35.3428 192.262 35.2425 192.429 35.2425C192.596 35.2425 192.73 35.1422 192.73 35.0169C192.73 34.8928 192.831 34.7913 192.955 34.7913C193.079 34.7913 193.181 34.6898 193.181 34.5657C193.181 34.4416 193.282 34.3401 193.406 34.3401C193.53 34.3401 193.632 34.2386 193.632 34.1145C193.632 33.9904 193.734 33.8889 193.858 33.8889C193.982 33.8889 194.083 33.7874 194.083 33.6633C194.083 33.5392 194.185 33.4377 194.309 33.4377C194.433 33.4377 194.534 33.3362 194.534 33.2121C194.534 33.088 194.61 32.9865 194.703 32.9865C194.921 32.9865 196.038 31.8693 196.038 31.6506C196.038 31.5581 196.106 31.4825 196.189 31.4825C196.272 31.4825 196.339 31.3809 196.339 31.2569C196.339 31.1328 196.435 31.0313 196.553 31.0313C196.67 31.0313 196.811 30.8282 196.866 30.5801C196.92 30.3319 197.061 30.1289 197.178 30.1289C197.296 30.1289 197.392 30.0273 197.392 29.9033C197.392 29.7792 197.454 29.6776 197.531 29.6776C197.607 29.6776 197.716 29.4615 197.774 29.1974C197.832 28.9332 197.973 28.6238 198.087 28.5098C198.201 28.3958 198.294 28.01 198.294 27.6526C198.294 27.2136 198.368 26.9745 198.52 26.916C198.706 26.8448 198.746 26.4574 198.746 24.7299C198.746 23.064 198.699 22.5837 198.52 22.4047C198.385 22.2699 198.294 21.9022 198.294 21.4914C198.294 20.9807 198.237 20.804 198.069 20.804C197.918 20.804 197.843 20.6531 197.843 20.3481C197.843 20.0816 197.75 19.8561 197.618 19.8056C197.494 19.7579 197.392 19.5549 197.392 19.3544C197.392 19.1538 197.295 18.9524 197.176 18.9066C197.057 18.8609 196.916 18.6263 196.863 18.3849C196.81 18.1437 196.67 17.9463 196.553 17.9463C196.428 17.9463 196.339 17.7971 196.339 17.5864C196.339 17.3885 196.238 17.1876 196.114 17.1399C195.99 17.0923 195.888 16.9498 195.888 16.823C195.888 16.6963 195.787 16.5927 195.662 16.5927C195.538 16.5927 195.437 16.4912 195.437 16.3671C195.437 16.243 195.335 16.1415 195.211 16.1415C195.087 16.1415 194.986 16.04 194.986 15.9159C194.986 15.7918 194.884 15.6903 194.76 15.6903C194.636 15.6903 194.534 15.5888 194.534 15.4647C194.534 15.3406 194.433 15.2391 194.309 15.2391C194.185 15.2391 194.083 15.1376 194.083 15.0135C194.083 14.8894 193.982 14.7879 193.858 14.7879C193.734 14.7879 193.632 14.6864 193.632 14.5623C193.632 14.4382 193.546 14.3367 193.44 14.3367C193.334 14.3367 193.132 14.2013 192.99 14.0359C192.848 13.8704 192.63 13.7351 192.506 13.7351C192.381 13.7351 192.278 13.6728 192.278 13.5966C192.278 13.5205 192.081 13.4149 191.84 13.3618C191.598 13.3088 191.364 13.1681 191.318 13.0491C191.272 12.9301 191.137 12.8327 191.017 12.8327C190.897 12.8327 190.775 12.7606 190.746 12.6725C190.717 12.5845 190.407 12.4741 190.057 12.4272C189.661 12.374 189.421 12.2643 189.421 12.136C189.421 12.0077 189.251 11.9303 188.97 11.9303C188.669 11.9303 188.518 11.8551 188.518 11.7047C188.518 11.5291 188.318 11.4791 187.616 11.4791C186.914 11.4791 186.714 11.429 186.714 11.2535C186.714 11.0831 186.53 11.0279 185.962 11.0279C185.393 11.0279 185.21 11.0831 185.21 11.2535ZM211.379 11.2535C211.379 11.4111 211.221 11.4791 210.853 11.4791C210.485 11.4791 210.327 11.547 210.327 11.7047C210.327 11.8287 210.225 11.9303 210.101 11.9303C209.977 11.9303 209.875 12.0318 209.875 12.1559C209.875 12.2799 209.774 12.3815 209.65 12.3815C209.499 12.3815 209.424 12.5319 209.424 12.8327C209.424 13.1335 209.349 13.2839 209.199 13.2839C209.048 13.2839 208.973 13.4343 208.973 13.7351C208.973 14.0359 208.898 14.1863 208.747 14.1863C208.59 14.1863 208.522 14.3451 208.522 14.7127C208.522 15.0803 208.454 15.2391 208.296 15.2391C208.129 15.2391 208.071 15.4146 208.071 15.9159C208.071 16.4172 208.012 16.5927 207.845 16.5927C207.694 16.5927 207.619 16.7436 207.619 17.0486C207.619 17.3151 207.526 17.5405 207.394 17.5911C207.247 17.6473 207.168 17.8808 207.168 18.2557C207.168 18.5809 207.079 18.8863 206.965 18.954C206.854 19.0202 206.721 19.3396 206.67 19.6638C206.619 19.988 206.518 20.2926 206.445 20.3406C206.372 20.3887 206.27 20.6933 206.219 21.0174C206.168 21.3416 206.051 21.6533 205.959 21.7101C205.867 21.767 205.753 22.1108 205.705 22.4743C205.658 22.8378 205.559 23.1744 205.486 23.2226C205.413 23.2705 205.31 23.5747 205.257 23.898C205.205 24.2215 205.072 24.5762 204.962 24.6863C204.852 24.7962 204.762 25.1184 204.762 25.4019C204.762 25.76 204.693 25.9176 204.536 25.9176C204.369 25.9176 204.311 26.0931 204.311 26.5944C204.311 27.0957 204.252 27.2712 204.085 27.2712C203.918 27.2712 203.859 27.4467 203.859 27.948C203.859 28.4493 203.801 28.6248 203.634 28.6248C203.477 28.6248 203.408 28.7825 203.408 29.1406C203.408 29.4241 203.307 29.7577 203.183 29.8817C203.048 30.0165 202.957 30.3842 202.957 30.795C202.957 31.3057 202.899 31.4825 202.731 31.4825C202.565 31.4825 202.506 31.6571 202.506 32.1518C202.506 32.6018 202.429 32.8642 202.271 32.9525C202.078 33.0608 202.031 33.4651 202.008 35.2585L201.979 37.4333L202.521 37.9923C202.869 38.3515 203.201 38.5513 203.448 38.5513C203.661 38.5513 203.862 38.636 203.897 38.7393C203.981 38.991 210.283 39.0125 210.445 38.7618C210.504 38.6706 211.024 38.5488 211.601 38.4909C212.178 38.4331 212.692 38.3163 212.745 38.2316C212.797 38.1468 213.121 38.0397 213.463 37.9938C213.806 37.9478 214.087 37.8568 214.087 37.7915C214.087 37.7262 214.29 37.6282 214.538 37.5737C214.786 37.5193 214.989 37.4154 214.989 37.343C214.989 37.2705 215.226 37.1669 215.515 37.1126C215.817 37.0561 216.042 36.9246 216.042 36.805C216.042 36.685 216.195 36.5961 216.402 36.5961C216.6 36.5961 216.801 36.4946 216.848 36.3705C216.896 36.2464 217.038 36.1449 217.165 36.1449C217.292 36.1449 217.395 36.0434 217.395 35.9193C217.395 35.7689 217.546 35.6937 217.847 35.6937C218.147 35.6937 218.298 35.6185 218.298 35.4681C218.298 35.344 218.399 35.2425 218.523 35.2425C218.648 35.2425 218.749 35.141 218.749 35.0169C218.749 34.8928 218.851 34.7913 218.975 34.7913C219.099 34.7913 219.2 34.6898 219.2 34.5657C219.2 34.4416 219.304 34.3401 219.431 34.3401C219.557 34.3401 219.7 34.2386 219.747 34.1145C219.795 33.9904 219.928 33.8889 220.044 33.8889C220.159 33.8889 220.253 33.7874 220.253 33.6633C220.253 33.5392 220.355 33.4377 220.479 33.4377C220.603 33.4377 220.704 33.3362 220.704 33.2121C220.704 33.088 220.806 32.9865 220.93 32.9865C221.054 32.9865 221.155 32.885 221.155 32.7609C221.155 32.6368 221.257 32.5353 221.381 32.5353C221.505 32.5353 221.607 32.441 221.607 32.3258C221.607 32.2106 221.708 32.0773 221.832 32.0296C221.956 31.9821 222.058 31.8395 222.058 31.7127C222.058 31.5861 222.159 31.4825 222.284 31.4825C222.408 31.4825 222.509 31.3809 222.509 31.2569C222.509 31.1328 222.605 31.0313 222.723 31.0313C222.84 31.0313 222.981 30.8282 223.036 30.5801C223.09 30.3319 223.197 30.1289 223.273 30.1289C223.349 30.1289 223.412 30.0273 223.412 29.9033C223.412 29.7792 223.513 29.6776 223.637 29.6776C223.788 29.6776 223.863 29.5268 223.863 29.2218C223.863 28.9709 223.956 28.73 224.07 28.6862C224.188 28.6409 224.322 28.2711 224.381 27.8289C224.438 27.4012 224.56 27.0043 224.653 26.9468C224.888 26.8012 224.878 22.4208 224.642 22.3421C224.548 22.3108 224.427 21.952 224.373 21.5447C224.319 21.1372 224.219 20.804 224.151 20.804C224.083 20.804 223.982 20.5671 223.928 20.2776C223.871 19.976 223.74 19.7511 223.62 19.7511C223.489 19.7511 223.412 19.5847 223.412 19.2999C223.412 18.9991 223.336 18.8487 223.186 18.8487C223.036 18.8487 222.96 18.6983 222.96 18.3975C222.96 18.0967 222.885 17.9463 222.735 17.9463C222.594 17.9463 222.509 17.8043 222.509 17.5703C222.509 17.3363 222.424 17.1943 222.284 17.1943C222.158 17.1943 222.058 17.0606 222.058 16.8935C222.058 16.7264 221.958 16.5927 221.832 16.5927C221.708 16.5927 221.607 16.4912 221.607 16.3671C221.607 16.243 221.505 16.1415 221.381 16.1415C221.257 16.1415 221.155 16.04 221.155 15.9159C221.155 15.7918 221.054 15.6903 220.93 15.6903C220.806 15.6903 220.704 15.5888 220.704 15.4647C220.704 15.3406 220.603 15.2391 220.479 15.2391C220.355 15.2391 220.253 15.1376 220.253 15.0135C220.253 14.8894 220.149 14.7879 220.023 14.7879C219.896 14.7879 219.753 14.6864 219.706 14.5623C219.658 14.4382 219.525 14.3367 219.41 14.3367C219.295 14.3367 219.2 14.2406 219.2 14.123C219.2 14.0055 218.997 13.8647 218.749 13.8103C218.501 13.7558 218.298 13.6543 218.298 13.5847C218.298 13.515 218.095 13.4135 217.847 13.3591C217.598 13.3046 217.395 13.1639 217.395 13.0464C217.395 12.9288 217.289 12.8327 217.159 12.8327C217.029 12.8327 216.821 12.7312 216.697 12.6071C216.573 12.483 216.273 12.3815 216.031 12.3815C215.74 12.3815 215.591 12.3051 215.591 12.1559C215.591 11.9982 215.432 11.9303 215.064 11.9303C214.697 11.9303 214.538 11.8623 214.538 11.7047C214.538 11.5291 214.337 11.4791 213.635 11.4791C212.933 11.4791 212.733 11.429 212.733 11.2535C212.733 11.0864 212.557 11.0279 212.056 11.0279C211.555 11.0279 211.379 11.0864 211.379 11.2535ZM249.581 11.2535C249.581 11.3787 249.448 11.4791 249.281 11.4791C249.113 11.4791 248.98 11.5794 248.98 11.7047C248.98 11.8287 248.878 11.9303 248.754 11.9303C248.63 11.9303 248.529 12.0318 248.529 12.1559C248.529 12.2799 248.427 12.3815 248.303 12.3815C248.179 12.3815 248.077 12.483 248.077 12.6071C248.077 12.7312 248.015 12.8327 247.939 12.8327C247.863 12.8327 247.756 13.0357 247.701 13.2839C247.647 13.532 247.506 13.7351 247.389 13.7351C247.252 13.7351 247.175 13.8968 247.175 14.1863C247.175 14.4871 247.1 14.6375 246.949 14.6375C246.824 14.6375 246.724 14.7712 246.724 14.9383C246.724 15.1054 246.623 15.2391 246.498 15.2391C246.348 15.2391 246.273 15.3895 246.273 15.6903C246.273 15.9911 246.197 16.1415 246.047 16.1415C245.897 16.1415 245.821 16.2919 245.821 16.5927C245.821 16.8935 245.746 17.0439 245.596 17.0439C245.445 17.0439 245.37 17.1948 245.37 17.4998C245.37 17.7663 245.276 17.9917 245.145 18.0423C245.02 18.09 244.919 18.293 244.919 18.4935C244.919 18.6941 244.817 18.8972 244.693 18.9447C244.569 18.9924 244.468 19.1954 244.468 19.3959C244.468 19.5965 244.37 19.7979 244.251 19.8436C244.132 19.8894 243.992 20.124 243.939 20.3654C243.886 20.6066 243.785 20.804 243.716 20.804C243.646 20.804 243.542 21.0201 243.484 21.2842C243.426 21.5484 243.285 21.8578 243.171 21.9718C243.057 22.0858 242.964 22.3773 242.964 22.6195C242.964 22.9108 242.887 23.06 242.738 23.06C242.58 23.06 242.513 23.2188 242.513 23.5864C242.513 23.954 242.445 24.1128 242.287 24.1128C242.137 24.1128 242.061 24.2632 242.061 24.564C242.061 24.8648 241.986 25.0152 241.836 25.0152C241.685 25.0152 241.61 25.1656 241.61 25.4664C241.61 25.7672 241.535 25.9176 241.385 25.9176C241.217 25.9176 241.159 26.0931 241.159 26.5944C241.159 27.0957 241.1 27.2712 240.933 27.2712C240.783 27.2712 240.708 27.4216 240.708 27.7224C240.708 28.0232 240.632 28.1736 240.482 28.1736C240.358 28.1736 240.256 28.2773 240.256 28.4039C240.256 28.5307 240.138 28.6779 239.993 28.7313C239.848 28.7849 239.679 28.9011 239.617 28.9899C239.537 29.1043 239.472 29.1033 239.392 28.9864C239.33 28.8957 239.094 28.7763 238.868 28.7209C238.585 28.6516 238.425 28.4919 238.356 28.209C238.3 27.9828 238.195 27.7584 238.122 27.7102C238.05 27.6623 237.948 27.3577 237.897 27.0334C237.845 26.7093 237.735 26.3995 237.652 26.3451C237.569 26.2906 237.47 25.8677 237.431 25.405C237.383 24.8251 237.297 24.564 237.155 24.564C237.002 24.564 236.948 24.3274 236.948 23.6616C236.948 22.9597 236.898 22.7592 236.722 22.7592C236.545 22.7592 236.496 22.5503 236.496 21.7816C236.496 21.0129 236.448 20.804 236.271 20.804C236.1 20.804 236.045 20.6202 236.045 20.052C236.045 19.5138 235.986 19.2999 235.838 19.2999C235.696 19.2999 235.61 19.0388 235.562 18.4589C235.523 17.9963 235.424 17.5733 235.341 17.5189C235.257 17.4644 235.147 17.1546 235.096 16.8305C235.045 16.5062 234.938 16.2011 234.859 16.1522C234.78 16.1033 234.669 15.8779 234.612 15.6512C234.555 15.4245 234.448 15.2391 234.375 15.2391C234.301 15.2391 234.239 15.1546 234.238 15.0511C234.235 14.8282 233.588 14.1863 233.367 14.1863C233.282 14.1863 233.184 14.1018 233.15 13.9983C233.108 13.8724 232.748 13.8103 232.06 13.8103C231.371 13.8103 231.011 13.8724 230.969 13.9983C230.935 14.1018 230.811 14.1863 230.694 14.1863C230.576 14.1863 230.48 14.2899 230.48 14.4166C230.48 14.5433 230.379 14.6859 230.255 14.7335C230.072 14.8037 230.029 15.1562 230.029 16.5963C230.029 17.7185 230.088 18.3921 230.189 18.4258C230.277 18.4551 230.389 18.7823 230.437 19.1528C230.486 19.5233 230.594 19.8709 230.677 19.9253C230.761 19.9798 230.861 20.4027 230.899 20.8653C230.947 21.4453 231.033 21.7064 231.176 21.7064C231.329 21.7064 231.383 21.9429 231.383 22.6088C231.383 23.3107 231.433 23.5112 231.608 23.5112C231.779 23.5112 231.834 23.695 231.834 24.2632C231.834 24.8314 231.889 25.0152 232.06 25.0152C232.24 25.0152 232.285 25.2408 232.285 26.1432C232.285 27.0456 232.33 27.2712 232.511 27.2712C232.686 27.2712 232.736 27.471 232.736 28.1661C232.736 28.7631 232.805 29.1012 232.942 29.1813C233.056 29.2487 233.18 29.6566 233.222 30.1073C233.263 30.5504 233.365 30.9565 233.448 31.0098C233.531 31.0628 233.631 31.5019 233.67 31.9851C233.709 32.4683 233.811 32.9083 233.896 32.9627C233.981 33.0172 234.1 33.5354 234.161 34.1145C234.222 34.6935 234.337 35.2084 234.418 35.2585C234.498 35.3085 234.602 35.6301 234.648 35.9729C234.694 36.3156 234.785 36.5961 234.85 36.5961C234.915 36.5961 235.016 36.8122 235.074 37.0764C235.132 37.3406 235.273 37.65 235.387 37.764C235.675 38.0526 235.677 39.905 235.388 39.905C235.261 39.905 235.151 40.1418 235.099 40.5282C235.053 40.871 234.951 41.1925 234.872 41.2426C234.794 41.2927 234.682 41.5538 234.623 41.8226C234.565 42.0915 234.463 42.3114 234.396 42.3114C234.329 42.3114 234.229 42.6159 234.173 42.9882C234.117 43.3604 234.015 43.665 233.947 43.665C233.878 43.665 233.775 43.8504 233.718 44.0771C233.662 44.3037 233.548 44.5309 233.465 44.5818C233.383 44.6328 233.278 44.955 233.232 45.2978C233.18 45.6841 233.07 45.921 232.942 45.921C232.807 45.921 232.736 46.1023 232.736 46.4474C232.736 46.815 232.668 46.9738 232.511 46.9738C232.344 46.9738 232.285 47.1493 232.285 47.6506C232.285 48.1519 232.227 48.3274 232.06 48.3274C231.893 48.3274 231.834 48.503 231.834 49.0043C231.834 49.5055 231.775 49.6811 231.608 49.6811C231.441 49.6811 231.383 49.8566 231.383 50.3579C231.383 50.8592 231.441 51.0347 231.608 51.0347C231.759 51.0347 231.834 51.1851 231.834 51.4859C231.834 51.7867 231.909 51.9371 232.06 51.9371C232.185 51.9371 232.285 52.0708 232.285 52.2379C232.285 52.4694 232.386 52.5387 232.72 52.5387C232.968 52.5387 233.193 52.6357 233.242 52.7643C233.358 53.0678 234.518 53.0755 234.634 52.7735C234.679 52.6545 234.914 52.5137 235.155 52.4608C235.397 52.4077 235.594 52.2683 235.594 52.1508C235.594 52.0332 235.696 51.9371 235.82 51.9371C235.97 51.9371 236.045 51.7867 236.045 51.4859C236.045 51.1851 236.12 51.0347 236.271 51.0347C236.421 51.0347 236.496 50.8843 236.496 50.5835C236.496 50.2827 236.572 50.1323 236.722 50.1323C236.872 50.1323 236.948 49.9819 236.948 49.6811C236.948 49.3803 237.023 49.2299 237.173 49.2299C237.324 49.2299 237.399 49.079 237.399 48.774C237.399 48.5075 237.493 48.282 237.624 48.2315C237.751 48.1828 237.85 47.959 237.85 47.7204C237.85 47.4871 237.943 47.2029 238.057 47.0889C238.171 46.9749 238.312 46.6655 238.37 46.4012C238.428 46.1371 238.532 45.921 238.602 45.921C238.672 45.921 238.773 45.718 238.828 45.4698C238.882 45.2217 238.98 45.0186 239.045 45.0186C239.111 45.0186 239.202 44.7365 239.248 44.3914C239.295 44.0466 239.439 43.7049 239.569 43.6321C239.699 43.5593 239.805 43.341 239.805 43.1472C239.805 42.9533 239.907 42.7558 240.031 42.7081C240.155 42.6606 240.256 42.4455 240.256 42.2302C240.256 42.0148 240.358 41.7371 240.482 41.6131C240.606 41.489 240.708 41.1554 240.708 40.8719C240.708 40.5138 240.777 40.3562 240.933 40.3562C241.084 40.3562 241.159 40.2058 241.159 39.905C241.159 39.6042 241.234 39.4538 241.385 39.4538C241.552 39.4538 241.61 39.2782 241.61 38.7769C241.61 38.2757 241.669 38.1001 241.836 38.1001C241.986 38.1001 242.061 37.9497 242.061 37.6489C242.061 37.3481 242.137 37.1977 242.287 37.1977C242.445 37.1977 242.513 37.0389 242.513 36.6713C242.513 36.3262 242.583 36.1449 242.718 36.1449C242.846 36.1449 242.956 35.908 243.008 35.5217C243.054 35.1789 243.159 34.8567 243.241 34.8057C243.324 34.7548 243.438 34.5276 243.494 34.301C243.551 34.0743 243.655 33.8889 243.725 33.8889C243.795 33.8889 243.897 33.652 243.951 33.3625C244.006 33.073 244.109 32.8361 244.182 32.8361C244.254 32.8361 244.356 32.5696 244.408 32.2438C244.461 31.918 244.597 31.6156 244.711 31.5717C244.825 31.5277 244.919 31.2868 244.919 31.0359C244.919 30.7309 244.994 30.5801 245.145 30.5801C245.293 30.5801 245.37 30.4315 245.37 30.1449C245.37 29.8969 245.467 29.6725 245.596 29.6232C245.728 29.5727 245.821 29.3472 245.821 29.0807C245.821 28.7757 245.896 28.6248 246.047 28.6248C246.21 28.6248 246.273 28.4577 246.273 28.0232C246.273 27.5887 246.335 27.4216 246.498 27.4216C246.656 27.4216 246.724 27.2628 246.724 26.8952C246.724 26.5276 246.792 26.3688 246.949 26.3688C247.1 26.3688 247.175 26.2184 247.175 25.9176C247.175 25.6168 247.25 25.4664 247.401 25.4664C247.551 25.4664 247.626 25.3156 247.626 25.0105C247.626 24.744 247.72 24.5186 247.852 24.468C247.976 24.4204 248.077 24.2173 248.077 24.0168C248.077 23.8162 248.179 23.613 248.304 23.5652C248.428 23.5175 248.572 23.2193 248.622 22.9025C248.673 22.5858 248.808 22.2907 248.922 22.2468C249.037 22.2028 249.13 21.9619 249.13 21.711C249.13 21.406 249.205 21.2552 249.356 21.2552C249.506 21.2552 249.581 21.1048 249.581 20.804C249.581 20.5032 249.657 20.3528 249.807 20.3528C249.957 20.3528 250.033 20.2024 250.033 19.9015C250.033 19.6007 250.108 19.4503 250.258 19.4503C250.409 19.4503 250.484 19.2999 250.484 18.9991C250.484 18.6983 250.559 18.5479 250.709 18.5479C250.867 18.5479 250.935 18.3891 250.935 18.0215C250.935 17.6539 251.003 17.4951 251.161 17.4951C251.311 17.4951 251.386 17.3447 251.386 17.0439C251.386 16.7431 251.461 16.5927 251.612 16.5927C251.762 16.5927 251.837 16.4423 251.837 16.1415C251.837 15.86 251.915 15.6903 252.043 15.6903C252.171 15.6903 252.281 15.4506 252.334 15.0544C252.381 14.7046 252.492 14.3943 252.58 14.365C252.671 14.3346 252.74 13.8953 252.74 13.3466C252.74 12.589 252.691 12.3815 252.514 12.3815C252.39 12.3815 252.289 12.2799 252.289 12.1559C252.289 12.0318 252.221 11.9303 252.138 11.9303C252.055 11.9303 251.988 11.8287 251.988 11.7047C251.988 11.5794 251.854 11.4791 251.687 11.4791C251.52 11.4791 251.386 11.3787 251.386 11.2535C251.386 11.0779 251.186 11.0279 250.484 11.0279C249.782 11.0279 249.581 11.0779 249.581 11.2535ZM136.329 17.3249C136.329 17.3968 136.615 17.4939 136.965 17.5408C137.315 17.5878 137.625 17.6982 137.654 17.7862C137.684 17.8743 137.804 17.9463 137.921 17.9463C138.038 17.9463 138.134 18.0478 138.134 18.1719C138.134 18.296 138.235 18.3975 138.359 18.3975C138.484 18.3975 138.585 18.4991 138.585 18.6231C138.585 18.7472 138.66 18.8487 138.752 18.8487C138.983 18.8487 139.632 19.4843 139.635 19.7135C139.637 19.817 139.739 19.9015 139.863 19.9015C139.988 19.9015 140.089 20.0031 140.089 20.1272C140.089 20.2512 140.151 20.3528 140.228 20.3528C140.304 20.3528 140.411 20.5558 140.465 20.804C140.52 21.0521 140.66 21.2552 140.778 21.2552C140.915 21.2552 140.991 21.4168 140.991 21.7064C140.991 22.0072 141.067 22.1576 141.217 22.1576C141.384 22.1576 141.443 22.3331 141.443 22.8344C141.443 23.3357 141.501 23.5112 141.668 23.5112C141.846 23.5112 141.894 23.7201 141.894 24.4888C141.894 25.2575 141.846 25.4664 141.668 25.4664C141.501 25.4664 141.443 25.6419 141.443 26.1432C141.443 26.6445 141.384 26.82 141.217 26.82C141.071 26.82 140.991 26.9667 140.991 27.2378C140.991 27.4695 140.857 27.7703 140.691 27.9131C140.525 28.0548 140.39 28.2657 140.39 28.3816C140.39 28.4977 140.288 28.6316 140.164 28.6793C140.04 28.7268 139.939 28.8694 139.939 28.9962C139.939 29.1228 139.837 29.2264 139.713 29.2264C139.589 29.2264 139.487 29.328 139.487 29.452C139.487 29.5761 139.386 29.6776 139.262 29.6776C139.138 29.6776 139.036 29.7792 139.036 29.9033C139.036 30.0273 138.935 30.1289 138.811 30.1289C138.687 30.1289 138.585 30.2304 138.585 30.3545C138.585 30.5049 138.435 30.5801 138.134 30.5801C137.833 30.5801 137.683 30.6553 137.683 30.8057C137.683 30.9297 137.581 31.0313 137.457 31.0313C137.333 31.0313 137.231 31.1274 137.231 31.245C137.231 31.3624 137.028 31.5032 136.78 31.5577C136.532 31.6121 136.329 31.719 136.329 31.7952C136.329 31.8714 136.194 31.9337 136.028 31.9337C135.863 31.9337 135.727 32.0265 135.727 32.14C135.727 32.2646 135.489 32.3846 135.126 32.4426C134.795 32.4956 134.524 32.5981 134.524 32.6708C134.524 32.7433 134.292 32.8462 134.009 32.8993C133.725 32.9525 133.47 33.0659 133.441 33.1513C133.413 33.2368 133.104 33.345 132.754 33.392C132.404 33.4389 132.118 33.5361 132.118 33.6079C132.118 33.6797 131.813 33.7385 131.441 33.7385C131.069 33.7385 130.764 33.6708 130.764 33.5881C130.764 33.5054 130.666 33.4377 130.545 33.4377C130.135 33.4377 130.031 31.3085 130.429 31.0472C130.505 30.9971 130.609 30.6908 130.66 30.3666C130.712 30.0424 130.826 29.7324 130.915 29.6776C131.003 29.6229 131.118 29.3129 131.169 28.9887C131.22 28.6645 131.327 28.3568 131.405 28.3051C131.484 28.2532 131.584 27.8979 131.627 27.5155C131.678 27.065 131.778 26.82 131.912 26.82C132.056 26.82 132.118 26.6159 132.118 26.1432C132.118 25.6419 132.176 25.4664 132.343 25.4664C132.51 25.4664 132.569 25.2909 132.569 24.7896C132.569 24.2883 132.627 24.1128 132.795 24.1128C132.962 24.1128 133.02 23.9373 133.02 23.436C133.02 22.9347 133.079 22.7592 133.246 22.7592C133.403 22.7592 133.471 22.6004 133.471 22.2328C133.471 21.8652 133.539 21.7064 133.697 21.7064C133.864 21.7064 133.923 21.5308 133.923 21.0296C133.923 20.5283 133.981 20.3528 134.148 20.3528C134.316 20.3528 134.374 20.1768 134.374 19.6713C134.374 19.2041 134.445 18.9624 134.599 18.9032C134.723 18.8555 134.826 18.6716 134.828 18.4942C134.83 18.1602 135.418 17.4951 135.711 17.4951C135.803 17.4951 135.878 17.4274 135.878 17.3447C135.878 17.262 135.979 17.1943 136.103 17.1943C136.227 17.1943 136.329 17.2531 136.329 17.3249ZM188.067 17.3249C188.067 17.3968 188.353 17.4939 188.703 17.5408C189.053 17.5878 189.363 17.6982 189.392 17.7862C189.422 17.8743 189.542 17.9463 189.659 17.9463C189.776 17.9463 189.872 18.0478 189.872 18.1719C189.872 18.296 189.973 18.3975 190.098 18.3975C190.222 18.3975 190.323 18.4991 190.323 18.6231C190.323 18.7472 190.398 18.8487 190.49 18.8487C190.721 18.8487 191.37 19.4843 191.373 19.7135C191.375 19.817 191.478 19.9015 191.602 19.9015C191.726 19.9015 191.827 20.0031 191.827 20.1272C191.827 20.2512 191.889 20.3528 191.966 20.3528C192.042 20.3528 192.149 20.5558 192.203 20.804C192.258 21.0521 192.398 21.2552 192.516 21.2552C192.653 21.2552 192.73 21.4168 192.73 21.7064C192.73 22.0072 192.805 22.1576 192.955 22.1576C193.122 22.1576 193.181 22.3331 193.181 22.8344C193.181 23.3357 193.239 23.5112 193.406 23.5112C193.584 23.5112 193.632 23.7201 193.632 24.4888C193.632 25.2575 193.584 25.4664 193.406 25.4664C193.239 25.4664 193.181 25.6419 193.181 26.1432C193.181 26.6445 193.122 26.82 192.955 26.82C192.809 26.82 192.73 26.9667 192.73 27.2378C192.73 27.4695 192.596 27.7703 192.429 27.9131C192.263 28.0548 192.128 28.2657 192.128 28.3816C192.128 28.4977 192.026 28.6316 191.902 28.6793C191.778 28.7268 191.677 28.8694 191.677 28.9962C191.677 29.1228 191.575 29.2264 191.451 29.2264C191.327 29.2264 191.226 29.328 191.226 29.452C191.226 29.5761 191.124 29.6776 191 29.6776C190.876 29.6776 190.774 29.7792 190.774 29.9033C190.774 30.0273 190.673 30.1289 190.549 30.1289C190.425 30.1289 190.323 30.2304 190.323 30.3545C190.323 30.5049 190.173 30.5801 189.872 30.5801C189.571 30.5801 189.421 30.6553 189.421 30.8057C189.421 30.9297 189.319 31.0313 189.195 31.0313C189.071 31.0313 188.97 31.1274 188.97 31.245C188.97 31.3624 188.767 31.5032 188.518 31.5577C188.27 31.6121 188.067 31.719 188.067 31.7952C188.067 31.8714 187.932 31.9337 187.766 31.9337C187.601 31.9337 187.466 32.0265 187.466 32.14C187.466 32.2646 187.227 32.3846 186.864 32.4426C186.533 32.4956 186.262 32.5981 186.262 32.6708C186.262 32.7433 186.03 32.8462 185.747 32.8993C185.463 32.9525 185.208 33.0659 185.18 33.1513C185.151 33.2368 184.842 33.345 184.492 33.392C184.142 33.4389 183.856 33.5361 183.856 33.6079C183.856 33.6797 183.551 33.7385 183.179 33.7385C182.807 33.7385 182.502 33.6708 182.502 33.5881C182.502 33.5054 182.404 33.4377 182.283 33.4377C181.873 33.4377 181.77 31.3085 182.167 31.0472C182.243 30.9971 182.347 30.6908 182.399 30.3666C182.45 30.0424 182.556 29.7377 182.634 29.6895C182.712 29.6413 182.825 29.3311 182.886 29.0005C182.947 28.6698 183.062 28.3568 183.142 28.3051C183.222 28.2532 183.322 27.8979 183.365 27.5155C183.416 27.065 183.516 26.82 183.65 26.82C183.794 26.82 183.856 26.6159 183.856 26.1432C183.856 25.6419 183.914 25.4664 184.082 25.4664C184.249 25.4664 184.307 25.2909 184.307 24.7896C184.307 24.2883 184.366 24.1128 184.533 24.1128C184.7 24.1128 184.758 23.9373 184.758 23.436C184.758 22.9347 184.817 22.7592 184.984 22.7592C185.142 22.7592 185.21 22.6004 185.21 22.2328C185.21 21.8652 185.278 21.7064 185.435 21.7064C185.602 21.7064 185.661 21.5308 185.661 21.0296C185.661 20.5283 185.719 20.3528 185.886 20.3528C186.054 20.3528 186.112 20.1768 186.112 19.6713C186.112 19.2041 186.183 18.9624 186.338 18.9032C186.462 18.8555 186.564 18.6716 186.566 18.4942C186.568 18.1602 187.156 17.4951 187.449 17.4951C187.541 17.4951 187.616 17.4274 187.616 17.3447C187.616 17.262 187.717 17.1943 187.842 17.1943C187.966 17.1943 188.067 17.2531 188.067 17.3249ZM214.087 17.3447C214.087 17.4274 214.319 17.4951 214.602 17.4951C214.886 17.4951 215.219 17.5966 215.344 17.7207C215.468 17.8448 215.644 17.9463 215.735 17.9463C215.826 17.9463 215.94 18.0478 215.987 18.1719C216.035 18.296 216.168 18.3975 216.284 18.3975C216.399 18.3975 216.493 18.4991 216.493 18.6231C216.493 18.7472 216.595 18.8487 216.719 18.8487C216.843 18.8487 216.944 18.9503 216.944 19.0743C216.944 19.1984 217.046 19.2999 217.17 19.2999C217.295 19.2999 217.395 19.4336 217.395 19.6007C217.395 19.7678 217.496 19.9015 217.621 19.9015C217.745 19.9015 217.847 20.0031 217.847 20.1272C217.847 20.2512 217.948 20.3528 218.072 20.3528C218.223 20.3528 218.298 20.5032 218.298 20.804C218.298 21.1048 218.373 21.2552 218.523 21.2552C218.648 21.2552 218.749 21.3857 218.749 21.5453C218.749 21.7047 218.839 21.9254 218.949 22.0353C219.059 22.1454 219.193 22.505 219.246 22.8345C219.3 23.1641 219.413 23.4567 219.497 23.4849C219.582 23.5131 219.651 23.9649 219.651 24.4888C219.651 25.0126 219.582 25.4645 219.497 25.4927C219.413 25.5209 219.301 25.8141 219.249 26.1444C219.197 26.4747 219.063 26.799 218.952 26.8651C218.84 26.9313 218.749 27.185 218.749 27.4291C218.749 27.7233 218.673 27.8728 218.523 27.8728C218.383 27.8728 218.298 28.0148 218.298 28.2488C218.298 28.4829 218.213 28.6248 218.072 28.6248C217.947 28.6248 217.847 28.7585 217.847 28.9256C217.847 29.0911 217.762 29.2293 217.659 29.2328C217.555 29.2364 217.305 29.4394 217.102 29.684C216.899 29.9287 216.645 30.1289 216.538 30.1289C216.43 30.1289 216.343 30.2304 216.343 30.3545C216.343 30.4948 216.201 30.5801 215.967 30.5801C215.733 30.5801 215.591 30.6653 215.591 30.8057C215.591 30.9297 215.487 31.0313 215.36 31.0313C215.234 31.0313 215.093 31.1266 215.049 31.2433C215.004 31.3599 214.803 31.4966 214.602 31.547C214.401 31.5974 214.237 31.7051 214.237 31.7861C214.237 31.8673 214.102 31.9337 213.936 31.9337C213.771 31.9337 213.635 32.0263 213.635 32.1394C213.635 32.2671 213.399 32.3771 213.012 32.4289C212.669 32.4748 212.347 32.5799 212.296 32.6624C212.245 32.7448 212.018 32.8588 211.791 32.9156C211.565 32.9725 211.379 33.0772 211.379 33.148C211.379 33.2189 211.041 33.3219 210.627 33.3766C210.214 33.4315 209.875 33.5354 209.875 33.6075C209.875 33.6795 209.571 33.7385 209.199 33.7385C208.826 33.7385 208.522 33.6708 208.522 33.5881C208.522 33.5054 208.42 33.4377 208.296 33.4377C208.114 33.4377 208.071 33.2037 208.071 32.2345C208.071 31.2653 208.114 31.0313 208.296 31.0313C208.463 31.0313 208.522 30.8557 208.522 30.3545C208.522 29.8532 208.58 29.6776 208.747 29.6776C208.914 29.6776 208.973 29.5021 208.973 29.0008C208.973 28.5281 209.035 28.324 209.179 28.324C209.312 28.324 209.413 28.079 209.463 27.6286C209.507 27.2461 209.606 26.8909 209.685 26.839C209.764 26.7872 209.871 26.4795 209.922 26.1554C209.973 25.8311 210.075 25.5266 210.148 25.4786C210.22 25.4305 210.322 25.1259 210.373 24.8018C210.424 24.4775 210.533 24.171 210.615 24.1205C210.697 24.0699 210.809 23.7472 210.864 23.4032C210.919 23.0592 211.057 22.7419 211.172 22.698C211.286 22.654 211.379 22.4187 211.379 22.1749C211.379 21.9309 211.449 21.7083 211.533 21.68C211.618 21.6519 211.73 21.3586 211.782 21.0284C211.834 20.6981 211.942 20.3855 212.021 20.3338C212.1 20.2819 212.199 19.9267 212.243 19.5442C212.293 19.0937 212.394 18.8487 212.527 18.8487C212.656 18.8487 212.733 18.6792 212.733 18.3975C212.733 18.0967 212.808 17.9463 212.959 17.9463C213.083 17.9463 213.184 17.8448 213.184 17.7207C213.184 17.5966 213.286 17.4951 213.41 17.4951C213.534 17.4951 213.635 17.4274 213.635 17.3447C213.635 17.262 213.737 17.1943 213.861 17.1943C213.985 17.1943 214.087 17.262 214.087 17.3447ZM166.109 24.4888C166.109 26.4607 166.074 26.82 165.883 26.82C165.759 26.82 165.657 26.9065 165.657 27.0122C165.657 27.3558 165.017 27.7638 164.361 27.8376C163.465 27.9387 162.348 27.7516 162.348 27.5001C162.348 27.3881 162.286 27.2738 162.209 27.2461C162.133 27.2186 162.024 27.0098 161.967 26.7824C161.887 26.4601 161.918 26.3688 162.107 26.3688C162.293 26.3688 162.348 26.2136 162.348 25.692C162.348 25.214 162.41 25.0152 162.558 25.0152C162.673 25.0152 162.812 24.8367 162.867 24.6186C162.921 24.4004 163.166 24.0469 163.409 23.833C163.653 23.6192 163.853 23.3578 163.853 23.252C163.853 23.1465 163.954 23.06 164.078 23.06C164.202 23.06 164.304 22.9585 164.304 22.8344C164.304 22.7103 164.376 22.6088 164.465 22.6088C164.554 22.6088 164.728 22.5073 164.852 22.3832C164.976 22.2591 165.309 22.1576 165.593 22.1576H166.109V24.4888Z" fill="#4C5165"/>
<path fill-rule="evenodd" clip-rule="evenodd" d="M1.75907 8.65213C1.4911 5.31364 2.9556 2.48356 5.94328 0.566554C6.4352 0.250939 6.87023 0.0195555 6.90983 0.0527252C6.94963 0.0856939 6.79243 0.378793 6.56084 0.704258C5.13274 2.70972 4.83099 5.17956 5.81 6.8499L6.37288 7.81022L5.96037 8.19458C5.73341 8.40607 5.45358 8.57895 5.33839 8.57895C5.2232 8.57895 5.12892 8.6479 5.12892 8.73234C5.12892 8.81657 4.95985 8.97498 4.7534 9.08414C4.54694 9.19329 3.89299 9.57344 3.30016 9.92906C2.01539 10.6998 1.91688 10.6182 1.75907 8.65213ZM38.1889 1.2402C37.8069 0.605955 37.4945 0.0499104 37.4945 0.00467894C37.4945 -0.0405525 38.0148 0.24732 38.6504 0.644553C39.9014 1.42635 41.291 2.81767 41.7051 3.703C41.8476 4.00756 42.037 4.40278 42.126 4.5811C42.4798 5.28872 42.7701 7.45098 42.6732 8.65695C42.5014 10.7991 42.4941 10.8009 40.1457 9.26808C39.0193 8.53292 38.0976 7.86309 38.0976 7.77966C38.0976 7.69624 38.2781 7.39871 38.4987 7.11828C39.5891 5.73198 39.4638 3.35743 38.1889 1.2402ZM3.31644 13.0072C5.16591 11.1734 6.67201 10.3203 9.55155 9.47494C10.7728 9.1165 15.299 9.22586 16.8121 9.65043C18.3013 10.0682 19.9055 10.8142 20.9581 11.5785C21.984 12.3231 22.0684 12.3291 22.8832 11.715C24.2763 10.6646 26.2371 9.84282 28.4078 9.39955C29.8639 9.10223 33.1354 9.13821 34.4791 9.46629C39.9479 10.8017 44.1357 15.5144 44.1255 20.322C44.1096 27.6431 36.9666 35.8081 24.684 42.5454L22.0318 44L19.963 42.8728C16.9125 41.2104 14.8071 39.916 12.4638 38.2327V38.1954H12.4119C11.9092 37.8336 11.3952 37.4537 10.8582 37.0482C9.3867 35.9371 5.18822 31.9208 4.19534 30.6742C3.23382 29.4674 2.12776 27.6787 1.4714 26.2695C-0.977932 21.0104 -0.373639 16.6663 3.31644 13.0072Z" fill="#7D90E9"/>
</svg>
