<svg width="60" height="60" viewBox="0 0 60 60" fill="none" xmlns="http://www.w3.org/2000/svg">
<path d="M30 45C38.2843 45 45 38.2843 45 30C45 21.7157 38.2843 15 30 15C21.7157 15 15 21.7157 15 30C15 38.2843 21.7157 45 30 45Z" stroke="#B87CF1" stroke-width="3" stroke-miterlimit="10"/>
<path d="M30 35C33.4518 35 36.25 32.2018 36.25 28.75C36.25 25.2982 33.4518 22.5 30 22.5C26.5482 22.5 23.75 25.2982 23.75 28.75C23.75 32.2018 26.5482 35 30 35Z" stroke="#B87CF1" stroke-width="3" stroke-miterlimit="10"/>
<path d="M19.9685 41.1522C20.9101 39.301 22.3456 37.7464 24.1161 36.6606C25.8865 35.5747 27.923 35 29.9999 35C32.0768 35 34.1132 35.5747 35.8837 36.6605C37.6542 37.7464 39.0897 39.3009 40.0313 41.1522" stroke="#B87CF1" stroke-width="3" stroke-linecap="round" stroke-linejoin="round"/>
</svg>
