<svg width="132" height="33" viewBox="0 0 132 33" fill="none" xmlns="http://www.w3.org/2000/svg">
<path d="M16.8685 9.05974V26H11.5567V19.3962H6.50812V26H1.19635V9.05974H6.50812V15.1611H11.5567V9.05974H16.8685ZM32.3225 19.133C32.3225 19.4999 32.2985 19.8508 32.2507 20.1858H23.7088C23.7885 21.3502 24.275 21.9324 25.1683 21.9324C25.7426 21.9324 26.1573 21.6692 26.4125 21.1428H32.0353C31.8439 22.0999 31.4372 22.9613 30.8151 23.7269C30.2089 24.4767 29.4353 25.0748 28.4942 25.5215C27.569 25.9521 26.5481 26.1675 25.4315 26.1675C24.0916 26.1675 22.8953 25.8883 21.8425 25.33C20.8056 24.7718 19.9921 23.9742 19.4019 22.9374C18.8277 21.8846 18.5406 20.6563 18.5406 19.2526C18.5406 17.8489 18.8277 16.6286 19.4019 15.5918C19.9921 14.539 20.8056 13.7335 21.8425 13.1752C22.8953 12.6169 24.0916 12.3377 25.4315 12.3377C26.7714 12.3377 27.9598 12.6169 28.9966 13.1752C30.0494 13.7175 30.8629 14.4991 31.4372 15.52C32.0274 16.5409 32.3225 17.7452 32.3225 19.133ZM26.9389 17.8648C26.9389 17.4182 26.7953 17.0832 26.5082 16.8599C26.2211 16.6206 25.8622 16.501 25.4315 16.501C24.4904 16.501 23.9401 16.9556 23.7805 17.8648H26.9389ZM49.2438 12.5052L40.6062 32.4603H34.792L38.1896 25.33L32.5668 12.5052H38.4767L41.013 19.3483L43.3817 12.5052H49.2438ZM49.4773 19.2526C49.4773 17.8329 49.7166 16.6047 50.1951 15.5679C50.6896 14.5151 51.3596 13.7175 52.205 13.1752C53.0504 12.6169 53.9995 12.3377 55.0523 12.3377C55.9296 12.3377 56.6793 12.5212 57.3014 12.8881C57.9395 13.239 58.426 13.7255 58.7609 14.3476V8.29408H64.0727V26H58.7609V24.1576C58.426 24.7797 57.9395 25.2742 57.3014 25.6411C56.6793 25.992 55.9296 26.1675 55.0523 26.1675C53.9995 26.1675 53.0504 25.8963 52.205 25.354C51.3596 24.7957 50.6896 23.9981 50.1951 22.9613C49.7166 21.9085 49.4773 20.6723 49.4773 19.2526ZM58.7849 19.2526C58.7849 18.5348 58.6014 17.9765 58.2346 17.5777C57.8677 17.1789 57.3971 16.9796 56.8229 16.9796C56.2486 16.9796 55.7781 17.1789 55.4112 17.5777C55.0443 17.9765 54.8609 18.5348 54.8609 19.2526C54.8609 19.9704 55.0443 20.5287 55.4112 20.9275C55.7781 21.3263 56.2486 21.5257 56.8229 21.5257C57.3971 21.5257 57.8677 21.3263 58.2346 20.9275C58.6014 20.5287 58.7849 19.9704 58.7849 19.2526ZM65.7401 19.2526C65.7401 17.8329 65.9794 16.6047 66.4579 15.5679C66.9524 14.5151 67.6224 13.7175 68.4678 13.1752C69.3132 12.6169 70.2623 12.3377 71.3151 12.3377C72.1924 12.3377 72.9501 12.5212 73.5882 12.8881C74.2262 13.239 74.7127 13.7255 75.0477 14.3476V12.5052H80.3356V26H75.0477V24.1576C74.7127 24.7797 74.2262 25.2742 73.5882 25.6411C72.9501 25.992 72.1924 26.1675 71.3151 26.1675C70.2623 26.1675 69.3132 25.8963 68.4678 25.354C67.6224 24.7957 66.9524 23.9981 66.4579 22.9613C65.9794 21.9085 65.7401 20.6723 65.7401 19.2526ZM75.0477 19.2526C75.0477 18.5348 74.8643 17.9765 74.4974 17.5777C74.1305 17.1789 73.6599 16.9796 73.0857 16.9796C72.5115 16.9796 72.0409 17.1789 71.674 17.5777C71.3071 17.9765 71.1237 18.5348 71.1237 19.2526C71.1237 19.9704 71.3071 20.5287 71.674 20.9275C72.0409 21.3263 72.5115 21.5257 73.0857 21.5257C73.6599 21.5257 74.1305 21.3263 74.4974 20.9275C74.8643 20.5287 75.0477 19.9704 75.0477 19.2526ZM82.003 19.2526C82.003 17.8329 82.2422 16.6047 82.7208 15.5679C83.2152 14.5151 83.8852 13.7175 84.7306 13.1752C85.576 12.6169 86.5251 12.3377 87.5779 12.3377C88.4552 12.3377 89.205 12.5212 89.8271 12.8881C90.4651 13.239 90.9516 13.7255 91.2866 14.3476V8.29408H96.5984V26H91.2866V24.1576C90.9516 24.7797 90.4651 25.2742 89.8271 25.6411C89.205 25.992 88.4552 26.1675 87.5779 26.1675C86.5251 26.1675 85.576 25.8963 84.7306 25.354C83.8852 24.7957 83.2152 23.9981 82.7208 22.9613C82.2422 21.9085 82.003 20.6723 82.003 19.2526ZM91.3105 19.2526C91.3105 18.5348 91.1271 17.9765 90.7602 17.5777C90.3933 17.1789 89.9228 16.9796 89.3485 16.9796C88.7743 16.9796 88.3037 17.1789 87.9368 17.5777C87.5699 17.9765 87.3865 18.5348 87.3865 19.2526C87.3865 19.9704 87.5699 20.5287 87.9368 20.9275C88.3037 21.3263 88.7743 21.5257 89.3485 21.5257C89.9228 21.5257 90.3933 21.3263 90.7602 20.9275C91.1271 20.5287 91.3105 19.9704 91.3105 19.2526ZM98.2658 19.2526C98.2658 17.8329 98.5051 16.6047 98.9836 15.5679C99.4781 14.5151 100.148 13.7175 100.993 13.1752C101.839 12.6169 102.788 12.3377 103.841 12.3377C104.718 12.3377 105.468 12.5212 106.09 12.8881C106.728 13.239 107.214 13.7255 107.549 14.3476V8.29408H112.861V26H107.549V24.1576C107.214 24.7797 106.728 25.2742 106.09 25.6411C105.468 25.992 104.718 26.1675 103.841 26.1675C102.788 26.1675 101.839 25.8963 100.993 25.354C100.148 24.7957 99.4781 23.9981 98.9836 22.9613C98.5051 21.9085 98.2658 20.6723 98.2658 19.2526ZM107.573 19.2526C107.573 18.5348 107.39 17.9765 107.023 17.5777C106.656 17.1789 106.186 16.9796 105.611 16.9796C105.037 16.9796 104.567 17.1789 104.2 17.5777C103.833 17.9765 103.649 18.5348 103.649 19.2526C103.649 19.9704 103.833 20.5287 104.2 20.9275C104.567 21.3263 105.037 21.5257 105.611 21.5257C106.186 21.5257 106.656 21.3263 107.023 20.9275C107.39 20.5287 107.573 19.9704 107.573 19.2526ZM130.488 12.5052L121.85 32.4603H116.036L119.434 25.33L113.811 12.5052H119.721L122.257 19.3483L124.626 12.5052H130.488Z" fill="black"/>
</svg>
