<svg width="270" height="41" viewBox="0 0 270 41" fill="none" xmlns="http://www.w3.org/2000/svg">
<g clip-path="url(#clip0)">
<rect width="63" height="40.32" fill="white"/>
<path d="M9.31797 28.7713V23.607H7.80298V22.0088H12.6762V23.607H11.1611V28.7713H9.31797Z" fill="#A3B2CC"/>
<path d="M13.5763 28.7703V22.0078H15.5025C16.257 22.0078 16.7828 22.0425 17.08 22.1117C17.3771 22.181 17.6335 22.2973 17.8491 22.4604C18.0924 22.6452 18.2794 22.8809 18.4104 23.1672C18.5412 23.4535 18.6067 23.7692 18.6067 24.114C18.6067 24.6375 18.4781 25.0634 18.2211 25.3912C17.9638 25.7193 17.5889 25.937 17.0962 26.045L18.9393 28.7703H16.856L15.3039 26.1235V28.7703H13.5763ZM15.3039 25.2042H15.6457C16.043 25.2042 16.3331 25.1364 16.5164 25.0009C16.6997 24.8655 16.7914 24.653 16.7914 24.3635C16.7914 24.0247 16.706 23.7837 16.535 23.6406C16.3642 23.4973 16.077 23.4258 15.6735 23.4258H15.3041V25.2042H15.3039Z" fill="#A3B2CC"/>
<path d="M18.8477 28.7703L21.1803 22.0078H23.4899L25.8272 28.7703H23.9934L23.6516 27.56H21.0324L20.6813 28.7703H18.8477ZM21.4298 26.2436H23.2636L22.5753 24.0125C22.5538 23.9447 22.5245 23.8355 22.4875 23.6845C22.4506 23.5337 22.4029 23.3397 22.3443 23.1025C22.3042 23.2688 22.265 23.4273 22.2266 23.5782C22.1881 23.729 22.1487 23.8738 22.1088 24.0123L21.4298 26.2436Z" fill="#A3B2CC"/>
<path d="M26.4741 28.7704V22.0079H28.2525L30.807 25.4861C30.8562 25.5571 30.9368 25.6993 31.0493 25.9134C31.1617 26.1275 31.2859 26.3823 31.4213 26.6779C31.3843 26.3977 31.3574 26.1483 31.3405 25.9296C31.3235 25.7109 31.315 25.5169 31.315 25.3475V22.0078H33.0841V28.7703H31.315L28.7605 25.2782C28.7081 25.2073 28.6258 25.065 28.5134 24.851C28.4009 24.6367 28.2786 24.3852 28.1462 24.0956C28.1832 24.379 28.2099 24.6299 28.227 24.8486C28.2438 25.0674 28.2525 25.2614 28.2525 25.4307V28.7704H26.4741Z" fill="#A3B2CC"/>
<path d="M34.8339 26.5858C35.108 26.8969 35.3782 27.1294 35.6445 27.2833C35.9109 27.4372 36.1764 27.5143 36.4413 27.5143C36.6876 27.5143 36.8901 27.448 37.0487 27.3157C37.2072 27.1834 37.2866 27.0154 37.2866 26.8122C37.2866 26.5874 37.2181 26.4142 37.0812 26.2925C36.944 26.1708 36.6339 26.0454 36.1504 25.916C35.4883 25.7375 35.0202 25.5049 34.7461 25.2186C34.472 24.9323 34.3349 24.5396 34.3349 24.0408C34.3349 23.3941 34.5512 22.8668 34.984 22.4587C35.4165 22.0505 35.9777 21.8467 36.6676 21.8467C37.0402 21.8467 37.3935 21.8966 37.7277 21.9968C38.0616 22.0968 38.3781 22.2484 38.6769 22.4518L38.0994 23.7775C37.8899 23.599 37.6751 23.4641 37.455 23.3735C37.2349 23.2826 37.017 23.237 36.8013 23.237C36.5795 23.237 36.3994 23.2903 36.2608 23.3963C36.1222 23.5027 36.053 23.6389 36.053 23.8052C36.053 23.9746 36.1137 24.11 36.2354 24.2116C36.3569 24.3132 36.5918 24.4102 36.9398 24.5026L37.023 24.5257C37.7742 24.7289 38.2686 24.9523 38.5057 25.1955C38.6658 25.3619 38.7875 25.5612 38.8706 25.7937C38.9538 26.0263 38.9955 26.284 38.9955 26.5674C38.9955 27.285 38.7598 27.8614 38.2887 28.2974C37.8176 28.7331 37.1893 28.951 36.4041 28.951C35.9329 28.951 35.504 28.8708 35.1176 28.7108C34.7311 28.5507 34.3594 28.2997 34.0021 27.9578L34.8339 26.5858Z" fill="#A3B2CC"/>
<path d="M40.0314 28.7703V22.0078H44.1748V23.4906H41.8282V24.6638H44.0408V26.1143H41.8282V28.7703H40.0314Z" fill="#A3B2CC"/>
<path d="M45.1772 28.7703V22.0078H49.3206V23.4906H46.974V24.6638H49.1867V26.1143H46.974V27.2551H49.3206V28.7703H45.1772Z" fill="#A3B2CC"/>
<path d="M50.5397 28.7703V22.0078H52.4659C53.2204 22.0078 53.7462 22.0425 54.0433 22.1117C54.3405 22.181 54.597 22.2973 54.8124 22.4604C55.0557 22.6452 55.2428 22.8809 55.3737 23.1672C55.5044 23.4535 55.57 23.7692 55.57 24.114C55.57 24.6375 55.4413 25.0634 55.1843 25.3912C54.927 25.7193 54.5523 25.937 54.0595 26.045L55.9026 28.7703H53.8194L52.2672 26.1235V28.7703H50.5397ZM52.2672 25.2042H52.6091C53.0065 25.2042 53.2966 25.1364 53.4798 25.0009C53.663 24.8655 53.7548 24.653 53.7548 24.3635C53.7548 24.0247 53.6693 23.7837 53.4984 23.6406C53.3274 23.4973 53.0403 23.4258 52.6369 23.4258H52.2672V25.2042Z" fill="#A3B2CC"/>
<path d="M19.0547 20.7833V11.7666H21.5244C22.5427 11.7666 23.2541 11.7996 23.6585 11.8652C24.0628 11.9309 24.4108 12.0437 24.7025 12.2039C25.035 12.3887 25.2884 12.636 25.463 12.9461C25.6376 13.2561 25.7248 13.6143 25.7248 14.0208C25.7248 14.5342 25.5944 14.9416 25.3338 15.2434C25.0729 15.5452 24.6572 15.7741 24.0866 15.9301C24.7271 15.9794 25.228 16.2042 25.5893 16.6045C25.9505 17.0049 26.1314 17.5397 26.1314 18.2089C26.1314 18.6893 26.0297 19.1123 25.8265 19.4776C25.6232 19.8432 25.3327 20.1265 24.955 20.3276C24.6471 20.4918 24.2673 20.6088 23.8156 20.6787C23.3639 20.7486 22.6247 20.7835 21.5984 20.7835H19.0547V20.7833ZM21.3335 15.3696H21.8262C22.4337 15.3696 22.8507 15.303 23.0765 15.1694C23.3021 15.0361 23.4152 14.8051 23.4152 14.4765C23.4152 14.1358 23.3095 13.8967 23.0981 13.759C22.8866 13.6216 22.475 13.5527 21.8632 13.5527H21.3335V15.3696ZM21.3335 18.9417H22.1957C22.7787 18.9417 23.1913 18.8689 23.4337 18.7231C23.676 18.5774 23.797 18.334 23.797 17.9933C23.797 17.6156 23.6862 17.3517 23.4644 17.2018C23.2427 17.0521 22.8321 16.9771 22.2326 16.9771H21.3334V18.9417H21.3335Z" fill="#A3B2CC"/>
<path d="M26.551 20.7824L29.6613 11.7656H32.7408L35.8572 20.7824H33.4122L32.9564 19.1687H29.4644L28.9962 20.7824H26.551ZM29.9937 17.4134H32.439L31.5212 14.4386C31.4924 14.3484 31.4534 14.2026 31.4042 14.0014C31.3549 13.8003 31.2912 13.5415 31.2131 13.2253C31.1598 13.447 31.1074 13.6586 31.0561 13.8597C31.0047 14.0609 30.9523 14.2538 30.8991 14.4386L29.9937 17.4134Z" fill="#A3B2CC"/>
<path d="M36.7196 20.7824V11.7656H39.0908L42.4967 16.4033C42.5621 16.4978 42.6699 16.6876 42.82 16.973C42.9698 17.2584 43.135 17.5982 43.3159 17.9923C43.2665 17.6187 43.2305 17.2862 43.208 16.9946C43.1855 16.703 43.1742 16.4445 43.1742 16.2186V11.7656H45.533V20.7824H43.1742L39.7683 16.1261C39.6984 16.0318 39.5887 15.8419 39.4388 15.5564C39.2889 15.271 39.1255 14.9354 38.9491 14.5494C38.9985 14.9272 39.0345 15.2619 39.057 15.5533C39.0794 15.8448 39.0909 16.1036 39.0909 16.3294V20.7824H36.7196Z" fill="#A3B2CC"/>
<path d="M47.4666 20.7824V11.7656H49.8993V15.8613L52.751 11.7656H55.6149L52.2829 16.1631L55.9044 20.7823H52.8372L49.8993 16.7358V20.7823H47.4666V20.7824Z" fill="#A3B2CC"/>
<path d="M17.0832 11.7432H7.09741V13.5301H17.0832V11.7432Z" fill="#A3B2CC"/>
<path d="M17.0828 15.2119H7.09705V16.9988H17.0828V15.2119Z" fill="#A3B2CC"/>
<path d="M17.0828 18.9951H7.09705V20.7821H17.0828V18.9951Z" fill="#A3B2CC"/>
</g>
<g clip-path="url(#clip1)">
<rect x="81" y="0.160156" width="62.5" height="40" fill="white"/>
<path d="M109.084 27.0795H105.236L107.643 13.2852H111.49L109.084 27.0795Z" fill="#A3B2CC"/>
<path d="M123.033 13.6224C122.274 13.3433 121.07 13.0352 119.582 13.0352C115.782 13.0352 113.106 14.9134 113.09 17.5988C113.058 19.5801 115.006 20.6805 116.462 21.3412C117.951 22.0162 118.457 22.4568 118.457 23.0585C118.442 23.9827 117.254 24.4086 116.146 24.4086C114.61 24.4086 113.787 24.189 112.536 23.6749L112.029 23.4545L111.491 26.551C112.393 26.9321 114.056 27.2703 115.782 27.2852C119.82 27.2852 122.448 25.4359 122.479 22.5742C122.495 21.0039 121.466 19.8007 119.249 18.8175C117.903 18.1863 117.079 17.7607 117.079 17.1149C117.095 16.5278 117.776 15.9265 119.296 15.9265C120.546 15.8971 121.466 16.1758 122.162 16.4547L122.51 16.6012L123.033 13.6224Z" fill="#A3B2CC"/>
<path d="M128.147 22.1927C128.464 21.4002 129.683 18.3331 129.683 18.3331C129.667 18.3626 130 17.526 130.19 17.0125L130.458 18.2011C130.458 18.2011 131.187 21.503 131.345 22.1927C130.744 22.1927 128.907 22.1927 128.147 22.1927ZM132.897 13.2852H129.92C129.003 13.2852 128.305 13.5344 127.909 14.4297L122.194 27.0793H126.231C126.231 27.0793 126.896 25.3768 127.039 25.0101C127.482 25.0101 131.409 25.0101 131.979 25.0101C132.09 25.4944 132.438 27.0793 132.438 27.0793H136.001L132.897 13.2852Z" fill="#A3B2CC"/>
<path d="M102.021 13.2852L98.2527 22.6916L97.8409 20.7839C97.1442 18.5826 94.9593 16.1909 92.521 15.0017L95.9726 27.0649H100.042L106.09 13.2852H102.021Z" fill="#A3B2CC"/>
<path d="M94.7541 13.2852H88.5633L88.5 13.5639C93.3292 14.7086 96.5275 17.4679 97.8415 20.7844L96.4957 14.4447C96.2741 13.5637 95.5932 13.3142 94.7541 13.2852Z" fill="#A3B2CC"/>
</g>
<g clip-path="url(#clip2)">
<rect x="161.5" width="63" height="40.32" fill="white"/>
<path d="M198.499 30.0688H187.475V10.2568H198.499V30.0688Z" fill="#A3B2CC"/>
<path d="M188.182 20.1617C188.182 16.1428 190.063 12.5628 192.994 10.2557C190.851 8.56866 188.146 7.56172 185.207 7.56172C178.249 7.56172 172.609 13.2028 172.609 20.1617C172.609 27.1206 178.249 32.7617 185.207 32.7617C188.146 32.7617 190.851 31.7548 192.994 30.0677C190.063 27.7607 188.182 24.1807 188.182 20.1617Z" fill="#A3B2CC"/>
<path d="M213.367 20.1617C213.367 27.1206 207.727 32.7617 200.769 32.7617C197.829 32.7617 195.125 31.7548 192.981 30.0677C195.912 27.7607 197.794 24.1807 197.794 20.1617C197.794 16.1428 195.912 12.5628 192.981 10.2557C195.125 8.56866 197.829 7.56172 200.769 7.56172C207.727 7.56172 213.367 13.2028 213.367 20.1617Z" fill="#A3B2CC"/>
<path d="M182.09 20.2414C182.09 19.691 182.45 19.2389 183.04 19.2389C183.603 19.2389 183.983 19.6715 183.983 20.2414C183.983 20.8113 183.603 21.2439 183.04 21.2439C182.45 21.2439 182.09 20.7918 182.09 20.2414ZM184.625 20.2414V18.6758H183.944V19.0559C183.728 18.774 183.4 18.5971 182.955 18.5971C182.077 18.5971 181.388 19.2854 181.388 20.2414C181.388 21.1982 182.077 21.8857 182.955 21.8857C183.4 21.8857 183.728 21.7088 183.944 21.4269V21.807H184.625V20.2414ZM207.632 20.2414C207.632 19.691 207.993 19.2389 208.582 19.2389C209.146 19.2389 209.525 19.6715 209.525 20.2414C209.525 20.8113 209.146 21.2439 208.582 21.2439C207.993 21.2439 207.632 20.7918 207.632 20.2414ZM210.168 20.2414V17.4183H209.486V19.0559C209.27 18.774 208.943 18.5971 208.497 18.5971C207.619 18.5971 206.931 19.2854 206.931 20.2414C206.931 21.1982 207.619 21.8857 208.497 21.8857C208.943 21.8857 209.27 21.7088 209.486 21.4269V21.807H210.168V20.2414ZM193.076 19.2067C193.514 19.2067 193.796 19.4818 193.868 19.9662H192.244C192.316 19.5141 192.591 19.2067 193.076 19.2067ZM193.089 18.5971C192.172 18.5971 191.53 19.2651 191.53 20.2414C191.53 21.2372 192.198 21.8857 193.135 21.8857C193.607 21.8857 194.039 21.768 194.419 21.4471L194.085 20.9425C193.823 21.1517 193.488 21.2701 193.174 21.2701C192.735 21.2701 192.336 21.0669 192.238 20.5031H194.563C194.569 20.4184 194.576 20.3329 194.576 20.2414C194.569 19.2651 193.967 18.5971 193.089 18.5971ZM201.31 20.2414C201.31 19.691 201.671 19.2389 202.26 19.2389C202.823 19.2389 203.204 19.6715 203.204 20.2414C203.204 20.8113 202.823 21.2439 202.26 21.2439C201.671 21.2439 201.31 20.7918 201.31 20.2414ZM203.845 20.2414V18.6758H203.165V19.0559C202.948 18.774 202.621 18.5971 202.176 18.5971C201.298 18.5971 200.609 19.2854 200.609 20.2414C200.609 21.1982 201.298 21.8857 202.176 21.8857C202.621 21.8857 202.948 21.7088 203.165 21.4269V21.807H203.845V20.2414ZM197.465 20.2414C197.465 21.1914 198.127 21.8857 199.136 21.8857C199.607 21.8857 199.922 21.7808 200.262 21.5123L199.935 20.962C199.679 21.1457 199.411 21.2439 199.116 21.2439C198.572 21.2372 198.172 20.8442 198.172 20.2414C198.172 19.6385 198.572 19.2456 199.116 19.2389C199.411 19.2389 199.679 19.3371 199.935 19.5208L200.262 18.9705C199.922 18.702 199.607 18.5971 199.136 18.5971C198.127 18.5971 197.465 19.2914 197.465 20.2414ZM206.243 18.5971C205.85 18.5971 205.595 18.7808 205.418 19.0559V18.6758H204.743V21.807H205.425V20.0517C205.425 19.5336 205.647 19.2456 206.093 19.2456C206.231 19.2456 206.375 19.2651 206.519 19.3244L206.728 18.6825C206.578 18.6233 206.381 18.5971 206.243 18.5971ZM187.992 18.9247C187.664 18.7088 187.213 18.5971 186.715 18.5971C185.922 18.5971 185.411 18.9772 185.411 19.5996C185.411 20.1102 185.791 20.4251 186.492 20.5233L186.813 20.5691C187.187 20.6216 187.363 20.7198 187.363 20.8967C187.363 21.1389 187.114 21.2769 186.649 21.2769C186.178 21.2769 185.837 21.1262 185.608 20.9492L185.287 21.4793C185.66 21.7545 186.132 21.8857 186.642 21.8857C187.547 21.8857 188.071 21.4598 188.071 20.8637C188.071 20.3134 187.658 20.0254 186.977 19.9272L186.656 19.8807C186.361 19.8417 186.125 19.7833 186.125 19.5733C186.125 19.3439 186.348 19.2067 186.721 19.2067C187.121 19.2067 187.508 19.3574 187.697 19.4751L187.992 18.9247ZM196.777 18.5971C196.384 18.5971 196.128 18.7808 195.952 19.0559V18.6758H195.277V21.807H195.958V20.0517C195.958 19.5336 196.181 19.2456 196.626 19.2456C196.764 19.2456 196.908 19.2651 197.052 19.3244L197.262 18.6825C197.111 18.6233 196.915 18.5971 196.777 18.5971ZM190.967 18.6758H189.853V17.7258H189.165V18.6758H188.53V19.2981H189.165V20.7265C189.165 21.4531 189.447 21.8857 190.252 21.8857C190.547 21.8857 190.888 21.7943 191.104 21.6436L190.907 21.0602C190.704 21.1779 190.481 21.2372 190.304 21.2372C189.964 21.2372 189.853 21.0272 189.853 20.713V19.2981H190.967V18.6758ZM180.786 21.807V19.8417C180.786 19.1017 180.315 18.6038 179.554 18.5971C179.155 18.5903 178.742 18.7148 178.454 19.1542C178.238 18.807 177.897 18.5971 177.419 18.5971C177.085 18.5971 176.758 18.6953 176.502 19.0619V18.6758H175.82V21.807H176.508V20.0712C176.508 19.5276 176.809 19.2389 177.275 19.2389C177.727 19.2389 177.956 19.5336 177.956 20.0644V21.807H178.644V20.0712C178.644 19.5276 178.958 19.2389 179.41 19.2389C179.875 19.2389 180.098 19.5336 180.098 20.0644V21.807H180.786Z" fill="white"/>
</g>
<path d="M259.817 19.6936L256.887 16.8345L253.632 19.4019L256.562 22.3193L259.817 19.6936Z" fill="#A3B2CC"/>
<path d="M251.289 14.5005L254.218 17.3596L257.473 14.7922L254.544 11.9331L251.289 14.5005Z" fill="#A3B2CC"/>
<path d="M262.096 24.6533L259.166 21.7942L255.911 24.4199L258.84 27.2791L262.096 24.6533Z" fill="#A3B2CC"/>
<path d="M258.71 29.438L253.372 24.1282L254.869 22.9612L251.093 19.2268L252.591 18.0598L248.815 14.3254L254.739 9.59912L256.627 11.408L259.882 8.89893L261.77 10.6494L263.007 9.65747C262.747 9.54077 262.421 9.36572 262.161 9.24902C260.273 8.54883 258.255 8.08203 256.106 8.08203C248.62 8.08203 242.5 13.5085 242.5 20.1604C242.5 26.8123 248.62 32.2388 256.171 32.2388C258.645 32.2388 260.924 31.6553 262.877 30.6633C263.528 30.3132 264.114 29.9631 264.7 29.613L261.965 26.8706L258.71 29.438Z" fill="#A3B2CC"/>
<path d="M257.278 13.1001L259.426 15.259L261.9 13.3335L259.687 11.1746L257.278 13.1001Z" fill="#A3B2CC"/>
<path d="M264.114 17.6514L261.9 15.4924L259.492 17.4763L261.705 19.5769L264.114 17.6514Z" fill="#A3B2CC"/>
<path d="M266.197 22.2026L263.984 20.0437L261.575 21.9692L263.788 24.1865L266.197 22.2026Z" fill="#A3B2CC"/>
<path d="M266.327 15.084L264.7 16.3677L266.197 17.8264L267.759 16.5427L266.327 15.084Z" fill="#A3B2CC"/>
<path d="M266.783 20.6272L268.215 22.0859L269.843 20.8023L268.345 19.3435L266.783 20.6272Z" fill="#A3B2CC"/>
<path d="M262.616 12.1082L264.114 13.5669L265.676 12.2832L264.244 10.8245L262.616 12.1082Z" fill="#A3B2CC"/>
<path d="M263.723 26.3455L265.937 28.5044L268.345 26.5789L266.132 24.4199L263.723 26.3455Z" fill="#A3B2CC"/>
<defs>
<clipPath id="clip0">
<rect width="63" height="40.32" fill="white"/>
</clipPath>
<clipPath id="clip1">
<rect width="62.5" height="40" fill="white" transform="translate(81 0.160156)"/>
</clipPath>
<clipPath id="clip2">
<rect width="63" height="40.32" fill="white" transform="translate(161.5)"/>
</clipPath>
</defs>
</svg>
