<svg width="35" height="33" viewBox="0 0 35 33" fill="none" xmlns="http://www.w3.org/2000/svg">
<path d="M17.2146 27.3996C17.2146 27.3996 4.08191 20.5198 4.08191 12.1658C4.08218 10.6892 4.62909 9.25834 5.62965 8.11639C6.63022 6.97444 8.02268 6.19192 9.5703 5.90186C11.1179 5.61179 12.7251 5.8321 14.1187 6.52533C15.5124 7.21855 16.6063 8.3419 17.2146 9.70438L17.2146 9.70439C17.8228 8.34191 18.9168 7.21856 20.3104 6.52533C21.704 5.83211 23.3112 5.6118 24.8588 5.90186C26.4065 6.19191 27.7989 6.97444 28.7995 8.11639C29.8001 9.25834 30.347 10.6892 30.3472 12.1658C30.3472 20.5198 17.2146 27.3996 17.2146 27.3996Z" stroke="#99ABEB" stroke-width="3" stroke-linecap="round" stroke-linejoin="round"/>
</svg>
