<svg width="110" height="28" viewBox="0 0 110 28" fill="none" xmlns="http://www.w3.org/2000/svg">
<path d="M108.919 12.683C109.902 14.2319 110.15 15.9164 109.904 17.6667C109.512 20.4451 108.609 23.1344 107.973 25.8683C107.761 26.7725 107.304 27.6554 105.995 27.8916C105.755 27.8103 105.447 27.7735 105.244 27.6263C102.943 25.9438 100.256 24.7782 97.7605 23.3571C95.4503 22.0405 94.0678 20.0656 93.5817 17.6958C93.1357 15.5544 94.6141 14.2107 97.1294 14.3055C97.4906 14.321 97.9009 14.5475 98.2176 14.1894C92.2816 5.77091 74.7481 0.758171 63.6544 4.30329C63.1304 4.95578 64.0179 6.33433 62.3477 6.38854C61.4848 6.0168 61.4558 5.20167 60.9496 4.78733C59.2638 4.27618 60.0576 6.0652 59.1657 6.18137C58.4098 6.16782 58.412 5.40691 57.6516 5.30429C55.7406 5.67022 53.8051 6.35563 51.8539 6.96552C45.8511 8.83198 40.1136 11.2774 34.084 13.0915C23.1442 16.383 12.9737 14.6908 3.31165 9.5929C1.83993 8.81843 0.566664 7.83292 0.163055 6.28593C0.000274139 5.66635 -0.227174 4.96159 0.537675 4.52595C0.945743 4.62276 1.06393 4.79314 1.05947 4.9945C1.02156 6.66154 2.10751 7.75548 3.60376 8.56673C12.0684 13.1884 21.0437 14.7257 30.7637 11.9841C37.3307 10.1273 43.474 7.39535 49.8002 5.06808C52.2263 4.17744 54.6792 3.34295 57.0139 2.52008C57.3729 1.76885 56.8578 0.849171 57.8746 0.545193C59.0118 0.529703 58.7665 1.82113 59.7455 1.88308C60.381 1.47842 59.9952 0.702023 60.5839 0.305109C61.9218 -0.521633 62.4548 0.498726 63.3177 1.36613C79.4308 -2.17318 92.6652 1.18994 102.028 13.7034C102.713 13.3684 103.048 12.7198 103.556 12.2164C105.329 10.4545 107.617 10.6268 108.919 12.683Z" fill="white"/>
</svg>
