<svg width="24" height="24" viewBox="0 0 24 24" fill="none" xmlns="http://www.w3.org/2000/svg">
<path d="M12.0001 6.5625C13.3276 6.5625 14.5163 7.02 15.4539 7.9125L18.0226 5.34375C16.4626 3.8925 14.4263 3 12.0001 3C8.48252 3 5.44123 5.0175 3.95996 7.9575L6.9525 10.2787C7.66126 8.145 9.65254 6.5625 12.0001 6.5625Z" fill="#B87CF1"/>
<path d="M20.6175 12.2062C20.6175 11.6175 20.5612 11.0475 20.475 10.5H12V13.8825H16.8525C16.635 14.9925 16.005 15.9375 15.06 16.575L17.9587 18.825C19.65 17.2575 20.6175 14.94 20.6175 12.2062Z" fill="#B87CF1"/>
<path d="M6.94875 13.7208C6.76875 13.177 6.66375 12.5995 6.66375 11.9995C6.66375 11.3995 6.765 10.822 6.94875 10.2783L3.95625 7.95703C3.345 9.17203 3 10.5445 3 11.9995C3 13.4545 3.345 14.827 3.96 16.042L6.94875 13.7208Z" fill="#B87CF1"/>
<path d="M11.9999 21.0003C14.4299 21.0003 16.4737 20.2015 17.9587 18.8215L15.06 16.5715C14.2537 17.1153 13.2149 17.434 11.9999 17.434C9.65238 17.434 7.6611 15.8515 6.94859 13.7178L3.95605 16.039C5.44107 18.9828 8.48236 21.0003 11.9999 21.0003Z" fill="#B87CF1"/>
</svg>
