<svg width="60" height="60" viewBox="0 0 60 60" fill="none" xmlns="http://www.w3.org/2000/svg">
<path d="M30 43.75C30 43.75 14.375 35 14.375 24.375C14.3753 22.4971 15.026 20.6773 16.2165 19.2249C17.4069 17.7725 19.0637 16.7773 20.905 16.4084C22.7463 16.0394 24.6586 16.3196 26.3166 17.2013C27.9747 18.083 29.2763 19.5117 30 21.2445L30 21.2446C30.7237 19.5117 32.0253 18.083 33.6833 17.2013C35.3414 16.3197 37.2537 16.0395 39.095 16.4084C40.9363 16.7773 42.5931 17.7725 43.7835 19.2249C44.974 20.6773 45.6247 22.4971 45.625 24.375C45.625 35 30 43.75 30 43.75Z" stroke="#5171e4" stroke-width="3" stroke-linecap="round" stroke-linejoin="round"/>
</svg>
