<svg id="Layer_1" data-name="Layer 1" xmlns="http://www.w3.org/2000/svg" width="707" height="614" viewBox="0 0 707 614"><title>item-heymaty</title><rect width="706.34" height="614" style="fill:#e6e6ec"/><path d="M233.36,310.63q-3.24.31-9,1.39l-9.67,1.78a45.31,45.31,0,0,1-1.39,5.32c-.44,1.6-.85,3.4-1.21,5.39a5.23,5.23,0,0,1-1.72,3.2,4.78,4.78,0,0,1-3.26,1.22,3.54,3.54,0,0,1-2.65-1,3.48,3.48,0,0,1-1-2.57,32,32,0,0,1,1.07-5.76q1.93-7.89,2.9-14.69v-.54L208,301c.24-1.66.51-3.19.81-4.58.06-.27.14-.64.23-1.12a9.1,9.1,0,0,1,.27-1.07c.32-1.19.55-2.24.71-3.14a20.46,20.46,0,0,1,.84-3.75,4.57,4.57,0,0,1,1.65-1.94,4.72,4.72,0,0,1,2.87-.91,3.54,3.54,0,0,1,2.61,1,3.63,3.63,0,0,1,1,2.63,22.32,22.32,0,0,1-.47,3c-.31,1.57-.66,3.1-1,4.58a36.05,36.05,0,0,0-.88,4.82l-.57,4.35,9.2-1.65a69.82,69.82,0,0,1,10.07-1.18q.41-1.56,1.18-6.54a37.34,37.34,0,0,1,1.37-6.23A7.81,7.81,0,0,1,240,286a4.6,4.6,0,0,1,3.06-1.33,3.69,3.69,0,0,1,2.63,1,3.42,3.42,0,0,1,1.05,2.63,15.4,15.4,0,0,1-.71,3.64,11.67,11.67,0,0,0-.84,3.13q0,1.11-3.07,14.42a66.41,66.41,0,0,0-1.31,9.09v.75a29.63,29.63,0,0,1-.41,3.6,5.69,5.69,0,0,1-1.87,3.81,5,5,0,0,1-3.11,1.14,3.47,3.47,0,0,1-2.68-1.06,3.54,3.54,0,0,1-1-2.54,15.27,15.27,0,0,1,.21-1.72c.06-.49.14-1.23.23-2.22.2-3.08.47-5.67.81-7.79Z" style="fill:#4c5165;opacity:0.11"/><path d="M262.47,294.77l-.14,1q-.3,2.19-1.38,6.54l1.75-.17c7.5-.76,12.17-1.15,14-1.15q3.88,0,3.88,3.27,0,4.54-4.55,4.89l-17,1.51c-.18.79-.33,1.54-.44,2.26s-.22,1.39-.33,2a26.27,26.27,0,0,0-.48,4.21,1.76,1.76,0,0,0,.14.91h6l7.27-.37c1.15-.09,1.81-.13,2-.13q4.14,0,4.14,3.27a5,5,0,0,1-1.09,3.23,5.4,5.4,0,0,1-3.47,1.79,85.22,85.22,0,0,1-10.76.4q-7.72,0-10.33-1.67t-2.61-6.85a56,56,0,0,1,1.75-11.49,4.36,4.36,0,0,1,.77-3.51,96.92,96.92,0,0,0,2-10.07,14.48,14.48,0,0,0,.12-2.71,6.12,6.12,0,0,1,1.38-4.16,4.82,4.82,0,0,1,3.83-1.55,3.67,3.67,0,0,1,2.05.64,55.93,55.93,0,0,1,10.92-.91q8.52,0,10.68,1.06a3.24,3.24,0,0,1,2.15,2.91,4.72,4.72,0,0,1-1.5,3.54,5,5,0,0,1-3.62,1.45,3.58,3.58,0,0,1-1.24-.2,56,56,0,0,0-7.79-.54A61.49,61.49,0,0,0,262.47,294.77Z" style="fill:#4c5165;opacity:0.11"/><path d="M296.46,322.25q-1.62-5.26-8.25-21.53-1.79-3.41-1.79-4.82a4.88,4.88,0,0,1,1.75-3.52,5.45,5.45,0,0,1,3.81-1.67,4,4,0,0,1,2.56.83q1.05.82,3.64,6.55a133,133,0,0,1,5.12,13.44q9.22-15.25,11.64-18.07t4.73-2.82a4.24,4.24,0,0,1,3,1.11,3.46,3.46,0,0,1,1.21,2.63,5.52,5.52,0,0,1-.89,2.75q-.9,1.5-15.45,24.14a179.9,179.9,0,0,0-10.27,17.11c-1.58,3.12-2.73,5.05-3.47,5.76a4.38,4.38,0,0,1-3.17,1.08,4.28,4.28,0,0,1-3-1.11,3.5,3.5,0,0,1-1.19-2.63Q286.39,338.55,296.46,322.25Z" style="fill:#4c5165;opacity:0.11"/><path d="M359.09,300.69l-1.65,5.06-4,10.14L351,320.84a21.74,21.74,0,0,1-4.08,6.35,5.52,5.52,0,0,1-3.74,1.67c-2.44,0-3.87-1.93-4.27-5.79l-.27-2.9q-.24-2.54-.24-8.76v-3.54c0-3,0-5-.1-6.06l-5.46,17q-2.29,7.06-3.42,8.84a3.56,3.56,0,0,1-3.18,1.77q-3.81,0-3.81-3.77,0-4.38,5.86-17.12c.83-1.8,1.58-3.52,2.23-5.19l2.83-8.15q3.6-10.41,8.32-10.41c1.39,0,2.33,1,2.81,2.91a53.74,53.74,0,0,1,.93,9.93v4.11a113.35,113.35,0,0,0,.67,13.78l7.31-17.56,2.63-6.53q2.83-7,6.17-7,4.2,0,4.21,9.2l-.1,5q0,8.4.77,17.52l.54,5.59c.18,1.87.27,2.92.27,3.17a4.91,4.91,0,0,1-1.58,3.44,5.12,5.12,0,0,1-3.78,1.62,2.74,2.74,0,0,1-2.57-1.52,13.74,13.74,0,0,1-1-5.53l-.21-4.65q-.19-4.33,0-13.37Z" style="fill:#4c5165;opacity:0.11"/><path d="M399.39,316q-8.59.62-11.46.91c-.31.54-.63,1.11-.94,1.69q-3.78,6.87-5.32,8.24a4.86,4.86,0,0,1-3.24,1.36,3.91,3.91,0,0,1-2.78-1.09,3.42,3.42,0,0,1-1.16-2.55,4.84,4.84,0,0,1,.68-2.17q.66-1.31,4.31-7.29a6,6,0,0,1,.13-1.52,5,5,0,0,1,3.64-4.28q16.61-23.52,20.35-23.52t4,4.42l.07,8.62q0,3,1,17.86l.74,4c.27,1.48.41,2.34.41,2.59a5,5,0,0,1-1.6,3.66,5.14,5.14,0,0,1-3.69,1.56q-3.54,0-4.55-7.54l-.17-1.11C399.73,319.17,399.57,317.89,399.39,316Zm-.07-16.27-1.14,1.52a73.11,73.11,0,0,0-4.92,7.17,24.08,24.08,0,0,0,2.73-.2c1.14-.11,2.23-.17,3.26-.17Z" style="fill:#4c5165;opacity:0.11"/><path d="M437.43,294.5c-.27,1.66-.57,4.84-.88,9.53q-.37,5.33-1.31,11.86l-.14,1.58a35.24,35.24,0,0,1-.84,6,6.68,6.68,0,0,1-2.11,3,4.85,4.85,0,0,1-3.15,1.43,3.69,3.69,0,0,1-2.67-1,3.45,3.45,0,0,1-1.1-2.63,5.19,5.19,0,0,1,.4-1.85,22.62,22.62,0,0,0,.61-3.78c.22-2.49.42-4.17.57-5.05q.81-5.28,1.35-15.46a27.24,27.24,0,0,1,.3-3.3l-3.43.06h-2q-4,0-5.61-1a3.28,3.28,0,0,1-1.64-3,5,5,0,0,1,.64-2.43,5.94,5.94,0,0,1,1.94-2,5.66,5.66,0,0,1,3.39-.8l2.46.17c.69.05,1.86.07,3.5.07h1.52a16.45,16.45,0,0,0,1.88-.13l2.9-.14c1.93-.09,3.54-.13,4.82-.13h.77c2,0,3.72,0,5.09.13,1.62.14,3.59.2,5.93.2a3.62,3.62,0,0,1,2.69,1.06,3.58,3.58,0,0,1,1,2.62,5.33,5.33,0,0,1-5.19,5.15c-1.41,0-2.83,0-4.24-.13s-2.92-.14-4.45-.14A26.76,26.76,0,0,0,437.43,294.5Z" style="fill:#4c5165;opacity:0.11"/><path d="M464.78,322.25q-1.61-5.26-8.25-21.53-1.78-3.41-1.79-4.82a4.86,4.86,0,0,1,1.76-3.52,5.41,5.41,0,0,1,3.8-1.67,4,4,0,0,1,2.56.83q1,.82,3.64,6.55a133,133,0,0,1,5.12,13.44q9.24-15.25,11.64-18.07t4.74-2.82a4.22,4.22,0,0,1,3,1.11,3.46,3.46,0,0,1,1.21,2.63,5.43,5.43,0,0,1-.89,2.75q-.88,1.5-15.45,24.14a179.9,179.9,0,0,0-10.27,17.11c-1.57,3.12-2.73,5.05-3.47,5.76a4.37,4.37,0,0,1-3.17,1.08,4.24,4.24,0,0,1-3-1.11,3.47,3.47,0,0,1-1.2-2.63Q454.71,338.55,464.78,322.25Z" style="fill:#4c5165;opacity:0.11"/></svg>