<svg xmlns="http://www.w3.org/2000/svg" viewBox="0 0 645 420" width="645" height="420" preserveAspectRatio="xMidYMid meet" style="width: 100%; height: 100%; transform: translate3d(0px, 0px, 0px);"><defs><clipPath id="__lottie_element_29"><rect width="645" height="420" x="0" y="0"></rect></clipPath></defs><g clip-path="url(#__lottie_element_29)"><g transform="matrix(1,0,0,1,96.39401245117188,175.0500030517578)" opacity="0.12058982059275251" style="display: none;"><g opacity="1" transform="matrix(1,0,0,1,227.29299926757812,69.13400268554688)"><path fill="rgb(255,255,255)" fill-opacity="1" d=" M-65.29000091552734,25.30500030517578 C-65.29000091552734,25.30500030517578 -2.750999927520752,-24.117000579833984 -2.750999927520752,-24.117000579833984 C-1.121999979019165,-25.30500030517578 1.0959999561309814,-25.27199935913086 2.688999891281128,-24.035999298095703 C2.688999891281128,-24.035999298095703 65.29000091552734,25.30500030517578 65.29000091552734,25.30500030517578"></path><path stroke-linecap="round" stroke-linejoin="round" fill-opacity="0" stroke="rgb(166,166,166)" stroke-opacity="1" stroke-width="1" d=" M-65.29000091552734,25.30500030517578 C-65.29000091552734,25.30500030517578 -2.750999927520752,-24.117000579833984 -2.750999927520752,-24.117000579833984 C-1.121999979019165,-25.30500030517578 1.0959999561309814,-25.27199935913086 2.688999891281128,-24.035999298095703 C2.688999891281128,-24.035999298095703 65.29000091552734,25.30500030517578 65.29000091552734,25.30500030517578"></path></g><g opacity="1" transform="matrix(1,0,0,1,227.3459930419922,168.98699951171875)"><path fill="rgb(255,255,255)" fill-opacity="1" d=" M65.23699951171875,-74.5479965209961 C65.23699951171875,-74.5479965209961 96.40299987792969,-51.33700180053711 96.40299987792969,-51.33700180053711 C98.35800170898438,-49.88100051879883 99.51000213623047,-47.58599853515625 99.51000213623047,-45.14899826049805 C99.51000213623047,-45.14899826049805 99.51000213623047,65.54000091552734 99.51000213623047,65.54000091552734 C99.51000213623047,70.51499938964844 95.47699737548828,74.54900360107422 90.50199890136719,74.54900360107422 C90.50199890136719,74.54900360107422 -90.49600219726562,74.54900360107422 -90.49600219726562,74.54900360107422 C-95.4739990234375,74.54900360107422 -99.51000213623047,70.51399993896484 -99.51000213623047,65.53500366210938 C-99.51000213623047,65.53500366210938 -99.50700378417969,-45.14699935913086 -99.50700378417969,-45.14699935913086 C-99.50700378417969,-47.582000732421875 -98.35800170898438,-49.875 -96.40799713134766,-51.332000732421875 C-96.40799713134766,-51.332000732421875 -65.34300231933594,-74.5479965209961 -65.34300231933594,-74.5479965209961"></path><path stroke-linecap="round" stroke-linejoin="round" fill-opacity="0" stroke="rgb(166,166,166)" stroke-opacity="1" stroke-width="1" d=" M65.23699951171875,-74.5479965209961 C65.23699951171875,-74.5479965209961 96.40299987792969,-51.33700180053711 96.40299987792969,-51.33700180053711 C98.35800170898438,-49.88100051879883 99.51000213623047,-47.58599853515625 99.51000213623047,-45.14899826049805 C99.51000213623047,-45.14899826049805 99.51000213623047,65.54000091552734 99.51000213623047,65.54000091552734 C99.51000213623047,70.51499938964844 95.47699737548828,74.54900360107422 90.50199890136719,74.54900360107422 C90.50199890136719,74.54900360107422 -90.49600219726562,74.54900360107422 -90.49600219726562,74.54900360107422 C-95.4739990234375,74.54900360107422 -99.51000213623047,70.51399993896484 -99.51000213623047,65.53500366210938 C-99.51000213623047,65.53500366210938 -99.50700378417969,-45.14699935913086 -99.50700378417969,-45.14699935913086 C-99.50700378417969,-47.582000732421875 -98.35800170898438,-49.875 -96.40799713134766,-51.332000732421875 C-96.40799713134766,-51.332000732421875 -65.34300231933594,-74.5479965209961 -65.34300231933594,-74.5479965209961"></path></g><g opacity="1" transform="matrix(1,0,0,1,168.46200561523438,149.86500549316406)"><path fill="rgb(255,255,255)" fill-opacity="1" d=" M-39.33100128173828,-30.29800033569336 C-39.33100128173828,-30.29800033569336 25.618000030517578,19.966999053955078 25.618000030517578,19.966999053955078 C25.618000030517578,19.966999053955078 39.33100128173828,30.29800033569336 39.33100128173828,30.29800033569336"></path><path stroke-linecap="round" stroke-linejoin="round" fill-opacity="0" stroke="rgb(166,166,166)" stroke-opacity="1" stroke-width="1" d=" M-39.33100128173828,-30.29800033569336 C-39.33100128173828,-30.29800033569336 25.618000030517578,19.966999053955078 25.618000030517578,19.966999053955078 C25.618000030517578,19.966999053955078 39.33100128173828,30.29800033569336 39.33100128173828,30.29800033569336"></path></g><g opacity="1" transform="matrix(1,0,0,1,286.10400390625,149.86500549316406)"><path fill="rgb(255,255,255)" fill-opacity="1" d=" M39.46200180053711,-30.29800033569336 C39.46200180053711,-30.29800033569336 -25.716999053955078,19.54199981689453 -25.716999053955078,19.54199981689453 C-25.716999053955078,19.54199981689453 -39.4630012512207,30.29800033569336 -39.4630012512207,30.29800033569336"></path><path stroke-linecap="round" stroke-linejoin="round" fill-opacity="0" stroke="rgb(166,166,166)" stroke-opacity="1" stroke-width="1" d=" M39.46200180053711,-30.29800033569336 C39.46200180053711,-30.29800033569336 -25.716999053955078,19.54199981689453 -25.716999053955078,19.54199981689453 C-25.716999053955078,19.54199981689453 -39.4630012512207,30.29800033569336 -39.4630012512207,30.29800033569336"></path></g><g opacity="1" transform="matrix(1,0,0,1,226.7010040283203,202.96499633789062)"><path fill="rgb(255,255,255)" fill-opacity="1" d=" M-97.67900085449219,36.025001525878906 C-97.67900085449219,36.025001525878906 -3.888000011444092,-34.01900100708008 -3.888000011444092,-34.01900100708008 C-1.2020000219345093,-36.025001525878906 2.484999895095825,-36.01300048828125 5.1579999923706055,-33.99100112915039 C5.1579999923706055,-33.99100112915039 97.68000030517578,36.025001525878906 97.68000030517578,36.025001525878906"></path><path stroke-linecap="round" stroke-linejoin="round" fill-opacity="0" stroke="rgb(166,166,166)" stroke-opacity="1" stroke-width="1" d=" M-97.67900085449219,36.025001525878906 C-97.67900085449219,36.025001525878906 -3.888000011444092,-34.01900100708008 -3.888000011444092,-34.01900100708008 C-1.2020000219345093,-36.025001525878906 2.484999895095825,-36.01300048828125 5.1579999923706055,-33.99100112915039 C5.1579999923706055,-33.99100112915039 97.68000030517578,36.025001525878906 97.68000030517578,36.025001525878906"></path></g></g><g transform="matrix(0,-1,1,0,210.1490020751953,633.3200073242188)" opacity="1" style="display: block;"><g opacity="1" transform="matrix(1,0,0,1,276.114013671875,103.90699768066406)"><path fill="rgb(255,255,255)" fill-opacity="1" d=" M51.46200180053711,70.6780014038086 C51.46200180053711,70.6780014038086 -51.4630012512207,70.6780014038086 -51.4630012512207,70.6780014038086 C-54.97600173950195,70.6780014038086 -57.823001861572266,67.83100128173828 -57.823001861572266,64.31900024414062 C-57.823001861572266,64.31900024414062 -57.823001861572266,-64.31800079345703 -57.823001861572266,-64.31800079345703 C-57.823001861572266,-67.83000183105469 -54.97600173950195,-70.6780014038086 -51.4630012512207,-70.6780014038086 C-51.4630012512207,-70.6780014038086 51.46200180053711,-70.6780014038086 51.46200180053711,-70.6780014038086 C54.974998474121094,-70.6780014038086 57.821998596191406,-67.83000183105469 57.821998596191406,-64.31800079345703 C57.821998596191406,-64.31800079345703 57.821998596191406,64.31900024414062 57.821998596191406,64.31900024414062 C57.821998596191406,67.83100128173828 54.974998474121094,70.6780014038086 51.46200180053711,70.6780014038086z"></path><path stroke-linecap="round" stroke-linejoin="round" fill-opacity="0" stroke="rgb(166,166,166)" stroke-opacity="1" stroke-width="1" d=" M51.46200180053711,70.6780014038086 C51.46200180053711,70.6780014038086 -51.4630012512207,70.6780014038086 -51.4630012512207,70.6780014038086 C-54.97600173950195,70.6780014038086 -57.823001861572266,67.83100128173828 -57.823001861572266,64.31900024414062 C-57.823001861572266,64.31900024414062 -57.823001861572266,-64.31800079345703 -57.823001861572266,-64.31800079345703 C-57.823001861572266,-67.83000183105469 -54.97600173950195,-70.6780014038086 -51.4630012512207,-70.6780014038086 C-51.4630012512207,-70.6780014038086 51.46200180053711,-70.6780014038086 51.46200180053711,-70.6780014038086 C54.974998474121094,-70.6780014038086 57.821998596191406,-67.83000183105469 57.821998596191406,-64.31800079345703 C57.821998596191406,-64.31800079345703 57.821998596191406,64.31900024414062 57.821998596191406,64.31900024414062 C57.821998596191406,67.83100128173828 54.974998474121094,70.6780014038086 51.46200180053711,70.6780014038086z"></path></g><g opacity="1" transform="matrix(1,0,0,1,0,0)"><path stroke-linecap="round" stroke-linejoin="round" fill-opacity="0" stroke="rgb(166,166,166)" stroke-opacity="1" stroke-width="1" d=" M241.94700622558594,147.9600067138672 C241.94700622558594,147.9600067138672 309.42401123046875,147.9600067138672 309.42401123046875,147.9600067138672"></path></g><g opacity="1" transform="matrix(1,0,0,1,0,0)"><path stroke-linecap="round" stroke-linejoin="round" fill-opacity="0" stroke="rgb(166,166,166)" stroke-opacity="1" stroke-width="1" d=" M253.0229949951172,158.4029998779297 C253.0229949951172,158.4029998779297 265.5920104980469,158.4029998779297 265.5920104980469,158.4029998779297"></path></g><g opacity="1" transform="matrix(1,0,0,1,0,0)"><path stroke-linecap="round" stroke-linejoin="round" fill-opacity="0" stroke="rgb(166,166,166)" stroke-opacity="1" stroke-width="1" d=" M276.114013671875,158.4029998779297 C276.114013671875,158.4029998779297 299.3680114746094,158.4029998779297 299.3680114746094,158.4029998779297"></path></g><g opacity="1" transform="matrix(1,0,0,1,276.114013671875,95.74600219726562)"><path stroke-linecap="round" stroke-linejoin="round" fill-opacity="0" stroke="rgb(166,166,166)" stroke-opacity="1" stroke-width="1" d=" M34.444000244140625,0.0010000000474974513 C34.444000244140625,19.023000717163086 19.023000717163086,34.444000244140625 0.0010000000474974513,34.444000244140625 C-19.023000717163086,34.444000244140625 -34.444000244140625,19.023000717163086 -34.444000244140625,0.0010000000474974513 C-34.444000244140625,-19.02199935913086 -19.023000717163086,-34.444000244140625 0.0010000000474974513,-34.444000244140625 C19.023000717163086,-34.444000244140625 34.444000244140625,-19.02199935913086 34.444000244140625,0.0010000000474974513z"></path></g><g opacity="1" transform="matrix(1,0,0,1,276.114013671875,95.74600219726562)"><path stroke-linecap="round" stroke-linejoin="round" fill-opacity="0" stroke="rgb(166,166,166)" stroke-opacity="1" stroke-width="1" d=" M18.315000534057617,0.0010000000474974513 C18.315000534057617,19.02400016784668 10.114999771118164,34.444000244140625 0,34.444000244140625 C-10.116000175476074,34.444000244140625 -18.31599998474121,19.02400016784668 -18.31599998474121,0.0010000000474974513 C-18.31599998474121,-19.02199935913086 -10.116000175476074,-34.444000244140625 0,-34.444000244140625 C10.114999771118164,-34.444000244140625 18.315000534057617,-19.02199935913086 18.315000534057617,0.0010000000474974513z"></path></g><g opacity="1" transform="matrix(1,0,0,1,0,0)"><path stroke-linecap="round" stroke-linejoin="round" fill-opacity="0" stroke="rgb(166,166,166)" stroke-opacity="1" stroke-width="1" d=" M241.6699981689453,95.74600219726562 C241.6699981689453,95.74600219726562 310.5580139160156,95.74600219726562 310.5580139160156,95.74600219726562"></path></g><g opacity="1" transform="matrix(1,0,0,1,0,0)"><path stroke-linecap="round" stroke-linejoin="round" fill-opacity="0" stroke="rgb(166,166,166)" stroke-opacity="1" stroke-width="1" d=" M245.57699584960938,79.802001953125 C245.57699584960938,79.802001953125 306.6510009765625,79.802001953125 306.6510009765625,79.802001953125"></path></g><g opacity="1" transform="matrix(1,0,0,1,0,0)"><path stroke-linecap="round" stroke-linejoin="round" fill-opacity="0" stroke="rgb(166,166,166)" stroke-opacity="1" stroke-width="1" d=" M245.55499267578125,111.64700317382812 C245.55499267578125,111.64700317382812 306.6730041503906,111.64700317382812 306.6730041503906,111.64700317382812"></path></g><g opacity="1" transform="matrix(1,0,0,1,0,0)"><path stroke-linecap="round" stroke-linejoin="round" fill-opacity="0" stroke="rgb(166,166,166)" stroke-opacity="1" stroke-width="1" d=" M276.114013671875,61.301998138427734 C276.114013671875,61.301998138427734 276.114013671875,130.18899536132812 276.114013671875,130.18899536132812"></path></g><g opacity="1" transform="matrix(1,0,0,1,244.83999633789062,47.952999114990234)"><path fill="rgb(166,166,166)" fill-opacity="1" d=" M0.012000000104308128,0.5 C-0.2639999985694885,0.5 -0.5120000243186951,0.2759999930858612 -0.5120000243186951,0 C-0.5120000243186951,-0.2759999930858612 -0.3140000104904175,-0.5 -0.03799999877810478,-0.5 C-0.03799999877810478,-0.5 0.012000000104308128,-0.5 0.012000000104308128,-0.5 C0.2879999876022339,-0.5 0.5120000243186951,-0.2759999930858612 0.5120000243186951,0 C0.5120000243186951,0.2759999930858612 0.2879999876022339,0.5 0.012000000104308128,0.5z"></path></g><g opacity="1" transform="matrix(1,0,0,1,276.1390075683594,47.952999114990234)"><path fill="rgb(166,166,166)" fill-opacity="1" d=" M29.25,0.5 C28.974000930786133,0.5 28.701000213623047,0.2759999930858612 28.701000213623047,0 C28.701000213623047,-0.2759999930858612 28.875,-0.5 29.152000427246094,-0.5 C29.152000427246094,-0.5 29.25,-0.5 29.25,-0.5 C29.527000427246094,-0.5 29.75,-0.2759999930858612 29.75,0 C29.75,0.2759999930858612 29.527000427246094,0.5 29.25,0.5z M27.163000106811523,0.5 C26.886999130249023,0.5 26.613000869750977,0.2759999930858612 26.613000869750977,0 C26.613000869750977,-0.2759999930858612 26.78700065612793,-0.5 27.06399917602539,-0.5 C27.06399917602539,-0.5 27.163000106811523,-0.5 27.163000106811523,-0.5 C27.440000534057617,-0.5 27.663000106811523,-0.2759999930858612 27.663000106811523,0 C27.663000106811523,0.2759999930858612 27.440000534057617,0.5 27.163000106811523,0.5z M25.073999404907227,0.5 C24.79800033569336,0.5 24.525999069213867,0.2759999930858612 24.525999069213867,0 C24.525999069213867,-0.2759999930858612 24.700000762939453,-0.5 24.976999282836914,-0.5 C24.976999282836914,-0.5 25.073999404907227,-0.5 25.073999404907227,-0.5 C25.35099983215332,-0.5 25.573999404907227,-0.2759999930858612 25.573999404907227,0 C25.573999404907227,0.2759999930858612 25.35099983215332,0.5 25.073999404907227,0.5z M22.988000869750977,0.5 C22.711000442504883,0.5 22.43899917602539,0.2759999930858612 22.43899917602539,0 C22.43899917602539,-0.2759999930858612 22.613000869750977,-0.5 22.888999938964844,-0.5 C22.888999938964844,-0.5 22.988000869750977,-0.5 22.988000869750977,-0.5 C23.263999938964844,-0.5 23.488000869750977,-0.2759999930858612 23.488000869750977,0 C23.488000869750977,0.2759999930858612 23.263999938964844,0.5 22.988000869750977,0.5z M20.900999069213867,0.5 C20.624000549316406,0.5 20.350000381469727,0.2759999930858612 20.350000381469727,0 C20.350000381469727,-0.2759999930858612 20.524999618530273,-0.5 20.801000595092773,-0.5 C20.801000595092773,-0.5 20.900999069213867,-0.5 20.900999069213867,-0.5 C21.177000045776367,-0.5 21.400999069213867,-0.2759999930858612 21.400999069213867,0 C21.400999069213867,0.2759999930858612 21.177000045776367,0.5 20.900999069213867,0.5z M18.81399917602539,0.5 C18.53700065612793,0.5 18.263999938964844,0.2759999930858612 18.263999938964844,0 C18.263999938964844,-0.2759999930858612 18.437999725341797,-0.5 18.714000701904297,-0.5 C18.714000701904297,-0.5 18.81399917602539,-0.5 18.81399917602539,-0.5 C19.09000015258789,-0.5 19.31399917602539,-0.2759999930858612 19.31399917602539,0 C19.31399917602539,0.2759999930858612 19.09000015258789,0.5 18.81399917602539,0.5z M16.725000381469727,0.5 C16.447999954223633,0.5 16.176000595092773,0.2759999930858612 16.176000595092773,0 C16.176000595092773,-0.2759999930858612 16.350000381469727,-0.5 16.625999450683594,-0.5 C16.625999450683594,-0.5 16.725000381469727,-0.5 16.725000381469727,-0.5 C17.000999450683594,-0.5 17.225000381469727,-0.2759999930858612 17.225000381469727,0 C17.225000381469727,0.2759999930858612 17.000999450683594,0.5 16.725000381469727,0.5z M14.637999534606934,0.5 C14.362000465393066,0.5 14.086999893188477,0.2759999930858612 14.086999893188477,0 C14.086999893188477,-0.2759999930858612 14.262999534606934,-0.5 14.538999557495117,-0.5 C14.538999557495117,-0.5 14.637999534606934,-0.5 14.637999534606934,-0.5 C14.913999557495117,-0.5 15.137999534606934,-0.2759999930858612 15.137999534606934,0 C15.137999534606934,0.2759999930858612 14.913999557495117,0.5 14.637999534606934,0.5z M12.550999641418457,0.5 C12.274999618530273,0.5 12.00100040435791,0.2759999930858612 12.00100040435791,0 C12.00100040435791,-0.2759999930858612 12.175000190734863,-0.5 12.451000213623047,-0.5 C12.451000213623047,-0.5 12.550999641418457,-0.5 12.550999641418457,-0.5 C12.82699966430664,-0.5 13.050999641418457,-0.2759999930858612 13.050999641418457,0 C13.050999641418457,0.2759999930858612 12.82699966430664,0.5 12.550999641418457,0.5z M10.461999893188477,0.5 C10.185999870300293,0.5 9.913000106811523,0.2759999930858612 9.913000106811523,0 C9.913000106811523,-0.2759999930858612 10.086000442504883,-0.5 10.36299991607666,-0.5 C10.36299991607666,-0.5 10.461999893188477,-0.5 10.461999893188477,-0.5 C10.73799991607666,-0.5 10.961999893188477,-0.2759999930858612 10.961999893188477,0 C10.961999893188477,0.2759999930858612 10.73799991607666,0.5 10.461999893188477,0.5z M8.37600040435791,0.5 C8.100000381469727,0.5 7.826000213623047,0.2759999930858612 7.826000213623047,0 C7.826000213623047,-0.2759999930858612 8,-0.5 8.277000427246094,-0.5 C8.277000427246094,-0.5 8.37600040435791,-0.5 8.37600040435791,-0.5 C8.652999877929688,-0.5 8.87600040435791,-0.2759999930858612 8.87600040435791,0 C8.87600040435791,0.2759999930858612 8.652999877929688,0.5 8.37600040435791,0.5z M6.288000106811523,0.5 C6.01200008392334,0.5 5.73799991607666,0.2759999930858612 5.73799991607666,0 C5.73799991607666,-0.2759999930858612 5.9120001792907715,-0.5 6.189000129699707,-0.5 C6.189000129699707,-0.5 6.288000106811523,-0.5 6.288000106811523,-0.5 C6.565000057220459,-0.5 6.788000106811523,-0.2759999930858612 6.788000106811523,0 C6.788000106811523,0.2759999930858612 6.565000057220459,0.5 6.288000106811523,0.5z M4.198999881744385,0.5 C3.9230000972747803,0.5 3.6510000228881836,0.2759999930858612 3.6510000228881836,0 C3.6510000228881836,-0.2759999930858612 3.825000047683716,-0.5 4.1020002365112305,-0.5 C4.1020002365112305,-0.5 4.198999881744385,-0.5 4.198999881744385,-0.5 C4.47599983215332,-0.5 4.698999881744385,-0.2759999930858612 4.698999881744385,0 C4.698999881744385,0.2759999930858612 4.47599983215332,0.5 4.198999881744385,0.5z M2.11299991607666,0.5 C1.8370000123977661,0.5 1.5640000104904175,0.2759999930858612 1.5640000104904175,0 C1.5640000104904175,-0.2759999930858612 1.7380000352859497,-0.5 2.0139999389648438,-0.5 C2.0139999389648438,-0.5 2.11299991607666,-0.5 2.11299991607666,-0.5 C2.390000104904175,-0.5 2.61299991607666,-0.2759999930858612 2.61299991607666,0 C2.61299991607666,0.2759999930858612 2.390000104904175,0.5 2.11299991607666,0.5z M0.026000000536441803,0.5 C-0.25099998712539673,0.5 -0.5249999761581421,0.2759999930858612 -0.5249999761581421,0 C-0.5249999761581421,-0.2759999930858612 -0.3499999940395355,-0.5 -0.07400000095367432,-0.5 C-0.07400000095367432,-0.5 0.026000000536441803,-0.5 0.026000000536441803,-0.5 C0.3019999861717224,-0.5 0.5260000228881836,-0.2759999930858612 0.5260000228881836,0 C0.5260000228881836,0.2759999930858612 0.3019999861717224,0.5 0.026000000536441803,0.5z M-2.061000108718872,0.5 C-2.3380000591278076,0.5 -2.6110000610351562,0.2759999930858612 -2.6110000610351562,0 C-2.6110000610351562,-0.2759999930858612 -2.437000036239624,-0.5 -2.1610000133514404,-0.5 C-2.1610000133514404,-0.5 -2.061000108718872,-0.5 -2.061000108718872,-0.5 C-1.784999966621399,-0.5 -1.5609999895095825,-0.2759999930858612 -1.5609999895095825,0 C-1.5609999895095825,0.2759999930858612 -1.784999966621399,0.5 -2.061000108718872,0.5z M-4.150000095367432,0.5 C-4.427000045776367,0.5 -4.698999881744385,0.2759999930858612 -4.698999881744385,0 C-4.698999881744385,-0.2759999930858612 -4.525000095367432,-0.5 -4.249000072479248,-0.5 C-4.249000072479248,-0.5 -4.150000095367432,-0.5 -4.150000095367432,-0.5 C-3.874000072479248,-0.5 -3.6500000953674316,-0.2759999930858612 -3.6500000953674316,0 C-3.6500000953674316,0.2759999930858612 -3.874000072479248,0.5 -4.150000095367432,0.5z M-6.236999988555908,0.5 C-6.513000011444092,0.5 -6.788000106811523,0.2759999930858612 -6.788000106811523,0 C-6.788000106811523,-0.2759999930858612 -6.611999988555908,-0.5 -6.335999965667725,-0.5 C-6.335999965667725,-0.5 -6.236999988555908,-0.5 -6.236999988555908,-0.5 C-5.960999965667725,-0.5 -5.736999988555908,-0.2759999930858612 -5.736999988555908,0 C-5.736999988555908,0.2759999930858612 -5.960999965667725,0.5 -6.236999988555908,0.5z M-8.324000358581543,0.5 C-8.600000381469727,0.5 -8.87399959564209,0.2759999930858612 -8.87399959564209,0 C-8.87399959564209,-0.2759999930858612 -8.699999809265137,-0.5 -8.423999786376953,-0.5 C-8.423999786376953,-0.5 -8.324000358581543,-0.5 -8.324000358581543,-0.5 C-8.04800033569336,-0.5 -7.823999881744385,-0.2759999930858612 -7.823999881744385,0 C-7.823999881744385,0.2759999930858612 -8.04800033569336,0.5 -8.324000358581543,0.5z M-10.413000106811523,0.5 C-10.689000129699707,0.5 -10.961999893188477,0.2759999930858612 -10.961999893188477,0 C-10.961999893188477,-0.2759999930858612 -10.788000106811523,-0.5 -10.51200008392334,-0.5 C-10.51200008392334,-0.5 -10.413000106811523,-0.5 -10.413000106811523,-0.5 C-10.13700008392334,-0.5 -9.913000106811523,-0.2759999930858612 -9.913000106811523,0 C-9.913000106811523,0.2759999930858612 -10.13700008392334,0.5 -10.413000106811523,0.5z M-12.49899959564209,0.5 C-12.774999618530273,0.5 -13.048999786376953,0.2759999930858612 -13.048999786376953,0 C-13.048999786376953,-0.2759999930858612 -12.875,-0.5 -12.597999572753906,-0.5 C-12.597999572753906,-0.5 -12.49899959564209,-0.5 -12.49899959564209,-0.5 C-12.222000122070312,-0.5 -11.99899959564209,-0.2759999930858612 -11.99899959564209,0 C-11.99899959564209,0.2759999930858612 -12.222000122070312,0.5 -12.49899959564209,0.5z M-14.586999893188477,0.5 C-14.86299991607666,0.5 -15.13700008392334,0.2759999930858612 -15.13700008392334,0 C-15.13700008392334,-0.2759999930858612 -14.963000297546387,-0.5 -14.685999870300293,-0.5 C-14.685999870300293,-0.5 -14.586999893188477,-0.5 -14.586999893188477,-0.5 C-14.3100004196167,-0.5 -14.086999893188477,-0.2759999930858612 -14.086999893188477,0 C-14.086999893188477,0.2759999930858612 -14.3100004196167,0.5 -14.586999893188477,0.5z M-16.676000595092773,0.5 C-16.95199966430664,0.5 -17.224000930786133,0.2759999930858612 -17.224000930786133,0 C-17.224000930786133,-0.2759999930858612 -17.049999237060547,-0.5 -16.773000717163086,-0.5 C-16.773000717163086,-0.5 -16.676000595092773,-0.5 -16.676000595092773,-0.5 C-16.39900016784668,-0.5 -16.176000595092773,-0.2759999930858612 -16.176000595092773,0 C-16.176000595092773,0.2759999930858612 -16.39900016784668,0.5 -16.676000595092773,0.5z M-18.761999130249023,0.5 C-19.038999557495117,0.5 -19.31100082397461,0.2759999930858612 -19.31100082397461,0 C-19.31100082397461,-0.2759999930858612 -19.136999130249023,-0.5 -18.861000061035156,-0.5 C-18.861000061035156,-0.5 -18.761999130249023,-0.5 -18.761999130249023,-0.5 C-18.486000061035156,-0.5 -18.261999130249023,-0.2759999930858612 -18.261999130249023,0 C-18.261999130249023,0.2759999930858612 -18.486000061035156,0.5 -18.761999130249023,0.5z M-20.849000930786133,0.5 C-21.125999450683594,0.5 -21.39900016784668,0.2759999930858612 -21.39900016784668,0 C-21.39900016784668,-0.2759999930858612 -21.225000381469727,-0.5 -20.948999404907227,-0.5 C-20.948999404907227,-0.5 -20.849000930786133,-0.5 -20.849000930786133,-0.5 C-20.572999954223633,-0.5 -20.349000930786133,-0.2759999930858612 -20.349000930786133,0 C-20.349000930786133,0.2759999930858612 -20.572999954223633,0.5 -20.849000930786133,0.5z M-22.93600082397461,0.5 C-23.21299934387207,0.5 -23.486000061035156,0.2759999930858612 -23.486000061035156,0 C-23.486000061035156,-0.2759999930858612 -23.312000274658203,-0.5 -23.035999298095703,-0.5 C-23.035999298095703,-0.5 -22.93600082397461,-0.5 -22.93600082397461,-0.5 C-22.65999984741211,-0.5 -22.43600082397461,-0.2759999930858612 -22.43600082397461,0 C-22.43600082397461,0.2759999930858612 -22.65999984741211,0.5 -22.93600082397461,0.5z M-25.02400016784668,0.5 C-25.301000595092773,0.5 -25.573999404907227,0.2759999930858612 -25.573999404907227,0 C-25.573999404907227,-0.2759999930858612 -25.399999618530273,-0.5 -25.124000549316406,-0.5 C-25.124000549316406,-0.5 -25.02400016784668,-0.5 -25.02400016784668,-0.5 C-24.74799919128418,-0.5 -24.52400016784668,-0.2759999930858612 -24.52400016784668,0 C-24.52400016784668,0.2759999930858612 -24.74799919128418,0.5 -25.02400016784668,0.5z M-27.11199951171875,0.5 C-27.38800048828125,0.5 -27.66200065612793,0.2759999930858612 -27.66200065612793,0 C-27.66200065612793,-0.2759999930858612 -27.48699951171875,-0.5 -27.211000442504883,-0.5 C-27.211000442504883,-0.5 -27.11199951171875,-0.5 -27.11199951171875,-0.5 C-26.836000442504883,-0.5 -26.61199951171875,-0.2759999930858612 -26.61199951171875,0 C-26.61199951171875,0.2759999930858612 -26.836000442504883,0.5 -27.11199951171875,0.5z M-29.198999404907227,0.5 C-29.475000381469727,0.5 -29.749000549316406,0.2759999930858612 -29.749000549316406,0 C-29.749000549316406,-0.2759999930858612 -29.575000762939453,-0.5 -29.298999786376953,-0.5 C-29.298999786376953,-0.5 -29.198999404907227,-0.5 -29.198999404907227,-0.5 C-28.92300033569336,-0.5 -28.698999404907227,-0.2759999930858612 -28.698999404907227,0 C-28.698999404907227,0.2759999930858612 -28.92300033569336,0.5 -29.198999404907227,0.5z"></path></g><g opacity="1" transform="matrix(1,0,0,1,307.41400146484375,47.952999114990234)"><path fill="rgb(166,166,166)" fill-opacity="1" d=" M0.013000000268220901,0.5 C-0.2630000114440918,0.5 -0.5130000114440918,0.2759999930858612 -0.5130000114440918,0 C-0.5130000114440918,-0.2759999930858612 -0.3140000104904175,-0.5 -0.03799999877810478,-0.5 C-0.03799999877810478,-0.5 0.013000000268220901,-0.5 0.013000000268220901,-0.5 C0.289000004529953,-0.5 0.5130000114440918,-0.2759999930858612 0.5130000114440918,0 C0.5130000114440918,0.2759999930858612 0.289000004529953,0.5 0.013000000268220901,0.5z"></path></g></g><g style="display: block;" transform="matrix(1,0,0,1,128.0330047607422,164.14599609375)" opacity="1"><g opacity="1" transform="matrix(1,0,0,1,195.70799255371094,193.26400756835938)"><path fill="rgb(255,255,255)" fill-opacity="1" d=" M22.341999053955078,-47.527000427246094 C22.341999053955078,-47.527000427246094 66.11399841308594,-47.527000427246094 66.11399841308594,-47.527000427246094 C69.0250015258789,-47.527000427246094 71.38500213623047,-45.16699981689453 71.38500213623047,-42.25600051879883 C71.38500213623047,-42.25600051879883 71.38500213623047,42.257999420166016 71.38500213623047,42.257999420166016 C71.38500213623047,45.167999267578125 69.0250015258789,47.52799987792969 66.11399841308594,47.52799987792969 C66.11399841308594,47.52799987792969 -66.11499786376953,47.52799987792969 -66.11499786376953,47.52799987792969 C-69.0260009765625,47.52799987792969 -71.38500213623047,45.167999267578125 -71.38500213623047,42.257999420166016 C-71.38500213623047,42.257999420166016 -71.38500213623047,-42.25600051879883 -71.38500213623047,-42.25600051879883 C-71.38500213623047,-45.16699981689453 -69.0260009765625,-47.527000427246094 -66.11499786376953,-47.527000427246094 C-66.11499786376953,-47.527000427246094 22.341999053955078,-47.527000427246094 22.341999053955078,-47.527000427246094z"></path><path stroke-linecap="round" stroke-linejoin="round" fill-opacity="0" stroke="rgb(166,166,166)" stroke-opacity="1" stroke-width="1" d=" M22.341999053955078,-47.527000427246094 C22.341999053955078,-47.527000427246094 66.11399841308594,-47.527000427246094 66.11399841308594,-47.527000427246094 C69.0250015258789,-47.527000427246094 71.38500213623047,-45.16699981689453 71.38500213623047,-42.25600051879883 C71.38500213623047,-42.25600051879883 71.38500213623047,42.257999420166016 71.38500213623047,42.257999420166016 C71.38500213623047,45.167999267578125 69.0250015258789,47.52799987792969 66.11399841308594,47.52799987792969 C66.11399841308594,47.52799987792969 -66.11499786376953,47.52799987792969 -66.11499786376953,47.52799987792969 C-69.0260009765625,47.52799987792969 -71.38500213623047,45.167999267578125 -71.38500213623047,42.257999420166016 C-71.38500213623047,42.257999420166016 -71.38500213623047,-42.25600051879883 -71.38500213623047,-42.25600051879883 C-71.38500213623047,-45.16699981689453 -69.0260009765625,-47.527000427246094 -66.11499786376953,-47.527000427246094 C-66.11499786376953,-47.527000427246094 22.341999053955078,-47.527000427246094 22.341999053955078,-47.527000427246094z"></path></g><g opacity="1" transform="matrix(1,0,0,1,0,0)"><path stroke-linecap="round" stroke-linejoin="round" fill-opacity="0" stroke="rgb(166,166,166)" stroke-opacity="1" stroke-width="1" d=" M181.5709991455078,219.5540008544922 C181.5709991455078,219.5540008544922 181.5709991455078,219.5540008544922 181.5709991455078,219.5540008544922z"></path></g><g opacity="1" transform="matrix(1,0,0,1,162.03799438476562,211.1479949951172)"><path stroke-linecap="round" stroke-linejoin="round" fill-opacity="0" stroke="rgb(166,166,166)" stroke-opacity="1" stroke-width="1" d=" M-19.523000717163086,8.440999984741211 C-18.010000228881836,-1.2109999656677246 -9.329000473022461,-8.440999984741211 0.5680000185966492,-8.156000137329102 C10.118000030517578,-7.880000114440918 18.165000915527344,-0.8949999809265137 19.523000717163086,8.407999992370605"></path></g><g opacity="1" transform="matrix(1,0,0,1,162.0290069580078,192.27999877929688)"><path stroke-linecap="round" stroke-linejoin="round" fill-opacity="0" stroke="rgb(166,166,166)" stroke-opacity="1" stroke-width="1" d=" M10.704000473022461,0 C10.704000473022461,5.910999774932861 5.9120001792907715,10.704000473022461 0,10.704000473022461 C-5.9120001792907715,10.704000473022461 -10.704000473022461,5.910999774932861 -10.704000473022461,0 C-10.704000473022461,-5.9120001792907715 -5.9120001792907715,-10.704000473022461 0,-10.704000473022461 C5.9120001792907715,-10.704000473022461 10.704000473022461,-5.9120001792907715 10.704000473022461,0z"></path></g><g opacity="1" transform="matrix(1,0,0,1,162.04299926757812,193.24000549316406)"><path stroke-linecap="round" stroke-linejoin="round" fill-opacity="0" stroke="rgb(166,166,166)" stroke-opacity="1" stroke-width="1" d=" M23.270000457763672,26.301000595092773 C23.270000457763672,26.301000595092773 -23.270999908447266,26.301000595092773 -23.270999908447266,26.301000595092773 C-23.270999908447266,26.301000595092773 -23.270999908447266,-26.301000595092773 -23.270999908447266,-26.301000595092773 C-23.270999908447266,-26.301000595092773 23.270000457763672,-26.301000595092773 23.270000457763672,-26.301000595092773 C23.270000457763672,-26.301000595092773 23.270000457763672,26.301000595092773 23.270000457763672,26.301000595092773z"></path></g><g opacity="1" transform="matrix(1,0,0,1,0,0)"><path stroke-linecap="round" stroke-linejoin="round" fill-opacity="0" stroke="rgb(166,166,166)" stroke-opacity="1" stroke-width="1" d=" M199.95199584960938,166.93899536132812 C199.95199584960938,166.93899536132812 252.98899841308594,166.93899536132812 252.98899841308594,166.93899536132812"></path></g><g opacity="1" transform="matrix(1,0,0,1,0,0)"><path stroke-linecap="round" stroke-linejoin="round" fill-opacity="0" stroke="rgb(166,166,166)" stroke-opacity="1" stroke-width="1" d=" M241.02000427246094,184.2899932861328 C241.02000427246094,184.2899932861328 252.98800659179688,184.2899932861328 252.98800659179688,184.2899932861328"></path></g><g opacity="1" transform="matrix(1,0,0,1,0,0)"><path stroke-linecap="round" stroke-linejoin="round" fill-opacity="0" stroke="rgb(166,166,166)" stroke-opacity="1" stroke-width="1" d=" M199.95199584960938,184.2899932861328 C199.95199584960938,184.2899932861328 232.74400329589844,184.2899932861328 232.74400329589844,184.2899932861328"></path></g><g opacity="1" transform="matrix(1,0,0,1,0,0)"><path stroke-linecap="round" stroke-linejoin="round" fill-opacity="0" stroke="rgb(166,166,166)" stroke-opacity="1" stroke-width="1" d=" M200.5749969482422,201.64199829101562 C200.5749969482422,201.64199829101562 245.29100036621094,201.64199829101562 245.29100036621094,201.64199829101562"></path></g><g opacity="1" transform="matrix(1,0,0,1,0,0)"><path stroke-linecap="round" stroke-linejoin="round" fill-opacity="0" stroke="rgb(166,166,166)" stroke-opacity="1" stroke-width="1" d=" M199.95199584960938,219.5399932861328 C199.95199584960938,219.5399932861328 221.26499938964844,219.5399932861328 221.26499938964844,219.5399932861328"></path></g><g opacity="1" transform="matrix(1,0,0,1,0,0)"><path stroke-linecap="round" stroke-linejoin="round" fill-opacity="0" stroke="rgb(166,166,166)" stroke-opacity="1" stroke-width="1" d=" M229.0279998779297,219.5399932861328 C229.0279998779297,219.5399932861328 239.6840057373047,219.5399932861328 239.6840057373047,219.5399932861328"></path></g></g><g style="display: block;" transform="matrix(1,0,0,1,229.375,256.23602294921875)" opacity="1"><g opacity="1" transform="matrix(1,0,0,1,107.86599731445312,97.6449966430664)"><path fill="rgb(255,255,255)" fill-opacity="1" d=" M64.4749984741211,54.770999908447266 C64.4749984741211,54.770999908447266 -64.4749984741211,54.770999908447266 -64.4749984741211,54.770999908447266 C-67.30500030517578,54.770999908447266 -69.5999984741211,52.47600173950195 -69.5999984741211,49.64500045776367 C-69.5999984741211,49.64500045776367 -69.5999984741211,-49.64500045776367 -69.5999984741211,-49.64500045776367 C-69.5999984741211,-52.47600173950195 -67.30500030517578,-54.770999908447266 -64.4749984741211,-54.770999908447266 C-64.4749984741211,-54.770999908447266 64.4749984741211,-54.770999908447266 64.4749984741211,-54.770999908447266 C67.30599975585938,-54.770999908447266 69.5999984741211,-52.47600173950195 69.5999984741211,-49.64500045776367 C69.5999984741211,-49.64500045776367 69.5999984741211,49.64500045776367 69.5999984741211,49.64500045776367 C69.5999984741211,52.47600173950195 67.30599975585938,54.770999908447266 64.4749984741211,54.770999908447266z"></path><path stroke-linecap="butt" stroke-linejoin="miter" fill-opacity="0" stroke-miterlimit="10" stroke="rgb(166,166,166)" stroke-opacity="1" stroke-width="1" d=" M64.4749984741211,54.770999908447266 C64.4749984741211,54.770999908447266 -64.4749984741211,54.770999908447266 -64.4749984741211,54.770999908447266 C-67.30500030517578,54.770999908447266 -69.5999984741211,52.47600173950195 -69.5999984741211,49.64500045776367 C-69.5999984741211,49.64500045776367 -69.5999984741211,-49.64500045776367 -69.5999984741211,-49.64500045776367 C-69.5999984741211,-52.47600173950195 -67.30500030517578,-54.770999908447266 -64.4749984741211,-54.770999908447266 C-64.4749984741211,-54.770999908447266 64.4749984741211,-54.770999908447266 64.4749984741211,-54.770999908447266 C67.30599975585938,-54.770999908447266 69.5999984741211,-52.47600173950195 69.5999984741211,-49.64500045776367 C69.5999984741211,-49.64500045776367 69.5999984741211,49.64500045776367 69.5999984741211,49.64500045776367 C69.5999984741211,52.47600173950195 67.30599975585938,54.770999908447266 64.4749984741211,54.770999908447266z"></path></g><g opacity="1" transform="matrix(1,0,0,1,0,0)"><path stroke-linecap="butt" stroke-linejoin="miter" fill-opacity="0" stroke-miterlimit="10" stroke="rgb(166,166,166)" stroke-opacity="1" stroke-width="1" d=" M91.44400024414062,59.077999114990234 C91.44400024414062,59.077999114990234 177.4669952392578,59.077999114990234 177.4669952392578,59.077999114990234"></path></g><g opacity="1" transform="matrix(1,0,0,1,0,0)"><path stroke-linecap="butt" stroke-linejoin="miter" fill-opacity="0" stroke-miterlimit="10" stroke="rgb(166,166,166)" stroke-opacity="1" stroke-width="1" d=" M38.26599884033203,59.077999114990234 C38.26599884033203,59.077999114990234 49.25400161743164,59.077999114990234 49.25400161743164,59.077999114990234"></path></g><g opacity="1" transform="matrix(1,0,0,1,70.3489990234375,74.05899810791016)"><path stroke-linecap="butt" stroke-linejoin="miter" fill-opacity="0" stroke-miterlimit="10" stroke="rgb(166,166,166)" stroke-opacity="1" stroke-width="1" d=" M15.4399995803833,21.20599937438965 C15.4399995803833,21.20599937438965 -15.4399995803833,21.20599937438965 -15.4399995803833,21.20599937438965 C-18.562999725341797,21.20599937438965 -21.094999313354492,18.673999786376953 -21.094999313354492,15.550999641418457 C-21.094999313354492,15.550999641418457 -21.094999313354492,-15.550999641418457 -21.094999313354492,-15.550999641418457 C-21.094999313354492,-18.673999786376953 -18.562999725341797,-21.20599937438965 -15.4399995803833,-21.20599937438965 C-15.4399995803833,-21.20599937438965 15.4399995803833,-21.20599937438965 15.4399995803833,-21.20599937438965 C18.562999725341797,-21.20599937438965 21.094999313354492,-18.673999786376953 21.094999313354492,-15.550999641418457 C21.094999313354492,-15.550999641418457 21.094999313354492,15.550999641418457 21.094999313354492,15.550999641418457 C21.094999313354492,18.673999786376953 18.562999725341797,21.20599937438965 15.4399995803833,21.20599937438965z"></path></g><g opacity="1" transform="matrix(1,0,0,1,0,0)"><path stroke-linecap="round" stroke-linejoin="round" fill-opacity="0" stroke="rgb(166,166,166)" stroke-opacity="1" stroke-width="1" d=" M87.16899871826172,94.94100189208984 C87.16899871826172,94.94100189208984 87.16899871826172,94.94100189208984 87.16899871826172,94.94100189208984z"></path></g><g opacity="1" transform="matrix(1,0,0,1,70.41699981689453,87.73100280761719)"><path stroke-linecap="round" stroke-linejoin="round" fill-opacity="0" stroke="rgb(166,166,166)" stroke-opacity="1" stroke-width="1" d=" M-16.7450008392334,7.239999771118164 C-15.446999549865723,-1.0390000343322754 -8,-7.239999771118164 0.4880000054836273,-6.994999885559082 C8.678000450134277,-6.760000228881836 15.579999923706055,-0.7670000195503235 16.7450008392334,7.210999965667725"></path></g><g opacity="1" transform="matrix(1,0,0,1,70.40899658203125,71.54900360107422)"><path stroke-linecap="round" stroke-linejoin="round" fill-opacity="0" stroke="rgb(166,166,166)" stroke-opacity="1" stroke-width="1" d=" M9.180000305175781,0 C9.180000305175781,5.070000171661377 5.070000171661377,9.180000305175781 0,9.180000305175781 C-5.070000171661377,9.180000305175781 -9.180000305175781,5.070000171661377 -9.180000305175781,0 C-9.180000305175781,-5.070000171661377 -5.070000171661377,-9.180000305175781 0,-9.180000305175781 C5.070000171661377,-9.180000305175781 9.180000305175781,-5.070000171661377 9.180000305175781,0z"></path></g><g opacity="1" transform="matrix(1,0,0,1,0,0)"><path stroke-linecap="round" stroke-linejoin="round" fill-opacity="0" stroke="rgb(166,166,166)" stroke-opacity="1" stroke-width="1" d=" M101.375,72.78700256347656 C101.375,72.78700256347656 122.20500183105469,72.78700256347656 122.20500183105469,72.78700256347656"></path></g><g opacity="1" transform="matrix(1,0,0,1,0,0)"><path stroke-linecap="round" stroke-linejoin="round" fill-opacity="0" stroke="rgb(166,166,166)" stroke-opacity="1" stroke-width="1" d=" M101.375,85.875 C101.375,85.875 140.88600158691406,85.875 140.88600158691406,85.875"></path></g><g opacity="1" transform="matrix(1,0,0,1,0,0)"><path stroke-linecap="round" stroke-linejoin="round" fill-opacity="0" stroke="rgb(166,166,166)" stroke-opacity="1" stroke-width="1" d=" M133.67300415039062,72.70800018310547 C133.67300415039062,72.70800018310547 154.06300354003906,72.70800018310547 154.06300354003906,72.70800018310547"></path></g><g opacity="1" transform="matrix(1,0,0,1,146.66000366210938,123.47000122070312)"><path stroke-linecap="round" stroke-linejoin="round" fill-opacity="0" stroke="rgb(166,166,166)" stroke-opacity="1" stroke-width="1" d=" M22.336999893188477,8.416999816894531 C22.336999893188477,8.416999816894531 -22.336999893188477,8.416999816894531 -22.336999893188477,8.416999816894531 C-22.336999893188477,8.416999816894531 -22.336999893188477,-3.562000036239624 -22.336999893188477,-3.562000036239624 C-22.336999893188477,-6.151000022888184 -20.070999145507812,-8.416999816894531 -17.481000900268555,-8.416999816894531 C-17.481000900268555,-8.416999816894531 17.481000900268555,-8.416999816894531 17.481000900268555,-8.416999816894531 C20.070999145507812,-8.416999816894531 22.336999893188477,-6.151000022888184 22.336999893188477,-3.562000036239624 C22.336999893188477,-3.562000036239624 22.336999893188477,8.416999816894531 22.336999893188477,8.416999816894531z"></path></g><g opacity="1" transform="matrix(1,0,0,1,0,0)"><path stroke-linecap="round" stroke-linejoin="round" fill-opacity="0" stroke="rgb(166,166,166)" stroke-opacity="1" stroke-width="1" d=" M132.41600036621094,136.41900634765625 C132.41600036621094,136.41900634765625 132.41600036621094,131.88699340820312 132.41600036621094,131.88699340820312"></path></g><g opacity="1" transform="matrix(1,0,0,1,0,0)"><path stroke-linecap="round" stroke-linejoin="round" fill-opacity="0" stroke="rgb(166,166,166)" stroke-opacity="1" stroke-width="1" d=" M160.5800018310547,136.41900634765625 C160.5800018310547,136.41900634765625 160.5800018310547,131.88699340820312 160.5800018310547,131.88699340820312"></path></g><g opacity="1" transform="matrix(1,0,0,1,146.65899658203125,107.44599914550781)"><path stroke-linecap="round" stroke-linejoin="round" fill-opacity="0" stroke="rgb(166,166,166)" stroke-opacity="1" stroke-width="1" d=" M16.510000228881836,7.60699987411499 C16.510000228881836,7.60699987411499 -16.510000228881836,7.60699987411499 -16.510000228881836,7.60699987411499 C-16.510000228881836,7.60699987411499 -13.595999717712402,-5.01800012588501 -13.595999717712402,-5.01800012588501 C-13.272000312805176,-6.313000202178955 -11.97700023651123,-7.60699987411499 -10.359000205993652,-7.60699987411499 C-10.359000205993652,-7.60699987411499 10.359999656677246,-7.60699987411499 10.359999656677246,-7.60699987411499 C11.977999687194824,-7.60699987411499 13.27299976348877,-6.63700008392334 13.597000122070312,-5.01800012588501 C13.597000122070312,-5.01800012588501 16.510000228881836,7.60699987411499 16.510000228881836,7.60699987411499z"></path></g><g opacity="1" transform="matrix(1,0,0,1,127.39800262451172,113.11100006103516)"><path stroke-linecap="round" stroke-linejoin="round" fill-opacity="0" stroke="rgb(166,166,166)" stroke-opacity="1" stroke-width="1" d=" M-1.781000018119812,-1.9429999589920044 C-1.781000018119812,-1.9429999589920044 1.781000018119812,1.9429999589920044 1.781000018119812,1.9429999589920044"></path></g><g opacity="1" transform="matrix(1,0,0,1,165.92100524902344,113.11100006103516)"><path stroke-linecap="round" stroke-linejoin="round" fill-opacity="0" stroke="rgb(166,166,166)" stroke-opacity="1" stroke-width="1" d=" M1.781000018119812,-1.9429999589920044 C1.781000018119812,-1.9429999589920044 -1.781000018119812,1.9429999589920044 -1.781000018119812,1.9429999589920044"></path></g><g opacity="1" transform="matrix(1,0,0,1,160.5800018310547,123.47000122070312)"><path stroke-linecap="round" stroke-linejoin="round" fill-opacity="0" stroke="rgb(166,166,166)" stroke-opacity="1" stroke-width="1" d=" M0,-0.3240000009536743 C0.17900000512599945,-0.3240000009536743 0.3240000009536743,-0.17800000309944153 0.3240000009536743,0.0010000000474974513 C0.3240000009536743,0.17900000512599945 0.17900000512599945,0.3240000009536743 0,0.3240000009536743 C-0.17900000512599945,0.3240000009536743 -0.3240000009536743,0.17900000512599945 -0.3240000009536743,0.0010000000474974513 C-0.3240000009536743,-0.17800000309944153 -0.17900000512599945,-0.3240000009536743 0,-0.3240000009536743z"></path></g><g opacity="1" transform="matrix(1,0,0,1,132.41600036621094,123.47000122070312)"><path stroke-linecap="round" stroke-linejoin="round" fill-opacity="0" stroke="rgb(166,166,166)" stroke-opacity="1" stroke-width="1" d=" M0,-0.3240000009536743 C0.17900000512599945,-0.3240000009536743 0.3240000009536743,-0.17800000309944153 0.3240000009536743,0.0010000000474974513 C0.3240000009536743,0.17900000512599945 0.17900000512599945,0.3240000009536743 0,0.3240000009536743 C-0.17900000512599945,0.3240000009536743 -0.3240000009536743,0.17900000512599945 -0.3240000009536743,0.0010000000474974513 C-0.3240000009536743,-0.17800000309944153 -0.17900000512599945,-0.3240000009536743 0,-0.3240000009536743z"></path></g><g opacity="1" transform="matrix(1,0,0,1,0,0)"><path stroke-linecap="round" stroke-linejoin="round" fill-opacity="0" stroke="rgb(166,166,166)" stroke-opacity="1" stroke-width="1" d=" M49.25400161743164,109.28399658203125 C49.25400161743164,109.28399658203125 111.75399780273438,109.28399658203125 111.75399780273438,109.28399658203125"></path></g><g opacity="1" transform="matrix(1,0,0,1,0,0)"><path stroke-linecap="round" stroke-linejoin="round" fill-opacity="0" stroke="rgb(166,166,166)" stroke-opacity="1" stroke-width="1" d=" M49.25400161743164,122.95800018310547 C49.25400161743164,122.95800018310547 105.85800170898438,122.95800018310547 105.85800170898438,122.95800018310547"></path></g><g opacity="1" transform="matrix(1,0,0,1,0,0)"><path stroke-linecap="round" stroke-linejoin="round" fill-opacity="0" stroke="rgb(166,166,166)" stroke-opacity="1" stroke-width="1" d=" M49.25400161743164,136.66600036621094 C49.25400161743164,136.66600036621094 71.2760009765625,136.66600036621094 71.2760009765625,136.66600036621094"></path></g><g opacity="1" transform="matrix(1,0,0,1,0,0)"><path stroke-linecap="round" stroke-linejoin="round" fill-opacity="0" stroke="rgb(166,166,166)" stroke-opacity="1" stroke-width="1" d=" M78.87300109863281,136.66600036621094 C78.87300109863281,136.66600036621094 110.74700164794922,136.66600036621094 110.74700164794922,136.66600036621094"></path></g></g><g transform="matrix(1,0,0,1,96.39500427246094,175.05099487304688)" opacity="1" style="display: block;"><g opacity="1" transform="matrix(1,0,0,1,227.3459930419922,181.71400451660156)"><path fill="rgb(255,255,255)" fill-opacity="1" d=" M90.6989974975586,61.82099914550781 C90.6989974975586,61.82099914550781 -90.697998046875,61.82099914550781 -90.697998046875,61.82099914550781 C-95.56500244140625,61.82099914550781 -99.51000213623047,57.875999450683594 -99.51000213623047,53.00899887084961 C-99.51000213623047,53.00899887084961 -99.51000213623047,-59.053001403808594 -99.51000213623047,-59.053001403808594 C-99.51000213623047,-60.762001037597656 -99.08200073242188,-61.402000427246094 -97.79499816894531,-61.821998596191406 C-97.79499816894531,-61.821998596191406 -19.350000381469727,-1.7029999494552612 -19.350000381469727,-1.7029999494552612 C-19.350000381469727,-1.7029999494552612 -2.003000020980835,-13.994999885559082 -2.003000020980835,-13.994999885559082 C-2.003000020980835,-13.994999885559082 2.2720000743865967,-13.991999626159668 2.2720000743865967,-13.991999626159668 C2.2720000743865967,-13.991999626159668 19.09600067138672,-1.7029999494552612 19.09600067138672,-1.7029999494552612 C19.09600067138672,-1.7029999494552612 97.47899627685547,-61.75699996948242 97.47899627685547,-61.75699996948242 C99.18800354003906,-61.75699996948242 99.51000213623047,-60.762001037597656 99.51000213623047,-59.053001403808594 C99.51000213623047,-59.053001403808594 99.51000213623047,53.00899887084961 99.51000213623047,53.00899887084961 C99.51000213623047,57.875999450683594 95.56500244140625,61.82099914550781 90.6989974975586,61.82099914550781z"></path><path stroke-linecap="round" stroke-linejoin="round" fill-opacity="0" stroke="rgb(166,166,166)" stroke-opacity="1" stroke-width="0.5" d=" M90.6989974975586,61.82099914550781 C90.6989974975586,61.82099914550781 -90.697998046875,61.82099914550781 -90.697998046875,61.82099914550781 C-95.56500244140625,61.82099914550781 -99.51000213623047,57.875999450683594 -99.51000213623047,53.00899887084961 C-99.51000213623047,53.00899887084961 -99.51000213623047,-59.053001403808594 -99.51000213623047,-59.053001403808594 C-99.51000213623047,-60.762001037597656 -99.08200073242188,-61.402000427246094 -97.79499816894531,-61.821998596191406 C-97.79499816894531,-61.821998596191406 -19.350000381469727,-1.7029999494552612 -19.350000381469727,-1.7029999494552612 C-19.350000381469727,-1.7029999494552612 -2.003000020980835,-13.994999885559082 -2.003000020980835,-13.994999885559082 C-2.003000020980835,-13.994999885559082 2.2720000743865967,-13.991999626159668 2.2720000743865967,-13.991999626159668 C2.2720000743865967,-13.991999626159668 19.09600067138672,-1.7029999494552612 19.09600067138672,-1.7029999494552612 C19.09600067138672,-1.7029999494552612 97.47899627685547,-61.75699996948242 97.47899627685547,-61.75699996948242 C99.18800354003906,-61.75699996948242 99.51000213623047,-60.762001037597656 99.51000213623047,-59.053001403808594 C99.51000213623047,-59.053001403808594 99.51000213623047,53.00899887084961 99.51000213623047,53.00899887084961 C99.51000213623047,57.875999450683594 95.56500244140625,61.82099914550781 90.6989974975586,61.82099914550781z"></path></g><g opacity="1" transform="matrix(1,0,0,1,227.3459930419922,181.55099487304688)"><path stroke-linecap="round" stroke-linejoin="round" fill-opacity="0" stroke="rgb(166,166,166)" stroke-opacity="1" stroke-width="1" d=" M98.22000122070312,-61.98400115966797 C99.07599639892578,-60.72200012207031 99.51000213623047,-59.277000427246094 99.51000213623047,-57.7130012512207 C99.51000213623047,-57.7130012512207 99.51000213623047,52.974998474121094 99.51000213623047,52.974998474121094 C99.51000213623047,57.95100021362305 95.47699737548828,61.98400115966797 90.5009994506836,61.98400115966797 C90.5009994506836,61.98400115966797 -90.49700164794922,61.98400115966797 -90.49700164794922,61.98400115966797 C-95.4749984741211,61.98400115966797 -99.51000213623047,57.94900131225586 -99.51000213623047,52.970001220703125 C-99.51000213623047,52.970001220703125 -99.50800323486328,-57.71200180053711 -99.50800323486328,-57.71200180053711 C-99.50800323486328,-59.29499816894531 -99.09200286865234,-60.71200180053711 -98.21600341796875,-61.98400115966797"></path></g><g opacity="1" transform="matrix(1,0,0,1,168.56300354003906,149.78900146484375)"><path stroke-linecap="round" stroke-linejoin="round" fill-opacity="0" stroke="rgb(166,166,166)" stroke-opacity="1" stroke-width="1" d=" M-39.43199920654297,-30.222000122070312 C-39.43199920654297,-30.222000122070312 25.51799964904785,20.042999267578125 25.51799964904785,20.042999267578125 C25.51799964904785,20.042999267578125 39.43199920654297,30.22100067138672 39.43199920654297,30.22100067138672"></path></g><g opacity="1" transform="matrix(1,0,0,1,286.0039978027344,149.78900146484375)"><path stroke-linecap="round" stroke-linejoin="round" fill-opacity="0" stroke="rgb(166,166,166)" stroke-opacity="1" stroke-width="1" d=" M39.5620002746582,-30.222000122070312 C39.5620002746582,-30.222000122070312 -25.617000579833984,19.617000579833984 -25.617000579833984,19.617000579833984 C-25.617000579833984,19.617000579833984 -39.5620002746582,30.22100067138672 -39.5620002746582,30.22100067138672"></path></g><g opacity="1" transform="matrix(1,0,0,1,226.7010040283203,202.96499633789062)"><path stroke-linecap="round" stroke-linejoin="round" fill-opacity="0" stroke="rgb(166,166,166)" stroke-opacity="1" stroke-width="1" d=" M-97.67900085449219,36.025001525878906 C-97.67900085449219,36.025001525878906 -3.888000011444092,-34.01900100708008 -3.888000011444092,-34.01900100708008 C-1.2020000219345093,-36.025001525878906 2.484999895095825,-36.01300048828125 5.1579999923706055,-33.99100112915039 C5.1579999923706055,-33.99100112915039 97.68000030517578,36.025001525878906 97.68000030517578,36.025001525878906"></path></g></g><g style="display: block;" transform="matrix(1,0,0,-0.9959499835968018,97.093994140625,413.16705322265625)" opacity="1"><g opacity="1" transform="matrix(1,0,0,1,226.593994140625,69.13400268554688)"><path fill="rgb(255,255,255)" fill-opacity="1" d=" M-65.29000091552734,25.30500030517578 C-65.29000091552734,25.30500030517578 -2.750999927520752,-24.117000579833984 -2.750999927520752,-24.117000579833984 C-1.1230000257492065,-25.30500030517578 1.0959999561309814,-25.27199935913086 2.688999891281128,-24.035999298095703 C2.688999891281128,-24.035999298095703 65.29000091552734,25.30500030517578 65.29000091552734,25.30500030517578"></path></g><g opacity="1" transform="matrix(1,0,0,1,227.6219940185547,106.77200317382812)"><path fill="rgb(255,255,255)" fill-opacity="1" d=" M-66.31800079345703,-12.333999633789062 C-66.31800079345703,-12.333999633789062 -97.38300323486328,10.883000373840332 -97.38300323486328,10.883000373840332 C-97.38300323486328,10.883000373840332 -97.38300323486328,8.446999549865723 -97.38300323486328,10.883000373840332 C-97.38300323486328,10.883000373840332 95.4280014038086,10.878000259399414 95.4280014038086,10.878000259399414 C95.4280014038086,10.878000259399414 97.38300323486328,12.333999633789062 95.4280014038086,10.878000259399414 C95.4280014038086,10.878000259399414 64.26200103759766,-12.333999633789062 64.26200103759766,-12.333999633789062"></path></g><g opacity="1" transform="matrix(1,0,0,1,226.6479949951172,69.13400268554688)"><path stroke-linecap="round" stroke-linejoin="round" fill-opacity="0" stroke="rgb(166,166,166)" stroke-opacity="1" stroke-width="1" d=" M-65.28900146484375,25.30500030517578 C-65.28900146484375,25.30500030517578 -2.75,-24.117000579833984 -2.75,-24.117000579833984 C-1.121000051498413,-25.30500030517578 1.097000002861023,-25.27199935913086 2.688999891281128,-24.035999298095703 C2.688999891281128,-24.035999298095703 65.28900146484375,25.30500030517578 65.28900146484375,25.30500030517578"></path></g><g opacity="1" transform="matrix(1,0,0,1,145.3990020751953,106.36799621582031)"><path stroke-linecap="round" stroke-linejoin="round" fill-opacity="0" stroke="rgb(166,166,166)" stroke-opacity="1" stroke-width="1" d=" M-15.958999633789062,11.930000305175781 C-15.958999633789062,11.930000305175781 15.958999633789062,-11.930000305175781 15.958999633789062,-11.930000305175781"></path></g><g opacity="1" transform="matrix(1,0,0,1,307.9280090332031,106.36799621582031)"><path stroke-linecap="round" stroke-linejoin="round" fill-opacity="0" stroke="rgb(166,166,166)" stroke-opacity="1" stroke-width="1" d=" M-15.989999771118164,-11.930000305175781 C-15.989999771118164,-11.930000305175781 15.991000175476074,11.930000305175781 15.991000175476074,11.930000305175781"></path></g></g><g style="display: block;" transform="matrix(1,0,0,1,96.39401245117188,169.635009765625)" opacity="1"><g opacity="1" transform="matrix(1,0,0,1,227.3459930419922,124.00299835205078)"><path stroke-linecap="round" stroke-linejoin="round" fill-opacity="0" stroke="rgb(166,166,166)" stroke-opacity="1" stroke-width="1" d=" M99.51000213623047,4.435999870300293 C99.51000213623047,-0.46299999952316284 95.53800201416016,-4.435999870300293 90.63899993896484,-4.435999870300293 C90.63899993896484,-4.435999870300293 -90.63899993896484,-4.435999870300293 -90.63899993896484,-4.435999870300293 C-95.53800201416016,-4.435999870300293 -99.51000213623047,-0.46299999952316284 -99.51000213623047,4.435999870300293"></path></g></g><g transform="matrix(0.779999852180481,0,0,0.779999852180481,145.37844848632812,234.78692626953125)" opacity="0.9999997737332599" style="display: block;"><g opacity="1" transform="matrix(1,0,0,1,228.71099853515625,154.00399780273438)"><path fill="rgb(255,255,255)" fill-opacity="1" d=" M52.91999816894531,-0.0010000000474974513 C52.91999816894531,29.226999282836914 29.226999282836914,52.92100143432617 0,52.92100143432617 C-29.226999282836914,52.92100143432617 -52.91999816894531,29.226999282836914 -52.91999816894531,-0.0010000000474974513 C-52.91999816894531,-29.22800064086914 -29.226999282836914,-52.92100143432617 0,-52.92100143432617 C29.226999282836914,-52.92100143432617 52.91999816894531,-29.22800064086914 52.91999816894531,-0.0010000000474974513z"></path><path stroke-linecap="round" stroke-linejoin="round" fill-opacity="0" stroke="rgb(9,162,92)" stroke-opacity="1" stroke-width="1" d=" M52.91999816894531,-0.0010000000474974513 C52.91999816894531,29.226999282836914 29.226999282836914,52.92100143432617 0,52.92100143432617 C-29.226999282836914,52.92100143432617 -52.91999816894531,29.226999282836914 -52.91999816894531,-0.0010000000474974513 C-52.91999816894531,-29.22800064086914 -29.226999282836914,-52.92100143432617 0,-52.92100143432617 C29.226999282836914,-52.92100143432617 52.91999816894531,-29.22800064086914 52.91999816894531,-0.0010000000474974513z"></path></g><g opacity="1" transform="matrix(1,0,0,1,228.7100067138672,154.00399780273438)"><path fill="rgb(255,255,255)" fill-opacity="1" d=" M-26.195999145507812,-2.9509999752044678 C-26.195999145507812,-2.9509999752044678 -4.855000019073486,16.246999740600586 -4.855000019073486,16.246999740600586 C-4.855000019073486,16.246999740600586 26.195999145507812,-16.246999740600586 26.195999145507812,-16.246999740600586"></path><path stroke-linecap="round" stroke-linejoin="round" fill-opacity="0" stroke="rgb(9,162,92)" stroke-opacity="1" stroke-width="1" d=" M-26.195999145507812,-2.9509999752044678 C-26.195999145507812,-2.9509999752044678 -4.855000019073486,16.246999740600586 -4.855000019073486,16.246999740600586 C-4.855000019073486,16.246999740600586 26.195999145507812,-16.246999740600586 26.195999145507812,-16.246999740600586"></path></g></g></g></svg>