<svg width="49" height="49" viewBox="0 0 49 49" fill="none" xmlns="http://www.w3.org/2000/svg">
<g filter="url(#filter0_b)">
<circle cx="24.7216" cy="24.246" r="24.246" fill="#B47DA5" fill-opacity="0.38"/>
</g>
<path d="M25 37C25 37 12.5 30 12.5 21.5C12.5003 19.9977 13.0208 18.5418 13.9732 17.3799C14.9255 16.218 16.2509 15.4218 17.724 15.1267C19.197 14.8316 20.7269 15.0557 22.0533 15.7611C23.3798 16.4664 24.421 17.6094 25 18.9956L25 18.9956C25.579 17.6094 26.6202 16.4664 27.9467 15.7611C29.2731 15.0557 30.8029 14.8316 32.276 15.1267C33.7491 15.4218 35.0745 16.218 36.0268 17.3799C36.9792 18.5418 37.4997 19.9977 37.5 21.5C37.5 30 25 37 25 37Z" stroke="white" stroke-width="2" stroke-linecap="round" stroke-linejoin="round"/>
<defs>
<filter id="filter0_b" x="-8.95341" y="-9.42899" width="67.3499" height="67.3499" filterUnits="userSpaceOnUse" color-interpolation-filters="sRGB">
<feFlood flood-opacity="0" result="BackgroundImageFix"/>
<feGaussianBlur in="BackgroundImage" stdDeviation="4.7145"/>
<feComposite in2="SourceAlpha" operator="in" result="effect1_backgroundBlur"/>
<feBlend mode="normal" in="SourceGraphic" in2="effect1_backgroundBlur" result="shape"/>
</filter>
</defs>
</svg>
