<svg width="102" height="102" viewBox="0 0 102 102" fill="none" xmlns="http://www.w3.org/2000/svg">
<path d="M0 51C0 22.8335 22.8335 0 51 0V0C79.1665 0 102 22.8335 102 51V51C102 79.1665 79.1665 102 51 102V102C22.8335 102 0 79.1665 0 51V51Z" fill="#5171E4"/>
<path d="M51 26C43.5824 26 37.5476 32.0346 37.5476 39.4524V47.1354C37.5476 47.2227 37.4399 47.3698 37.3552 47.398C36.6278 47.6406 36.037 47.8508 35.4961 48.0593C34.8512 48.3079 34.3647 49.0226 34.3647 49.7219V67.3753C34.3647 68.0697 34.848 68.7851 35.4889 69.0391C40.4474 71.0039 45.666 72 50.9999 72C56.3338 72 61.5525 71.0037 66.5112 69.0388C67.1518 68.7849 67.6349 68.0697 67.6349 67.3753V49.7219C67.6349 49.0226 67.1485 48.3079 66.5032 48.059C65.9622 47.8505 65.3714 47.6403 64.6445 47.3977C64.5601 47.3696 64.4524 47.2224 64.4524 47.1351V39.4522C64.452 32.0346 58.4175 26 51 26ZM47.3359 55.0985C47.3359 53.0734 48.9764 51.4347 50.9998 51.4347C53.023 51.4347 54.6635 53.0733 54.6635 55.0985C54.6635 56.4403 53.9068 57.5638 52.8316 58.2006V64.258C52.8316 65.2707 52.0122 66.0899 50.9997 66.0899C49.987 66.0899 49.1678 65.2707 49.1678 64.258V58.2006C48.0927 57.5638 47.3359 56.4403 47.3359 55.0985ZM59.8267 39.4522V46.0812C56.9321 45.4583 53.9625 45.1429 51.0012 45.1427C48.0412 45.1427 45.0722 45.4582 42.1731 46.0805V39.4522C42.1731 34.585 46.1327 30.6255 50.9998 30.6255C55.8668 30.6254 59.8267 34.585 59.8267 39.4522Z" fill="white"/>
</svg>
