<svg width="181" height="45" viewBox="0 0 181 45" fill="none" xmlns="http://www.w3.org/2000/svg">
<g clip-path="url(#clip0_263:5389)">
<path fill-rule="evenodd" clip-rule="evenodd" d="M18.1134 10.0664C17.8791 10.0956 17.727 10.1819 17.727 10.2857C17.727 10.38 17.6467 10.457 17.5486 10.457C17.4505 10.457 17.3703 10.5374 17.3703 10.6358C17.3703 10.7341 17.2901 10.8146 17.192 10.8146C17.0731 10.8146 17.0136 10.9337 17.0136 11.1721C17.0136 11.4105 16.9542 11.5297 16.8353 11.5297C16.7164 11.5297 16.6569 11.6489 16.6569 11.8872C16.6569 12.1256 16.5975 12.2448 16.4786 12.2448C16.3597 12.2448 16.3003 12.364 16.3003 12.6023C16.3003 12.8407 16.2408 12.9599 16.1219 12.9599C15.9973 12.9599 15.9436 13.0857 15.9436 13.377C15.9436 13.6683 15.8898 13.7942 15.7652 13.7942C15.6362 13.7942 15.5869 13.9271 15.5869 14.2747C15.5869 14.5918 15.5263 14.7784 15.4086 14.8237C15.3063 14.863 15.2302 15.041 15.2302 15.2409C15.2302 15.4407 15.1541 15.6187 15.0519 15.658C14.9516 15.6966 14.8735 15.874 14.8735 16.063C14.8735 16.2479 14.7927 16.4803 14.6938 16.5793C14.595 16.6784 14.4808 17.004 14.4399 17.3029C14.399 17.6019 14.3252 17.8465 14.2757 17.8465C14.2263 17.8465 14.1491 17.9935 14.1041 18.173C14.0592 18.3527 13.9712 18.5314 13.9087 18.5701C13.8462 18.6088 13.7618 18.8507 13.7214 19.1076C13.6809 19.3645 13.6006 19.6058 13.5431 19.644C13.4854 19.682 13.4054 19.9233 13.3651 20.1803C13.3248 20.4372 13.2197 20.6903 13.1315 20.7427C13.0353 20.7999 12.9712 21.05 12.9712 21.3684C12.9712 21.7605 12.9247 21.8988 12.7929 21.8988C12.6608 21.8988 12.6146 22.0379 12.6146 22.4352C12.6146 22.8324 12.5682 22.9715 12.4361 22.9715C12.3123 22.9715 12.2578 23.0964 12.2578 23.3802C12.2578 23.6049 12.1776 23.8692 12.0795 23.9675C11.9814 24.0659 11.9011 24.3073 11.9011 24.5039C11.9011 24.7006 11.8296 24.9332 11.7422 25.0208C11.6548 25.1084 11.5519 25.415 11.5135 25.7021C11.475 25.9891 11.3943 26.2564 11.334 26.2961C11.2738 26.3358 11.1915 26.5786 11.1509 26.8354C11.1105 27.0924 11.0244 27.3353 10.9598 27.3753C10.8952 27.4153 10.8049 27.6879 10.7591 27.9809C10.7135 28.2739 10.6289 28.5447 10.5711 28.5829C10.5133 28.6209 10.4328 28.8623 10.3923 29.1193C10.3519 29.3761 10.2667 29.6206 10.2031 29.6624C10.1396 29.7041 10.0602 30.36 10.0267 31.1198C9.97361 32.3252 9.99077 32.5108 10.1606 32.5761C10.2679 32.6174 10.3555 32.722 10.3555 32.8087C10.3555 33.0918 10.721 33.3407 11.1368 33.3407C11.4199 33.3407 11.5444 33.3953 11.5444 33.5195C11.5444 33.6178 11.6248 33.6983 11.7228 33.6983C11.8209 33.6983 11.9011 33.6178 11.9011 33.5195C11.9011 33.3871 12.0399 33.3407 12.4361 33.3407C12.8324 33.3407 12.9712 33.2943 12.9712 33.1619C12.9712 33.0636 13.0515 32.9831 13.1496 32.9831C13.2476 32.9831 13.3279 32.8797 13.3279 32.7532C13.3279 32.6269 13.4055 32.4456 13.5004 32.3505C13.5952 32.2554 13.708 32.0371 13.751 31.8653C13.7941 31.6935 13.8701 31.5529 13.92 31.5529C13.9698 31.5529 14.0455 31.2888 14.0883 30.9659C14.131 30.6432 14.2195 30.361 14.2848 30.3393C14.3501 30.3175 14.4373 30.0855 14.4785 29.8238C14.5198 29.562 14.6029 29.3154 14.6631 29.2758C14.7233 29.2361 14.804 28.9687 14.8425 28.6818C14.8809 28.3946 14.9839 28.0881 15.0712 28.0005C15.1586 27.9128 15.2302 27.6572 15.2302 27.4325C15.2302 27.1488 15.2847 27.0239 15.4086 27.0239C15.5274 27.0239 15.5869 26.9047 15.5869 26.6663C15.5869 26.4279 15.6463 26.3088 15.7652 26.3088C15.8633 26.3088 15.9436 26.2358 15.9436 26.1465C15.9436 25.9296 16.7968 25.8344 18.7507 25.833C20.6383 25.8318 21.4127 25.9229 21.4127 26.1461C21.4127 26.2355 21.493 26.3088 21.5911 26.3088C21.7254 26.3088 21.7694 26.4533 21.7694 26.8948C21.7694 27.2308 21.711 27.5002 21.6326 27.5264C21.5573 27.5516 21.4704 27.8779 21.4395 28.2515C21.3987 28.7442 21.3352 28.9308 21.2085 28.9308C21.0639 28.9308 21.0408 29.1323 21.0746 30.101C21.1135 31.2149 21.132 31.2866 21.4598 31.5909C21.6492 31.7666 21.8721 31.9104 21.9553 31.9104C22.0384 31.9104 22.1275 31.9745 22.1535 32.0528C22.2196 32.2516 23.5757 32.2577 23.6418 32.0594C23.6692 31.9775 23.7673 31.9104 23.8599 31.9104C23.9527 31.9104 24.0284 31.83 24.0284 31.7317C24.0284 31.6333 24.1086 31.5529 24.2067 31.5529C24.3048 31.5529 24.3851 31.4708 24.3851 31.3705C24.3851 31.27 24.4621 31.1583 24.5561 31.122C24.6502 31.0858 24.7615 30.8999 24.8033 30.7086C24.8453 30.5174 24.9218 30.361 24.9734 30.361C25.025 30.361 25.0969 30.1388 25.1333 29.8671C25.1696 29.5955 25.2543 29.3392 25.3216 29.2974C25.3889 29.2557 25.4801 28.9953 25.5242 28.7187C25.5683 28.442 25.6478 28.2157 25.7009 28.2157C25.7539 28.2157 25.8351 27.9627 25.8814 27.6534C25.9276 27.3442 26.038 27.0186 26.1264 26.9298C26.215 26.8411 26.2874 26.5891 26.2874 26.3698C26.2874 26.1504 26.3422 25.9527 26.4091 25.9303C26.4761 25.908 26.5644 25.6756 26.6055 25.4138C26.6466 25.1522 26.7523 24.8952 26.8405 24.8427C26.9367 24.7855 27.0007 24.5355 27.0007 24.217C27.0007 23.825 27.0472 23.6866 27.1791 23.6866C27.3112 23.6866 27.3574 23.5475 27.3574 23.1503C27.3574 22.753 27.4037 22.6139 27.5357 22.6139C27.6678 22.6139 27.7142 22.4749 27.7142 22.0776C27.7142 21.6804 27.7604 21.5413 27.8925 21.5413C28.0272 21.5413 28.0708 21.3956 28.0708 20.9454C28.0708 20.5206 28.1176 20.3494 28.2335 20.3494C28.3344 20.3494 28.4213 20.1617 28.4623 19.8555C28.4986 19.5839 28.5776 19.3291 28.638 19.2894C28.6981 19.2497 28.7812 19.0031 28.8225 18.7414C28.8637 18.4796 28.9505 18.2478 29.0154 18.2261C29.0802 18.2044 29.1678 18.0029 29.2098 17.7782C29.2518 17.5536 29.3331 17.3697 29.3904 17.3697C29.4478 17.3697 29.5289 17.1552 29.5708 16.893C29.6127 16.6308 29.6892 16.4163 29.741 16.4163C29.7929 16.4163 29.873 16.242 29.9191 16.0289C29.9653 15.816 30.0539 15.6091 30.1159 15.5694C30.1781 15.5297 30.2587 15.2748 30.295 15.0032C30.336 14.697 30.4229 14.5093 30.5238 14.5093C30.6305 14.5093 30.6865 14.3657 30.6865 14.0921C30.6865 13.8008 30.7402 13.675 30.8648 13.675C30.9936 13.675 31.0432 13.5426 31.0432 13.1983C31.0432 12.8539 30.9936 12.7215 30.8648 12.7215C30.7402 12.7215 30.6865 12.5957 30.6865 12.3044C30.6865 12.0131 30.6327 11.8872 30.5082 11.8872C30.4101 11.8872 30.3298 11.8067 30.3298 11.7084C30.3298 11.5893 30.2109 11.5297 29.9731 11.5297C29.7353 11.5297 29.6165 11.4701 29.6165 11.3509C29.6165 11.2159 29.4712 11.1721 29.022 11.1721C28.5728 11.1721 28.4275 11.2159 28.4275 11.3509C28.4275 11.4701 28.3086 11.5297 28.0708 11.5297C27.8331 11.5297 27.7142 11.5893 27.7142 11.7084C27.7142 11.8067 27.6339 11.8872 27.5357 11.8872C27.4377 11.8872 27.3574 11.9677 27.3574 12.066C27.3574 12.1643 27.2772 12.2448 27.1791 12.2448C27.081 12.2448 27.0007 12.3482 27.0007 12.4747C27.0007 12.601 26.9296 12.7759 26.8425 12.8631C26.7554 12.9505 26.6474 13.1688 26.6025 13.3484C26.5574 13.528 26.4681 13.675 26.404 13.675C26.3399 13.675 26.2874 13.8627 26.2874 14.0921C26.2874 14.3657 26.2314 14.5093 26.1248 14.5093C26.0238 14.5093 25.9369 14.697 25.8959 15.0032C25.8596 15.2748 25.7749 15.5312 25.7075 15.5729C25.6403 15.6146 25.5497 15.8717 25.5061 16.1443C25.4626 16.4169 25.3531 16.6683 25.2628 16.7031C25.1724 16.738 25.0984 16.9245 25.0984 17.1177C25.0984 17.311 25.0437 17.4874 24.9767 17.5098C24.9097 17.5321 24.8213 17.7645 24.78 18.0263C24.7388 18.2879 24.6557 18.5346 24.5955 18.5743C24.5353 18.614 24.4561 18.8687 24.4199 19.1404C24.3789 19.4466 24.2919 19.6343 24.1911 19.6343C24.0844 19.6343 24.0284 19.7779 24.0284 20.0515C24.0284 20.3428 23.9746 20.4686 23.8501 20.4686C23.7406 20.4686 23.6717 20.5802 23.6717 20.7572C23.6717 20.9808 23.5916 21.0632 23.315 21.1241C23.1188 21.1672 22.9584 21.2788 22.9584 21.3719C22.9584 21.5125 22.5557 21.5413 20.5805 21.5413C18.6351 21.5413 18.2025 21.5113 18.2025 21.3765C18.2025 21.2857 18.0891 21.1818 17.9505 21.1455C17.7187 21.0847 17.7024 21.0153 17.7485 20.2891C17.7762 19.8545 17.8546 19.4622 17.9229 19.4176C17.9912 19.3729 18.0863 19.176 18.1342 18.98C18.1822 18.784 18.2726 18.5919 18.3351 18.5532C18.3976 18.5144 18.4818 18.2726 18.5221 18.0157C18.5623 17.7588 18.6674 17.5056 18.7557 17.4532C18.8458 17.3995 18.9159 17.1575 18.9159 16.8998C18.9159 16.6027 18.9786 16.4177 19.0942 16.3731C19.1985 16.333 19.2726 16.1544 19.2726 15.9432C19.2726 15.7015 19.3317 15.582 19.4509 15.582C19.583 15.582 19.6293 15.4429 19.6293 15.0456C19.6293 14.6484 19.6756 14.5093 19.8076 14.5093C19.9397 14.5093 19.9859 14.3702 19.9859 13.973C19.9859 13.5757 20.0323 13.4366 20.1644 13.4366C20.2889 13.4366 20.3427 13.3108 20.3427 13.0195C20.3427 12.7282 20.3964 12.6023 20.521 12.6023C20.6598 12.6023 20.6994 12.4435 20.6994 11.8872C20.6994 11.3309 20.6598 11.1721 20.521 11.1721C20.4021 11.1721 20.3427 11.0529 20.3427 10.8146C20.3427 10.5762 20.2833 10.457 20.1644 10.457C20.0663 10.457 19.9859 10.3838 19.9859 10.2944C19.9859 10.1913 19.7841 10.104 19.4343 10.056C18.8769 9.97939 18.8087 9.97998 18.1134 10.0664ZM38.4146 10.2133C38.4146 10.2758 38.2274 10.3622 37.9985 10.4053C37.7601 10.45 37.5824 10.5542 37.5824 10.6489C37.5824 10.7447 37.4609 10.8146 37.2946 10.8146C37.0715 10.8146 36.9892 10.8948 36.9285 11.1721C36.8854 11.3687 36.7741 11.5297 36.6813 11.5297C36.5883 11.5297 36.5124 11.6139 36.5124 11.7169C36.5124 11.8199 36.432 11.9847 36.334 12.083C36.2359 12.1814 36.1557 12.4189 36.1557 12.6108C36.1557 12.8417 36.0953 12.9599 35.9773 12.9599C35.8527 12.9599 35.799 13.0857 35.799 13.377C35.799 13.6683 35.7452 13.7942 35.6207 13.7942C35.4886 13.7942 35.4423 13.9333 35.4423 14.3305C35.4423 14.7278 35.396 14.8669 35.2639 14.8669C35.1292 14.8669 35.0855 15.0125 35.0855 15.4628C35.0855 15.913 35.0419 16.0587 34.9072 16.0587C34.7703 16.0587 34.7289 16.211 34.7289 16.7142C34.7289 17.2174 34.6875 17.3697 34.5505 17.3697C34.4187 17.3697 34.3722 17.5082 34.3722 17.9001C34.3722 18.2222 34.3085 18.4681 34.2101 18.5258C34.1192 18.5793 34.0216 18.9025 33.9884 19.2597C33.9558 19.6108 33.8763 19.9326 33.8117 19.9748C33.7473 20.0169 33.6637 20.2871 33.6263 20.5751C33.5887 20.8633 33.5078 21.1314 33.4467 21.171C33.3854 21.2108 33.3083 21.5306 33.2755 21.8818C33.2426 22.2329 33.1614 22.5548 33.095 22.5969C33.0286 22.639 32.9346 22.9686 32.886 23.3291C32.8376 23.6896 32.744 24.0187 32.6784 24.0605C32.6127 24.1023 32.5315 24.5313 32.4979 25.014C32.4642 25.4966 32.3773 25.9297 32.3047 25.9764C32.2168 26.0329 32.1606 26.8996 32.1363 28.5699C32.1045 30.7522 32.1239 31.0877 32.2849 31.1497C32.3867 31.1888 32.4699 31.2914 32.4699 31.3777C32.4699 31.5829 33.1556 32.268 33.3609 32.268C33.4484 32.268 33.5427 32.335 33.5701 32.417C33.6331 32.6038 38.2767 32.6075 38.3976 32.4209C38.4397 32.3559 39.0348 32.2649 39.72 32.2186C40.4052 32.1721 40.9937 32.0892 41.0278 32.0344C41.0619 31.9796 41.3973 31.8962 41.7734 31.8492C42.1495 31.8023 42.457 31.7206 42.457 31.6678C42.457 31.615 42.6176 31.5365 42.8137 31.4933C43.0917 31.432 43.1705 31.3503 43.1705 31.1225C43.1705 30.9619 43.2507 30.7994 43.3488 30.7618C43.485 30.7093 43.5271 30.4852 43.5271 29.812C43.5271 29.1082 43.4912 28.9308 43.3488 28.9308C43.2507 28.9308 43.1705 28.8772 43.1705 28.8116C43.1705 28.7461 43.0501 28.5717 42.9029 28.4243C42.6443 28.1651 42.5716 28.1573 40.7331 28.1928C39.6862 28.2129 38.8129 28.2801 38.7912 28.3418C38.7374 28.494 36.9879 28.4873 36.9879 28.3349C36.9879 28.2694 36.9026 28.2157 36.7984 28.2157C36.6942 28.2157 36.5809 28.1084 36.5468 27.9773C36.5126 27.8462 36.4373 27.739 36.3795 27.739C36.3218 27.739 36.2746 27.4172 36.2746 27.0239C36.2746 26.6305 36.3203 26.3088 36.3763 26.3088C36.4323 26.3088 36.5141 25.9212 36.558 25.4475C36.6106 24.8796 36.6974 24.5528 36.8129 24.488C36.9092 24.4341 36.9879 24.3395 36.9879 24.278C36.9879 24.2164 37.08 24.0583 37.1927 23.9263C37.354 23.7375 37.5433 23.6866 38.0844 23.6866C38.4622 23.6866 38.7713 23.638 38.7713 23.5785C38.7713 23.5191 39.5203 23.4318 40.4358 23.3845C41.3513 23.3371 42.1003 23.2543 42.1003 23.2C42.1003 23.1459 42.2876 23.0663 42.5165 23.0232C42.7549 22.9784 42.9327 22.8743 42.9327 22.7795C42.9327 22.6884 43.0129 22.6139 43.111 22.6139C43.209 22.6139 43.2893 22.5335 43.2893 22.4352C43.2893 22.3368 43.3428 22.2564 43.4082 22.2564C43.4775 22.2564 43.5271 21.8591 43.5271 21.3029C43.5271 20.5349 43.4924 20.3494 43.3488 20.3494C43.2507 20.3494 43.1705 20.269 43.1705 20.1707C43.1705 20.0723 43.0901 19.9919 42.9921 19.9919C42.894 19.9919 42.8137 19.9114 42.8137 19.8131C42.8137 19.6812 42.6764 19.6343 42.2914 19.6343C41.9369 19.6343 41.7471 19.5769 41.7007 19.4555C41.6459 19.3123 41.3834 19.2768 40.3801 19.2768C39.3464 19.2768 39.128 19.2455 39.128 19.098C39.128 18.9997 39.0478 18.9192 38.9497 18.9192C38.8044 18.9192 38.7713 18.7205 38.7713 17.8465C38.7713 16.9726 38.8044 16.7738 38.9497 16.7738C39.0844 16.7738 39.128 16.6282 39.128 16.1779C39.128 15.7276 39.1716 15.582 39.3063 15.582C39.4384 15.582 39.4847 15.4429 39.4847 15.0456C39.4847 14.5888 39.5199 14.5093 39.7225 14.5093C39.8546 14.5093 39.9603 14.4298 39.9603 14.3305C39.9603 14.1815 40.198 14.1517 41.387 14.1517C42.6071 14.1517 42.8137 14.1789 42.8137 14.3397C42.8137 14.5037 43.0217 14.5228 44.4388 14.4887C45.6045 14.4608 46.0779 14.4076 46.1133 14.3007C46.1404 14.2189 46.3186 14.1517 46.5093 14.1517C46.7243 14.1517 46.8561 14.0894 46.8561 13.9879C46.8561 13.8978 47.009 13.7933 47.1958 13.7559C47.4946 13.696 47.5443 13.6225 47.6097 13.1451C47.7099 12.4118 47.5818 11.5297 47.375 11.5297C47.2859 11.5297 47.2128 11.4492 47.2128 11.3509C47.2128 11.2526 47.1326 11.1721 47.0345 11.1721C46.9364 11.1721 46.8561 11.0916 46.8561 10.9933C46.8561 10.8742 46.7372 10.8146 46.4995 10.8146C46.2778 10.8146 46.1428 10.7531 46.1428 10.6523C46.1428 10.5401 45.9149 10.4694 45.4026 10.4228C44.9956 10.3858 44.6433 10.2979 44.6199 10.2274C44.5647 10.0613 38.4146 10.0471 38.4146 10.2133ZM64.9281 10.9933C64.9281 11.0916 64.8482 11.1721 64.7494 11.1721C64.6514 11.1721 64.5716 11.2526 64.5716 11.3509C64.5716 11.4492 64.4909 11.5297 64.3929 11.5297C64.2949 11.5297 64.215 11.6101 64.215 11.7084C64.215 11.8067 64.1344 11.8872 64.0364 11.8872C63.9384 11.8872 63.8577 11.9677 63.8577 12.066C63.8577 12.1643 63.7779 12.2448 63.6799 12.2448C63.5818 12.2448 63.5012 12.3482 63.5012 12.4747C63.5012 12.601 63.4237 12.7823 63.3289 12.8774C63.234 12.9725 63.1225 13.1869 63.0807 13.3541C63.0388 13.521 62.9289 13.6868 62.8364 13.7222C62.7447 13.7577 62.6688 13.8688 62.6688 13.9692C62.6688 14.0696 62.6198 14.1517 62.5597 14.1517C62.4996 14.1517 62.415 14.3126 62.3716 14.5093C62.3289 14.706 62.2482 14.8669 62.1937 14.8669C62.1384 14.8669 62.0585 15.0278 62.015 15.2244C61.9724 15.4211 61.8901 15.582 61.8324 15.582C61.7755 15.582 61.6933 15.7697 61.6506 15.9991C61.6063 16.2381 61.502 16.4163 61.4071 16.4163C61.3036 16.4163 61.2427 16.5482 61.2427 16.7738C61.2427 17.0122 61.1826 17.1314 61.064 17.1314C60.9455 17.1314 60.8854 17.2505 60.8854 17.4889C60.8854 17.7273 60.8261 17.8465 60.7075 17.8465C60.5882 17.8465 60.5289 17.9657 60.5289 18.2041C60.5289 18.4425 60.4696 18.5617 60.351 18.5617C60.2316 18.5617 60.1724 18.6812 60.1724 18.9229C60.1724 19.134 60.098 19.3127 59.9937 19.3528C59.8941 19.3914 59.8158 19.5688 59.8158 19.7578C59.8158 19.9427 59.7423 20.1679 59.6522 20.2582C59.5621 20.3486 59.4506 20.5937 59.4048 20.8032C59.3589 21.0125 59.2759 21.1837 59.2214 21.1837C59.166 21.1837 59.0862 21.3446 59.0427 21.5413C59 21.738 58.921 21.8988 58.868 21.8988C58.815 21.8988 58.7344 22.0458 58.6893 22.2254C58.6443 22.4051 58.5542 22.585 58.4893 22.6254C58.4245 22.6658 58.3407 22.9211 58.3052 23.1928C58.264 23.4989 58.1771 23.6866 58.0759 23.6866C57.9747 23.6866 57.9131 23.8211 57.9131 24.0442C57.9131 24.2825 57.8538 24.4017 57.7352 24.4017C57.6356 24.4017 57.5565 24.5077 57.5565 24.6401C57.5565 24.7725 57.4775 24.8785 57.3787 24.8785C57.2799 24.8785 57.2 24.9321 57.2 24.9976C57.2 25.0633 57.1194 25.1168 57.0214 25.1168C56.9233 25.1168 56.8435 25.0675 56.8435 25.0071C56.8435 24.9468 56.683 24.8621 56.487 24.8189C56.1897 24.7535 56.1297 24.6822 56.1297 24.3924C56.1297 24.1772 56.068 24.0442 55.9676 24.0442C55.8664 24.0442 55.7795 23.8564 55.7384 23.5503C55.702 23.2787 55.6214 23.0238 55.5589 22.9842C55.4965 22.9445 55.4056 22.617 55.3573 22.2564C55.3083 21.8958 55.2206 21.57 55.1613 21.5323C55.102 21.4945 55.0198 21.1728 54.9795 20.8172C54.9384 20.4616 54.8546 20.138 54.7945 20.0979C54.7336 20.058 54.6538 19.6959 54.6174 19.2934C54.5716 18.7881 54.5012 18.5617 54.3897 18.5617C54.2767 18.5617 54.2277 18.3969 54.2277 18.0169C54.2277 17.6913 54.1558 17.3999 54.049 17.2931C53.9391 17.1826 53.8712 16.8901 53.8712 16.527C53.8712 16.0842 53.8269 15.9395 53.6925 15.9395C53.5605 15.9395 53.5139 15.8004 53.5139 15.4032C53.5139 15.0059 53.468 14.8669 53.336 14.8669C53.2166 14.8669 53.1573 14.7477 53.1573 14.5093C53.1573 14.2709 53.098 14.1517 52.9795 14.1517C52.8799 14.1517 52.8008 14.0458 52.8008 13.9134C52.8008 13.781 52.7218 13.675 52.6222 13.675C52.5241 13.675 52.4443 13.5946 52.4443 13.4962C52.4443 13.3979 52.3684 13.3174 52.2759 13.3174C52.1834 13.3174 52.0854 13.2505 52.0577 13.1685C52.0245 13.0673 51.7281 13.0195 51.136 13.0195C50.5447 13.0195 50.2482 13.0673 50.215 13.1685C50.1874 13.2505 50.0893 13.3174 49.9969 13.3174C49.9044 13.3174 49.8285 13.4247 49.8285 13.5558C49.8285 13.6882 49.7494 13.7942 49.6498 13.7942C49.5015 13.7942 49.4718 14.0326 49.4718 15.2244C49.4718 16.4163 49.5015 16.6546 49.6498 16.6546C49.785 16.6546 49.8285 16.8003 49.8285 17.2505C49.8285 17.7009 49.872 17.8465 50.0071 17.8465C50.1455 17.8465 50.185 18.0054 50.185 18.5617C50.185 19.0893 50.2285 19.2768 50.3486 19.2768C50.4617 19.2768 50.5297 19.4837 50.5676 19.9432C50.5976 20.3098 50.6767 20.645 50.7431 20.6881C50.8087 20.7313 50.8933 21.0022 50.9312 21.2903C50.9684 21.5784 51.049 21.8465 51.1091 21.8862C51.17 21.9259 51.253 22.3301 51.2941 22.7842C51.3352 23.2382 51.4182 23.6405 51.4783 23.6781C51.5384 23.7156 51.6269 24.068 51.6751 24.4613C51.7233 24.8547 51.8166 25.2111 51.8822 25.2531C51.9478 25.2953 52.0277 25.6171 52.0609 25.9682C52.0933 26.3195 52.1755 26.642 52.2419 26.6851C52.3091 26.7283 52.389 27.0748 52.4206 27.4554C52.4522 27.836 52.5502 28.2201 52.6395 28.3091C52.7415 28.412 52.8008 28.7506 52.8008 29.2373C52.8008 29.8389 52.8395 30.0035 52.9795 30.0035C53.1115 30.0035 53.1573 30.1426 53.1573 30.5398C53.1573 30.9371 53.204 31.0762 53.336 31.0762C53.4609 31.0762 53.5139 31.202 53.5139 31.4933C53.5139 31.7846 53.5676 31.9104 53.6925 31.9104C53.8356 31.9104 53.8712 32.0892 53.8712 32.8043C53.8712 33.5195 53.8356 33.6983 53.6925 33.6983C53.5605 33.6983 53.5139 33.8374 53.5139 34.2346C53.5139 34.6319 53.468 34.771 53.336 34.771C53.2111 34.771 53.1573 34.8968 53.1573 35.1881C53.1573 35.4794 53.1036 35.6053 52.9795 35.6053C52.8498 35.6053 52.8008 35.7382 52.8008 36.0857C52.8008 36.4029 52.7399 36.5895 52.6222 36.6347C52.521 36.6739 52.4443 36.8517 52.4443 37.0482C52.4443 37.2605 52.3818 37.393 52.2814 37.393C52.1803 37.393 52.0933 37.5808 52.053 37.887C52.0166 38.1585 51.9336 38.4139 51.868 38.4543C51.8032 38.4947 51.7107 38.6881 51.6625 38.884C51.6143 39.0801 51.5281 39.2715 51.4704 39.3097C51.4127 39.3477 51.3328 39.5891 51.2917 39.846C51.2514 40.1028 51.1692 40.3456 51.1091 40.3853C51.049 40.425 50.97 40.6798 50.9336 40.9515C50.8972 41.2231 50.8206 41.4454 50.7637 41.4454C50.7075 41.4454 50.6609 41.6867 50.6609 41.9817C50.6609 42.2767 50.7146 42.5181 50.7795 42.5181C50.8451 42.5181 50.8988 42.6215 50.8988 42.748C50.8988 42.8743 50.9684 43.0487 51.0538 43.1353C51.1391 43.2218 51.2443 43.3867 51.2878 43.5013C51.3391 43.6367 51.4933 43.7099 51.7273 43.7099C51.9684 43.7099 52.0878 43.7691 52.0878 43.8887C52.0878 44.1332 53.0182 44.1398 53.1115 43.896C53.1478 43.8017 53.3336 43.6901 53.5241 43.6482C53.7146 43.6061 53.8712 43.4956 53.8712 43.4025C53.8712 43.3093 53.951 43.2332 54.049 43.2332C54.1605 43.2332 54.2277 43.1202 54.2277 42.9315C54.2277 42.7655 54.3044 42.6002 54.3984 42.5639C54.4925 42.5277 54.604 42.3417 54.6459 42.1504C54.6878 41.9593 54.7668 41.803 54.8221 41.803C54.8775 41.803 54.9573 41.642 55.0008 41.4454C55.0435 41.2487 55.1233 41.0878 55.1787 41.0878C55.234 41.0878 55.3162 40.9165 55.3621 40.7072C55.4079 40.4979 55.5194 40.2527 55.6095 40.1623C55.6996 40.072 55.7731 39.8467 55.7731 39.6618C55.7731 39.4728 55.8514 39.2955 55.9518 39.2569C56.0561 39.2168 56.1297 39.0382 56.1297 38.827C56.1297 38.5853 56.189 38.4657 56.3083 38.4657C56.4261 38.4657 56.487 38.3476 56.487 38.118C56.487 37.9269 56.5439 37.7515 56.6135 37.7282C56.683 37.7049 56.77 37.459 56.8071 37.1818C56.849 36.8679 56.936 36.6779 57.0372 36.6779C57.1384 36.6779 57.2 36.5434 57.2 36.3204C57.2 36.082 57.2593 35.9628 57.3787 35.9628C57.5028 35.9628 57.5565 35.837 57.5565 35.5457C57.5565 35.2721 57.6127 35.1285 57.7194 35.1285C57.8206 35.1285 57.9075 34.9385 57.9494 34.6246C57.9866 34.3473 58.0735 34.1015 58.1431 34.0782C58.2135 34.055 58.2704 33.8795 58.2704 33.6884C58.2704 33.4736 58.332 33.3407 58.4324 33.3407C58.5336 33.3407 58.6206 33.153 58.6617 32.8468C58.698 32.5752 58.781 32.3199 58.8459 32.2795C58.9115 32.2391 59.0016 32.0591 59.0467 31.8795C59.0909 31.6999 59.1716 31.5529 59.2245 31.5529C59.2775 31.5529 59.3589 31.3816 59.4048 31.1724C59.4506 30.9629 59.5621 30.7178 59.6522 30.6275C59.7423 30.5371 59.8158 30.2793 59.8158 30.0546C59.8158 29.7708 59.8704 29.6459 59.9937 29.6459C60.1131 29.6459 60.1724 29.5268 60.1724 29.2884C60.1724 29.05 60.2316 28.9308 60.351 28.9308C60.4751 28.9308 60.5289 28.805 60.5289 28.5137C60.5289 28.2224 60.5826 28.0965 60.7075 28.0965C60.8364 28.0965 60.8854 27.9641 60.8854 27.6198C60.8854 27.2755 60.9352 27.1431 61.064 27.1431C61.1889 27.1431 61.2427 27.0171 61.2427 26.7259C61.2427 26.4346 61.2965 26.3088 61.4206 26.3088C61.5399 26.3088 61.5992 26.1896 61.5992 25.9512C61.5992 25.7128 61.6585 25.5936 61.7771 25.5936C61.8965 25.5936 61.9557 25.4741 61.9557 25.2324C61.9557 25.0335 62.0301 24.8426 62.1202 24.8079C62.2103 24.773 62.3178 24.5333 62.3589 24.2752C62.4008 24.017 62.4846 23.8058 62.5463 23.8058C62.6079 23.8058 62.6933 23.6181 62.7368 23.3887C62.7795 23.1592 62.8577 22.9715 62.9107 22.9715C62.9636 22.9715 63.0419 22.8106 63.0854 22.6139C63.1281 22.4173 63.2087 22.2564 63.2633 22.2564C63.3186 22.2564 63.4008 22.0851 63.4467 21.8759C63.4925 21.6664 63.604 21.4212 63.6941 21.3309C63.7842 21.2405 63.8577 21.0863 63.8577 20.9879C63.8577 20.8896 63.9384 20.7287 64.0364 20.6304C64.1344 20.532 64.215 20.2944 64.215 20.1026C64.215 19.8717 64.2751 19.7535 64.3929 19.7535C64.5178 19.7535 64.5716 19.6276 64.5716 19.3364C64.5716 19.0451 64.6253 18.9192 64.7494 18.9192C64.8482 18.9192 64.9281 18.8157 64.9281 18.6892C64.9281 18.5629 64.9992 18.3881 65.0862 18.3009C65.1731 18.2135 65.2814 17.9951 65.3265 17.8155C65.3716 17.6359 65.4609 17.4889 65.5249 17.4889C65.5889 17.4889 65.6411 17.3855 65.6411 17.259C65.6411 17.1327 65.7154 16.9554 65.8055 16.865C65.8957 16.7747 66.0063 16.5295 66.053 16.3201C66.098 16.1108 66.181 15.9395 66.2356 15.9395C66.2909 15.9395 66.3716 15.7786 66.4142 15.582C66.4577 15.3854 66.5684 15.2244 66.6617 15.2244C66.7692 15.2244 66.8301 15.0977 66.8301 14.8768C66.8301 14.6855 66.8854 14.5109 66.9518 14.4885C67.019 14.4662 67.1075 14.2338 67.1486 13.972C67.1897 13.7103 67.2799 13.4598 67.3478 13.4152C67.5297 13.2961 67.5194 11.9786 67.336 11.9171C67.2538 11.8897 67.1874 11.7913 67.1874 11.6985C67.1874 11.6057 67.1067 11.5297 67.0087 11.5297C66.9107 11.5297 66.8301 11.4492 66.8301 11.3509C66.8301 11.2516 66.7249 11.1721 66.5929 11.1721C66.4609 11.1721 66.355 11.0926 66.355 10.9933C66.355 10.8542 66.1961 10.8146 65.6411 10.8146C65.087 10.8146 64.9281 10.8542 64.9281 10.9933ZM75.985 10.9933C75.985 11.1125 75.8664 11.1721 75.6285 11.1721C75.3905 11.1721 75.2719 11.2317 75.2719 11.3509C75.2719 11.4492 75.1913 11.5297 75.0933 11.5297C74.9953 11.5297 74.9154 11.6101 74.9154 11.7084C74.9154 11.8067 74.8395 11.8872 74.7463 11.8872C74.6538 11.8872 74.5423 12.0481 74.4988 12.2448C74.4561 12.4414 74.3755 12.6023 74.321 12.6023C74.2656 12.6023 74.1858 12.7632 74.1423 12.9599C74.0996 13.1565 74.019 13.3174 73.9644 13.3174C73.9091 13.3174 73.8261 13.4918 73.7803 13.7048C73.7344 13.9178 73.6459 14.1247 73.5834 14.1643C73.521 14.204 73.4403 14.4589 73.4048 14.7305C73.3637 15.0367 73.2767 15.2244 73.1755 15.2244C73.0735 15.2244 73.0127 15.3602 73.0127 15.5904C73.0127 15.7919 72.9328 16.0371 72.8348 16.1353C72.7368 16.2337 72.6561 16.4751 72.6561 16.6717C72.6561 16.8683 72.5763 17.1097 72.4783 17.208C72.3795 17.3063 72.2996 17.5707 72.2996 17.7954C72.2996 18.0791 72.2451 18.2041 72.121 18.2041C71.9889 18.2041 71.9431 18.3432 71.9431 18.7404C71.9431 19.1376 71.8965 19.2768 71.7644 19.2768C71.6324 19.2768 71.5866 19.4162 71.5866 19.8167C71.5866 20.187 71.5304 20.3785 71.4079 20.4254C71.2925 20.47 71.2293 20.655 71.2293 20.9522C71.2293 21.2098 71.1597 21.4519 71.0696 21.5055C70.981 21.558 70.8759 21.8111 70.8356 22.0679C70.7953 22.3249 70.7154 22.5663 70.6577 22.6043C70.6 22.6425 70.5202 22.8838 70.4791 23.1406C70.4387 23.3976 70.3526 23.6405 70.2878 23.6806C70.2237 23.7206 70.1352 23.9764 70.0917 24.2489C70.0482 24.5215 69.9384 24.773 69.8482 24.8079C69.7471 24.8468 69.6838 25.0507 69.6838 25.3388C69.6838 25.6445 69.6222 25.8302 69.5052 25.8751C69.3834 25.9221 69.3273 26.1137 69.3273 26.4838C69.3273 26.8844 69.2814 27.0239 69.1486 27.0239C69.0166 27.0239 68.9708 27.1639 68.9708 27.5687C68.9708 27.8941 68.8988 28.1855 68.7921 28.2923C68.6498 28.4348 68.6135 28.8211 68.6135 30.1908C68.6135 31.6399 68.6419 31.9104 68.7921 31.9104C68.8901 31.9104 68.9708 31.991 68.9708 32.0892C68.9708 32.1876 69.0506 32.268 69.1486 32.268C69.2467 32.268 69.3273 32.3485 69.3273 32.4468C69.3273 32.5648 69.4451 32.6256 69.6743 32.6256C69.8648 32.6256 70.0427 32.6927 70.0704 32.7745C70.1368 32.974 75.1178 32.991 75.2467 32.7924C75.2933 32.7201 75.7044 32.6236 76.1605 32.5777C76.6166 32.5319 77.019 32.446 77.0554 32.3867C77.0917 32.3276 77.3478 32.243 77.6237 32.1988C77.8996 32.1546 78.1257 32.074 78.1257 32.0199C78.1257 31.9657 78.3123 31.886 78.5415 31.843C78.7708 31.8 78.9573 31.7213 78.9573 31.6683C78.9573 31.6153 79.1178 31.5365 79.3146 31.4933C79.5107 31.4502 79.6712 31.3386 79.6712 31.2455C79.6712 31.1369 79.7992 31.0762 80.0277 31.0762C80.2656 31.0762 80.3842 31.0166 80.3842 30.8974C80.3842 30.7981 80.4901 30.7186 80.6222 30.7186C80.7542 30.7186 80.8601 30.6391 80.8601 30.5398C80.8601 30.4286 80.9724 30.361 81.1573 30.361C81.3423 30.361 81.4546 30.2935 81.4546 30.1823C81.4546 30.083 81.5605 30.0035 81.6925 30.0035C81.8245 30.0035 81.9297 29.924 81.9297 29.8247C81.9297 29.7264 82.0103 29.6459 82.1083 29.6459C82.2063 29.6459 82.287 29.5655 82.287 29.4672C82.287 29.3688 82.3668 29.2884 82.4648 29.2884C82.5629 29.2884 82.6435 29.2079 82.6435 29.1096C82.6435 29.0113 82.7233 28.9308 82.8214 28.9308C82.9202 28.9308 83 28.8504 83 28.7521C83 28.6537 83.0807 28.5733 83.1787 28.5733C83.2767 28.5733 83.3565 28.4928 83.3565 28.3945C83.3565 28.2962 83.4166 28.2157 83.4893 28.2157C83.6625 28.2157 84.5455 27.3304 84.5455 27.1571C84.5455 27.0838 84.6261 27.0239 84.7241 27.0239C84.8222 27.0239 84.9028 26.9434 84.9028 26.8451C84.9028 26.7467 84.9518 26.6663 85.0119 26.6663C85.072 26.6663 85.1565 26.5054 85.2 26.3088C85.2427 26.1121 85.3542 25.9512 85.4467 25.9512C85.5399 25.9512 85.6158 25.8707 85.6158 25.7724C85.6158 25.6741 85.6648 25.5936 85.7249 25.5936C85.7858 25.5936 85.8719 25.4223 85.9178 25.213C85.9636 25.0037 86.0751 24.7585 86.1652 24.6681C86.2553 24.5778 86.3289 24.2721 86.3289 23.9889C86.3289 23.641 86.3874 23.4515 86.5075 23.4051C86.6546 23.3487 86.6862 23.0417 86.6862 21.6728C86.6862 20.3526 86.649 19.972 86.5075 19.8301C86.4008 19.7233 86.3289 19.4319 86.3289 19.1064C86.3289 18.7017 86.283 18.5617 86.151 18.5617C86.0316 18.5617 85.9723 18.4421 85.9723 18.2004C85.9723 17.9892 85.898 17.8105 85.7945 17.7705C85.6957 17.7327 85.6158 17.5718 85.6158 17.4129C85.6158 17.254 85.5384 17.0944 85.4443 17.0581C85.351 17.0218 85.2395 16.8359 85.1976 16.6446C85.1557 16.4535 85.072 16.2971 85.0119 16.2971C84.9518 16.2971 84.9028 16.2162 84.9028 16.1171C84.9028 16.0182 84.7953 15.8454 84.6648 15.7331C84.5336 15.6208 84.4269 15.4606 84.4269 15.3767C84.4269 15.293 84.3463 15.2244 84.2482 15.2244C84.1502 15.2244 84.0704 15.144 84.0704 15.0456C84.0704 14.9473 83.9897 14.8669 83.8917 14.8669C83.7937 14.8669 83.7131 14.7864 83.7131 14.6881C83.7131 14.5897 83.6332 14.5093 83.5352 14.5093C83.4372 14.5093 83.3565 14.4289 83.3565 14.3305C83.3565 14.2322 83.2767 14.1517 83.1787 14.1517C83.0807 14.1517 83 14.0713 83 13.973C83 13.8746 82.9202 13.7942 82.8214 13.7942C82.7233 13.7942 82.6435 13.7138 82.6435 13.6154C82.6435 13.5171 82.5747 13.4366 82.4917 13.4366C82.4079 13.4366 82.2482 13.3293 82.136 13.1983C82.0237 13.0671 81.8514 12.9599 81.7526 12.9599C81.6538 12.9599 81.5731 12.9105 81.5731 12.8501C81.5731 12.7898 81.4174 12.7061 81.2269 12.6641C81.0356 12.6221 80.8506 12.5106 80.8142 12.4163C80.7779 12.322 80.6712 12.2448 80.5763 12.2448C80.4814 12.2448 80.385 12.1876 80.3621 12.1178C80.3391 12.0481 80.0933 11.9606 79.8174 11.9234C79.5036 11.8813 79.3146 11.7944 79.3146 11.6927C79.3146 11.591 79.1803 11.5297 78.9573 11.5297C78.7202 11.5297 78.6008 11.4701 78.6008 11.3509C78.6008 11.2117 78.4427 11.1721 77.8878 11.1721C77.3328 11.1721 77.1739 11.1324 77.1739 10.9933C77.1739 10.8583 77.0293 10.8146 76.5795 10.8146C76.1305 10.8146 75.985 10.8583 75.985 10.9933ZM103.212 10.9933C103.212 11.1125 103.093 11.1721 102.855 11.1721C102.617 11.1721 102.499 11.2317 102.499 11.3509C102.499 11.4492 102.418 11.5297 102.32 11.5297C102.222 11.5297 102.142 11.6101 102.142 11.7084C102.142 11.8067 102.062 11.8872 101.964 11.8872C101.866 11.8872 101.786 11.9677 101.786 12.066C101.786 12.1643 101.705 12.2448 101.607 12.2448C101.509 12.2448 101.428 12.3252 101.428 12.4236C101.428 12.5219 101.349 12.6023 101.251 12.6023C101.153 12.6023 101.072 12.6828 101.072 12.7811C101.072 12.8795 100.992 12.9599 100.894 12.9599C100.795 12.9599 100.715 13.042 100.715 13.1423C100.715 13.2428 100.635 13.3558 100.537 13.3934C100.439 13.4312 100.359 13.5369 100.359 13.6282C100.359 13.7195 100.278 13.7942 100.18 13.7942C100.082 13.7942 100.002 13.8746 100.002 13.973C100.002 14.0713 99.9257 14.1517 99.8332 14.1517C99.7399 14.1517 99.6293 14.3126 99.5858 14.5093C99.5431 14.706 99.4316 14.8669 99.3384 14.8669C99.2459 14.8669 99.17 14.9473 99.17 15.0456C99.17 15.144 99.0893 15.2244 98.9913 15.2244C98.8933 15.2244 98.8127 15.3048 98.8127 15.4032C98.8127 15.5015 98.7328 15.582 98.6348 15.582C98.536 15.582 98.4561 15.6879 98.4561 15.8203C98.4561 15.9527 98.3771 16.0587 98.2783 16.0587C98.1668 16.0587 98.0996 16.1712 98.0996 16.3567C98.0996 16.5422 98.0324 16.6546 97.921 16.6546C97.8222 16.6546 97.7431 16.7606 97.7431 16.893C97.7431 17.0254 97.664 17.1314 97.5644 17.1314C97.4664 17.1314 97.3866 17.2119 97.3866 17.3101C97.3866 17.4085 97.3059 17.4889 97.2079 17.4889C97.0893 17.4889 97.0293 17.6081 97.0293 17.8465C97.0293 18.0849 96.97 18.2041 96.8514 18.2041C96.7534 18.2041 96.6728 18.2845 96.6728 18.3829C96.6728 18.4811 96.5968 18.5617 96.5044 18.5617C96.4111 18.5617 96.2996 18.7225 96.2569 18.9192C96.2135 19.1158 96.1028 19.2768 96.0095 19.2768C95.917 19.2768 95.8403 19.3515 95.8403 19.4428C95.8403 19.5341 95.7605 19.6396 95.6625 19.6774C95.5644 19.7151 95.4838 19.8817 95.4838 20.0477C95.4838 20.2364 95.4174 20.3494 95.3059 20.3494C95.2063 20.3494 95.1273 20.4554 95.1273 20.5878C95.1273 20.7202 95.0482 20.8262 94.9486 20.8262C94.8301 20.8262 94.7708 20.9454 94.7708 21.1837C94.7708 21.4221 94.7115 21.5413 94.5921 21.5413C94.4941 21.5413 94.4142 21.6217 94.4142 21.7201C94.4142 21.8184 94.3336 21.8988 94.2356 21.8988C94.117 21.8988 94.0569 22.018 94.0569 22.2564C94.0569 22.4948 93.9976 22.6139 93.8791 22.6139C93.7597 22.6139 93.7004 22.7331 93.7004 22.9715C93.7004 23.2099 93.6411 23.3291 93.5226 23.3291C93.4245 23.3291 93.3439 23.4112 93.3439 23.5116C93.3439 23.612 93.2633 23.725 93.1652 23.7627C93.0672 23.8005 92.9874 23.9614 92.9874 24.1202C92.9874 24.2792 92.9099 24.4388 92.8158 24.475C92.7217 24.5113 92.6111 24.6972 92.5692 24.8885C92.5273 25.0797 92.4166 25.236 92.3241 25.236C92.2308 25.236 92.155 25.3165 92.155 25.4148C92.155 25.5131 92.1059 25.5936 92.0451 25.5936C91.985 25.5936 91.9004 25.7545 91.8577 25.9512C91.815 26.1478 91.7036 26.3088 91.6103 26.3088C91.502 26.3088 91.4419 26.4368 91.4419 26.6663C91.4419 26.9047 91.3818 27.0239 91.2633 27.0239C91.1447 27.0239 91.0846 27.1431 91.0846 27.3814C91.0846 27.6198 91.0253 27.739 90.9067 27.739C90.8079 27.739 90.7281 27.8449 90.7281 27.9773C90.7281 28.1098 90.649 28.2157 90.5502 28.2157C90.4388 28.2157 90.3716 28.3287 90.3716 28.5174C90.3716 28.6834 90.2965 28.8481 90.204 28.8836C90.1115 28.919 90.004 29.0782 89.9637 29.2373C89.9241 29.3966 89.8387 29.5268 89.7747 29.5268C89.7107 29.5268 89.6585 29.6341 89.6585 29.7651C89.6585 29.8962 89.585 30.0035 89.4957 30.0035C89.3945 30.0035 89.3075 30.1934 89.2656 30.5074C89.2285 30.7846 89.1407 31.0305 89.0712 31.0537C88.8648 31.1229 88.9115 32.4679 89.1233 32.5496C89.2214 32.5872 89.3012 32.7002 89.3012 32.8007C89.3012 32.901 89.3818 32.9831 89.4799 32.9831C89.5779 32.9831 89.6585 33.0636 89.6585 33.1619C89.6585 33.2812 89.7771 33.3407 90.015 33.3407C90.253 33.3407 90.3716 33.4003 90.3716 33.5195C90.3716 33.6519 90.5099 33.6983 90.9067 33.6983C91.3028 33.6983 91.4419 33.6519 91.4419 33.5195C91.4419 33.4003 91.5605 33.3407 91.7984 33.3407C92.0395 33.3407 92.155 33.2815 92.155 33.1582C92.155 33.0578 92.2356 32.9448 92.3336 32.9071C92.4316 32.8693 92.5115 32.7633 92.5115 32.6712C92.5115 32.5794 92.619 32.4122 92.7494 32.2999C92.8799 32.1877 92.9874 32.0274 92.9874 31.9436C92.9874 31.8598 93.0672 31.7913 93.1652 31.7913C93.2743 31.7913 93.3439 31.6801 93.3439 31.5061C93.3439 31.3492 93.4245 31.19 93.5226 31.1522C93.6206 31.1146 93.7004 31.0016 93.7004 30.9011C93.7004 30.8007 93.781 30.7186 93.8791 30.7186C93.9976 30.7186 94.0569 30.5994 94.0569 30.361C94.0569 30.1227 94.117 30.0035 94.2356 30.0035C94.3336 30.0035 94.4142 29.9231 94.4142 29.8247C94.4142 29.7264 94.4941 29.6459 94.5921 29.6459C94.7115 29.6459 94.7708 29.5268 94.7708 29.2884C94.7708 29.05 94.8301 28.9308 94.9486 28.9308C95.0475 28.9308 95.1273 28.8504 95.1273 28.7521C95.1273 28.6537 95.2095 28.5733 95.3091 28.5733C95.4095 28.5733 95.5225 28.4928 95.5597 28.3945C95.6158 28.2479 95.9146 28.2157 97.2206 28.2157C98.0965 28.2157 98.8127 28.2629 98.8127 28.3206C98.8127 28.3783 99.121 28.4477 99.4965 28.4751C99.9431 28.5073 100.273 28.6041 100.448 28.7542C100.698 28.9692 100.715 29.077 100.715 30.4471C100.715 31.2923 100.763 31.9104 100.828 31.9104C100.89 31.9104 100.978 32.2323 101.022 32.6256C101.077 33.1124 101.155 33.3407 101.266 33.3407C101.356 33.3407 101.428 33.4212 101.428 33.5195C101.428 33.6178 101.509 33.6983 101.607 33.6983C101.705 33.6983 101.786 33.7787 101.786 33.8771C101.786 34.02 101.964 34.0559 102.677 34.0559C103.391 34.0559 103.569 34.02 103.569 33.8771C103.569 33.7778 103.674 33.6983 103.806 33.6983C103.938 33.6983 104.044 33.6187 104.044 33.5195C104.044 33.4212 104.125 33.3407 104.223 33.3407C104.341 33.3407 104.401 33.2226 104.401 32.993C104.401 32.8019 104.468 32.6231 104.549 32.5958C104.65 32.5624 104.712 32.1904 104.74 31.4536C104.772 30.6162 104.821 30.361 104.948 30.361C105.079 30.361 105.115 30.1201 105.115 29.2288C105.115 28.3018 105.147 28.0965 105.293 28.0965C105.443 28.0965 105.471 27.8383 105.471 26.4875C105.471 25.1756 105.503 24.8785 105.64 24.8785C105.776 24.8785 105.817 24.5624 105.848 23.2649C105.874 22.1933 105.934 21.6222 106.028 21.5647C106.123 21.5056 106.179 20.8579 106.206 19.5231C106.234 18.0931 106.284 17.5548 106.393 17.5186C106.505 17.481 106.542 16.8408 106.542 14.8569C106.542 12.6145 106.516 12.2448 106.363 12.2448C106.244 12.2448 106.184 12.1256 106.184 11.8872C106.184 11.6489 106.125 11.5297 106.006 11.5297C105.908 11.5297 105.828 11.4492 105.828 11.3509C105.828 11.2526 105.748 11.1721 105.65 11.1721C105.551 11.1721 105.471 11.0916 105.471 10.9933C105.471 10.847 105.266 10.8146 104.342 10.8146C103.417 10.8146 103.212 10.847 103.212 10.9933ZM116.885 10.9933C116.885 11.1125 116.766 11.1721 116.528 11.1721C116.291 11.1721 116.172 11.2317 116.172 11.3509C116.172 11.4492 116.092 11.5297 115.994 11.5297C115.895 11.5297 115.815 11.6101 115.815 11.7084C115.815 11.8067 115.739 11.8872 115.646 11.8872C115.553 11.8872 115.442 12.0481 115.399 12.2448C115.356 12.4414 115.276 12.6023 115.221 12.6023C115.165 12.6023 115.085 12.7632 115.042 12.9599C114.999 13.1565 114.919 13.3174 114.864 13.3174C114.809 13.3174 114.727 13.4918 114.68 13.7048C114.634 13.9178 114.545 14.1247 114.483 14.1643C114.421 14.204 114.341 14.4589 114.304 14.7305C114.263 15.0367 114.176 15.2244 114.075 15.2244C113.973 15.2244 113.912 15.3602 113.912 15.5904C113.912 15.7919 113.832 16.0371 113.734 16.1353C113.636 16.2337 113.556 16.4751 113.556 16.6717C113.556 16.8683 113.476 17.1097 113.378 17.208C113.28 17.3063 113.199 17.5707 113.199 17.7954C113.199 18.0791 113.145 18.2041 113.021 18.2041C112.889 18.2041 112.843 18.3432 112.843 18.7404C112.843 19.1376 112.796 19.2768 112.664 19.2768C112.532 19.2768 112.486 19.4162 112.486 19.8167C112.486 20.187 112.43 20.3785 112.308 20.4254C112.192 20.47 112.129 20.655 112.129 20.9522C112.129 21.2098 112.059 21.4519 111.969 21.5055C111.881 21.558 111.776 21.8111 111.735 22.0679C111.695 22.3249 111.615 22.5663 111.557 22.6043C111.5 22.6425 111.42 22.8838 111.379 23.1406C111.338 23.3976 111.252 23.6405 111.188 23.6806C111.123 23.7206 111.035 23.9764 110.991 24.2489C110.948 24.5215 110.838 24.773 110.748 24.8079C110.647 24.8468 110.583 25.0507 110.583 25.3388C110.583 25.6445 110.522 25.8302 110.406 25.8751C110.283 25.9221 110.227 26.1137 110.227 26.4838C110.227 26.8844 110.181 27.0239 110.048 27.0239C109.916 27.0239 109.87 27.1639 109.87 27.5687C109.87 27.8941 109.798 28.1855 109.692 28.2923C109.55 28.4348 109.514 28.8211 109.514 30.1908C109.514 31.6399 109.542 31.9104 109.692 31.9104C109.79 31.9104 109.87 31.991 109.87 32.0892C109.87 32.1876 109.95 32.268 110.048 32.268C110.147 32.268 110.227 32.3485 110.227 32.4468C110.227 32.5648 110.345 32.6256 110.574 32.6256C110.764 32.6256 110.943 32.6927 110.97 32.7745C111.036 32.974 116.017 32.991 116.146 32.7924C116.193 32.7201 116.604 32.6236 117.06 32.5777C117.516 32.5319 117.919 32.446 117.955 32.3867C117.992 32.3276 118.247 32.243 118.523 32.1988C118.799 32.1546 119.025 32.074 119.025 32.0199C119.025 31.9657 119.213 31.886 119.441 31.843C119.67 31.8 119.858 31.7213 119.858 31.6683C119.858 31.6153 120.018 31.5365 120.214 31.4933C120.41 31.4502 120.571 31.3386 120.571 31.2455C120.571 31.1369 120.699 31.0762 120.927 31.0762C121.165 31.0762 121.284 31.0166 121.284 30.8974C121.284 30.7981 121.39 30.7186 121.522 30.7186C121.654 30.7186 121.76 30.6391 121.76 30.5398C121.76 30.4286 121.872 30.361 122.057 30.361C122.242 30.361 122.354 30.2935 122.354 30.1823C122.354 30.083 122.46 30.0035 122.592 30.0035C122.724 30.0035 122.83 29.924 122.83 29.8247C122.83 29.7264 122.91 29.6459 123.008 29.6459C123.106 29.6459 123.187 29.5655 123.187 29.4672C123.187 29.3688 123.266 29.2884 123.364 29.2884C123.462 29.2884 123.543 29.2079 123.543 29.1096C123.543 29.0113 123.624 28.9308 123.722 28.9308C123.82 28.9308 123.9 28.8504 123.9 28.7521C123.9 28.6537 123.98 28.5733 124.078 28.5733C124.176 28.5733 124.256 28.4928 124.256 28.3945C124.256 28.2962 124.316 28.2157 124.39 28.2157C124.562 28.2157 125.445 27.3304 125.445 27.1571C125.445 27.0838 125.499 27.0239 125.564 27.0239C125.63 27.0239 125.683 26.9434 125.683 26.8451C125.683 26.7467 125.759 26.6663 125.852 26.6663C125.945 26.6663 126.056 26.5054 126.1 26.3088C126.142 26.1121 126.254 25.9512 126.346 25.9512C126.44 25.9512 126.515 25.8707 126.515 25.7724C126.515 25.6741 126.564 25.5936 126.625 25.5936C126.685 25.5936 126.772 25.4223 126.817 25.213C126.863 25.0037 126.975 24.7585 127.065 24.6681C127.155 24.5778 127.228 24.2721 127.228 23.9889C127.228 23.641 127.287 23.4515 127.407 23.4051C127.554 23.3487 127.586 23.0417 127.586 21.6728C127.586 20.3526 127.549 19.972 127.407 19.8301C127.3 19.7233 127.228 19.4319 127.228 19.1064C127.228 18.7017 127.183 18.5617 127.051 18.5617C126.931 18.5617 126.872 18.4421 126.872 18.2004C126.872 17.9892 126.798 17.8105 126.694 17.7705C126.596 17.7327 126.515 17.5718 126.515 17.4129C126.515 17.254 126.439 17.0944 126.345 17.0581C126.251 17.0218 126.139 16.8359 126.097 16.6446C126.055 16.4535 125.945 16.2971 125.852 16.2971C125.753 16.2971 125.683 16.1788 125.683 16.0119C125.683 15.855 125.603 15.6958 125.505 15.658C125.407 15.6203 125.326 15.5074 125.326 15.4069C125.326 15.3065 125.247 15.2244 125.148 15.2244C125.05 15.2244 124.97 15.144 124.97 15.0456C124.97 14.9473 124.889 14.8669 124.791 14.8669C124.693 14.8669 124.613 14.7864 124.613 14.6881C124.613 14.5897 124.533 14.5093 124.435 14.5093C124.337 14.5093 124.256 14.4289 124.256 14.3305C124.256 14.2322 124.176 14.1517 124.078 14.1517C123.98 14.1517 123.9 14.0713 123.9 13.973C123.9 13.8746 123.82 13.7942 123.722 13.7942C123.624 13.7942 123.543 13.7138 123.543 13.6154C123.543 13.5171 123.475 13.4366 123.391 13.4366C123.308 13.4366 123.148 13.3293 123.036 13.1983C122.923 13.0671 122.751 12.9599 122.653 12.9599C122.554 12.9599 122.473 12.9105 122.473 12.8501C122.473 12.7898 122.317 12.7061 122.126 12.6641C121.935 12.6221 121.75 12.5106 121.714 12.4163C121.677 12.322 121.571 12.2448 121.476 12.2448C121.381 12.2448 121.285 12.1876 121.262 12.1178C121.239 12.0481 120.994 11.9606 120.717 11.9234C120.404 11.8813 120.214 11.7944 120.214 11.6927C120.214 11.591 120.08 11.5297 119.858 11.5297C119.62 11.5297 119.5 11.4701 119.5 11.3509C119.5 11.2117 119.342 11.1721 118.787 11.1721C118.232 11.1721 118.074 11.1324 118.074 10.9933C118.074 10.8583 117.929 10.8146 117.48 10.8146C117.03 10.8146 116.885 10.8583 116.885 10.9933ZM137.572 10.9933C137.572 11.1182 137.447 11.1721 137.157 11.1721C136.866 11.1721 136.741 11.2259 136.741 11.3509C136.741 11.4492 136.66 11.5297 136.562 11.5297C136.464 11.5297 136.383 11.6101 136.383 11.7084C136.383 11.8067 136.304 11.8872 136.206 11.8872C136.086 11.8872 136.027 12.0064 136.027 12.2448C136.027 12.4832 135.968 12.6023 135.849 12.6023C135.73 12.6023 135.67 12.7215 135.67 12.9599C135.67 13.1983 135.611 13.3174 135.492 13.3174C135.368 13.3174 135.314 13.4433 135.314 13.7346C135.314 14.0259 135.26 14.1517 135.135 14.1517C135.003 14.1517 134.957 14.2908 134.957 14.6881C134.957 15.0853 134.911 15.2244 134.779 15.2244C134.659 15.2244 134.6 15.344 134.6 15.5857C134.6 15.7969 134.526 15.9755 134.422 16.0156C134.306 16.0601 134.243 16.2452 134.243 16.5423C134.243 16.8 134.173 17.042 134.083 17.0956C133.995 17.1481 133.89 17.4012 133.85 17.6581C133.81 17.915 133.73 18.1564 133.672 18.1944C133.614 18.2326 133.534 18.4739 133.493 18.7308C133.453 18.9877 133.36 19.2347 133.288 19.2797C133.215 19.3248 133.125 19.5972 133.087 19.8853C133.05 20.1734 132.972 20.4401 132.914 20.4783C132.856 20.5162 132.775 20.7573 132.733 21.0135C132.692 21.2699 132.587 21.551 132.5 21.6382C132.413 21.7253 132.342 21.9806 132.342 22.2053C132.342 22.4891 132.287 22.6139 132.163 22.6139C132.031 22.6139 131.985 22.753 131.985 23.1503C131.985 23.5475 131.938 23.6866 131.806 23.6866C131.674 23.6866 131.628 23.8257 131.628 24.2229C131.628 24.6202 131.582 24.7593 131.45 24.7593C131.326 24.7593 131.271 24.8842 131.271 25.168C131.271 25.3927 131.191 25.657 131.093 25.7553C130.987 25.8621 130.915 26.1535 130.915 26.4791C130.915 26.8838 130.869 27.0239 130.736 27.0239C130.605 27.0239 130.558 27.1622 130.558 27.5543C130.558 27.9109 130.497 28.1188 130.372 28.1888C130.22 28.2746 130.183 28.595 130.164 30.0162L130.142 31.7396L130.57 32.1826C130.845 32.4672 131.108 32.6256 131.303 32.6256C131.471 32.6256 131.63 32.6927 131.658 32.7745C131.724 32.974 136.706 32.991 136.834 32.7924C136.881 32.7201 137.292 32.6236 137.748 32.5777C138.204 32.5319 138.61 32.4393 138.652 32.3722C138.693 32.305 138.949 32.2201 139.22 32.1838C139.491 32.1473 139.713 32.0752 139.713 32.0235C139.713 31.9717 139.874 31.894 140.07 31.8509C140.266 31.8077 140.426 31.7254 140.426 31.668C140.426 31.6106 140.613 31.5285 140.842 31.4855C141.081 31.4407 141.259 31.3365 141.259 31.2417C141.259 31.1466 141.379 31.0762 141.543 31.0762C141.7 31.0762 141.859 30.9957 141.896 30.8974C141.934 30.799 142.046 30.7186 142.146 30.7186C142.247 30.7186 142.328 30.6382 142.328 30.5398C142.328 30.4206 142.447 30.361 142.685 30.361C142.923 30.361 143.042 30.3015 143.042 30.1823C143.042 30.0839 143.122 30.0035 143.22 30.0035C143.319 30.0035 143.398 29.9231 143.398 29.8247C143.398 29.7264 143.479 29.6459 143.577 29.6459C143.675 29.6459 143.755 29.5655 143.755 29.4672C143.755 29.3688 143.837 29.2884 143.938 29.2884C144.037 29.2884 144.15 29.2079 144.187 29.1096C144.225 29.0113 144.33 28.9308 144.422 28.9308C144.513 28.9308 144.587 28.8504 144.587 28.7521C144.587 28.6537 144.668 28.5733 144.766 28.5733C144.864 28.5733 144.944 28.4928 144.944 28.3945C144.944 28.2962 145.025 28.2157 145.123 28.2157C145.221 28.2157 145.3 28.1353 145.3 28.0369C145.3 27.9386 145.381 27.8582 145.479 27.8582C145.577 27.8582 145.658 27.7834 145.658 27.6921C145.658 27.6009 145.738 27.4952 145.836 27.4574C145.934 27.4198 146.014 27.3068 146.014 27.2063C146.014 27.106 146.094 27.0239 146.193 27.0239C146.291 27.0239 146.371 26.9434 146.371 26.8451C146.371 26.7467 146.447 26.6663 146.54 26.6663C146.632 26.6663 146.744 26.5054 146.787 26.3088C146.83 26.1121 146.915 25.9512 146.975 25.9512C147.035 25.9512 147.085 25.8707 147.085 25.7724C147.085 25.6741 147.164 25.5936 147.262 25.5936C147.382 25.5936 147.441 25.4741 147.441 25.2324C147.441 25.0335 147.515 24.8426 147.605 24.8079C147.698 24.772 147.804 24.479 147.851 24.1286C147.896 23.7896 147.992 23.4751 148.066 23.4295C148.251 23.3142 148.243 19.8429 148.057 19.7805C147.983 19.7557 147.887 19.4714 147.844 19.1486C147.802 18.8257 147.723 18.5617 147.669 18.5617C147.615 18.5617 147.535 18.3739 147.493 18.1445C147.447 17.9055 147.344 17.7273 147.249 17.7273C147.145 17.7273 147.085 17.5954 147.085 17.3697C147.085 17.1314 147.025 17.0122 146.906 17.0122C146.787 17.0122 146.727 16.893 146.727 16.6546C146.727 16.4163 146.668 16.2971 146.549 16.2971C146.438 16.2971 146.371 16.1845 146.371 15.9991C146.371 15.8137 146.304 15.7011 146.193 15.7011C146.093 15.7011 146.014 15.5952 146.014 15.4628C146.014 15.3304 145.935 15.2244 145.836 15.2244C145.738 15.2244 145.658 15.144 145.658 15.0456C145.658 14.9473 145.577 14.8669 145.479 14.8669C145.381 14.8669 145.3 14.7864 145.3 14.6881C145.3 14.5897 145.221 14.5093 145.123 14.5093C145.025 14.5093 144.944 14.4289 144.944 14.3305C144.944 14.2322 144.864 14.1517 144.766 14.1517C144.668 14.1517 144.587 14.0713 144.587 13.973C144.587 13.8746 144.505 13.7942 144.406 13.7942C144.305 13.7942 144.192 13.7138 144.155 13.6154C144.117 13.5171 144.012 13.4366 143.921 13.4366C143.83 13.4366 143.755 13.3605 143.755 13.2673C143.755 13.1742 143.594 13.0626 143.398 13.0195C143.202 12.9763 143.042 12.8959 143.042 12.8407C143.042 12.7855 142.881 12.705 142.685 12.6619C142.489 12.6187 142.328 12.5072 142.328 12.4141C142.328 12.3209 142.244 12.2448 142.142 12.2448C142.039 12.2448 141.874 12.1643 141.776 12.066C141.678 11.9677 141.441 11.8872 141.25 11.8872C141.02 11.8872 140.902 11.8267 140.902 11.7084C140.902 11.5835 140.776 11.5297 140.485 11.5297C140.195 11.5297 140.07 11.4758 140.07 11.3509C140.07 11.2117 139.911 11.1721 139.356 11.1721C138.801 11.1721 138.643 11.1324 138.643 10.9933C138.643 10.8609 138.504 10.8146 138.108 10.8146C137.711 10.8146 137.572 10.8609 137.572 10.9933ZM167.772 10.9933C167.772 11.0926 167.666 11.1721 167.534 11.1721C167.402 11.1721 167.296 11.2516 167.296 11.3509C167.296 11.4492 167.216 11.5297 167.118 11.5297C167.02 11.5297 166.94 11.6101 166.94 11.7084C166.94 11.8067 166.859 11.8872 166.761 11.8872C166.663 11.8872 166.583 11.9677 166.583 12.066C166.583 12.1643 166.534 12.2448 166.474 12.2448C166.413 12.2448 166.329 12.4057 166.285 12.6023C166.243 12.7989 166.131 12.9599 166.039 12.9599C165.93 12.9599 165.87 13.088 165.87 13.3174C165.87 13.5558 165.81 13.675 165.691 13.675C165.592 13.675 165.513 13.781 165.513 13.9134C165.513 14.0458 165.433 14.1517 165.334 14.1517C165.216 14.1517 165.157 14.2709 165.157 14.5093C165.157 14.7477 165.096 14.8669 164.978 14.8669C164.859 14.8669 164.799 14.986 164.799 15.2244C164.799 15.4628 164.74 15.582 164.621 15.582C164.502 15.582 164.443 15.7015 164.443 15.9432C164.443 16.1544 164.368 16.333 164.265 16.3731C164.166 16.4109 164.086 16.5718 164.086 16.7307C164.086 16.8897 164.006 17.0506 163.908 17.0883C163.809 17.1261 163.73 17.2869 163.73 17.4458C163.73 17.6048 163.652 17.7644 163.558 17.8006C163.464 17.8369 163.353 18.0228 163.311 18.2141C163.27 18.4052 163.19 18.5617 163.135 18.5617C163.08 18.5617 162.998 18.7329 162.952 18.9422C162.906 19.1516 162.794 19.3967 162.704 19.4871C162.614 19.5774 162.541 19.8084 162.541 20.0004C162.541 20.2312 162.48 20.3494 162.362 20.3494C162.237 20.3494 162.184 20.4753 162.184 20.7666C162.184 21.0579 162.13 21.1837 162.006 21.1837C161.887 21.1837 161.827 21.3029 161.827 21.5413C161.827 21.7797 161.768 21.8988 161.649 21.8988C161.53 21.8988 161.47 22.018 161.47 22.2564C161.47 22.4948 161.411 22.6139 161.293 22.6139C161.16 22.6139 161.114 22.753 161.114 23.1503C161.114 23.5475 161.067 23.6866 160.935 23.6866C160.817 23.6866 160.757 23.8058 160.757 24.0442C160.757 24.2825 160.697 24.4017 160.579 24.4017C160.481 24.4017 160.4 24.4839 160.4 24.5842C160.4 24.6847 160.307 24.8014 160.192 24.8437C160.077 24.8861 159.944 24.9782 159.895 25.0486C159.832 25.1393 159.78 25.1385 159.717 25.0458C159.668 24.974 159.481 24.8793 159.303 24.8354C159.079 24.7805 158.953 24.654 158.898 24.4298C158.854 24.2505 158.771 24.0727 158.713 24.0345C158.656 23.9965 158.576 23.7552 158.535 23.4982C158.494 23.2413 158.407 22.9958 158.342 22.9527C158.276 22.9095 158.198 22.5744 158.167 22.2077C158.129 21.7482 158.061 21.5413 157.949 21.5413C157.828 21.5413 157.785 21.3538 157.785 20.8262C157.785 20.27 157.745 20.1111 157.606 20.1111C157.466 20.1111 157.428 19.9455 157.428 19.3364C157.428 18.7272 157.39 18.5617 157.25 18.5617C157.115 18.5617 157.071 18.416 157.071 17.9657C157.071 17.5392 157.025 17.3697 156.908 17.3697C156.795 17.3697 156.727 17.1628 156.689 16.7033C156.659 16.3367 156.58 16.0015 156.515 15.9584C156.448 15.9152 156.361 15.6697 156.321 15.4128C156.281 15.1559 156.196 14.9141 156.134 14.8753C156.071 14.8366 155.983 14.658 155.938 14.4783C155.893 14.2987 155.809 14.1517 155.751 14.1517C155.693 14.1517 155.644 14.0848 155.643 14.0028C155.64 13.8261 155.129 13.3174 154.954 13.3174C154.887 13.3174 154.809 13.2505 154.783 13.1685C154.749 13.0687 154.465 13.0195 153.921 13.0195C153.376 13.0195 153.092 13.0687 153.059 13.1685C153.032 13.2505 152.934 13.3174 152.841 13.3174C152.748 13.3174 152.672 13.3995 152.672 13.4999C152.672 13.6004 152.592 13.7134 152.494 13.7511C152.349 13.8067 152.315 14.086 152.315 15.2273C152.315 16.1165 152.362 16.6503 152.442 16.6771C152.511 16.7003 152.6 16.9596 152.638 17.2532C152.677 17.5468 152.762 17.8222 152.828 17.8653C152.894 17.9085 152.973 18.2436 153.003 18.6102C153.041 19.0699 153.109 19.2768 153.222 19.2768C153.343 19.2768 153.386 19.4642 153.386 19.9919C153.386 20.5481 153.425 20.707 153.564 20.707C153.699 20.707 153.742 20.8526 153.742 21.3029C153.742 21.7532 153.786 21.8988 153.921 21.8988C154.063 21.8988 154.099 22.0776 154.099 22.7927C154.099 23.5078 154.134 23.6866 154.277 23.6866C154.416 23.6866 154.455 23.8449 154.455 24.3958C154.455 24.8689 154.51 25.1368 154.618 25.2003C154.708 25.2537 154.806 25.5769 154.84 25.9341C154.872 26.2852 154.953 26.607 155.018 26.6493C155.084 26.6913 155.163 27.0392 155.194 27.4222C155.225 27.8051 155.305 28.1537 155.372 28.1969C155.44 28.24 155.534 28.6507 155.582 29.1096C155.63 29.5684 155.721 29.9765 155.785 30.0162C155.848 30.0558 155.93 30.3106 155.967 30.5823C156.003 30.8539 156.075 31.0762 156.127 31.0762C156.178 31.0762 156.258 31.2474 156.304 31.4568C156.349 31.6661 156.461 31.9113 156.551 32.0017C156.779 32.2304 156.78 33.6983 156.552 33.6983C156.451 33.6983 156.364 33.886 156.323 34.1922C156.287 34.4638 156.206 34.7186 156.144 34.7583C156.082 34.798 155.994 35.0049 155.947 35.2179C155.901 35.431 155.821 35.6053 155.768 35.6053C155.715 35.6053 155.636 35.8466 155.591 36.1416C155.547 36.4365 155.466 36.6779 155.413 36.6779C155.358 36.6779 155.277 36.8248 155.232 37.0045C155.187 37.1841 155.097 37.3641 155.032 37.4044C154.967 37.4449 154.884 37.7002 154.847 37.9718C154.806 38.278 154.719 38.4657 154.618 38.4657C154.511 38.4657 154.455 38.6094 154.455 38.8828C154.455 39.1742 154.402 39.3 154.277 39.3C154.145 39.3 154.099 39.4391 154.099 39.8363C154.099 40.2336 154.053 40.3727 153.921 40.3727C153.789 40.3727 153.742 40.5118 153.742 40.9091C153.742 41.3062 153.696 41.4454 153.564 41.4454C153.432 41.4454 153.386 41.5845 153.386 41.9817C153.386 42.379 153.432 42.5181 153.564 42.5181C153.683 42.5181 153.742 42.6372 153.742 42.8756C153.742 43.114 153.802 43.2332 153.921 43.2332C154.02 43.2332 154.099 43.3391 154.099 43.4715C154.099 43.655 154.179 43.7099 154.443 43.7099C154.639 43.7099 154.817 43.7868 154.855 43.8887C154.947 44.1292 155.864 44.1353 155.956 43.896C155.991 43.8017 156.177 43.6901 156.368 43.6482C156.559 43.6061 156.715 43.4956 156.715 43.4025C156.715 43.3093 156.795 43.2332 156.893 43.2332C157.012 43.2332 157.071 43.114 157.071 42.8756C157.071 42.6372 157.13 42.5181 157.25 42.5181C157.368 42.5181 157.428 42.3989 157.428 42.1605C157.428 41.9221 157.488 41.803 157.606 41.803C157.725 41.803 157.785 41.6838 157.785 41.4454C157.785 41.207 157.844 41.0878 157.963 41.0878C158.082 41.0878 158.142 40.9683 158.142 40.7266C158.142 40.5154 158.216 40.3367 158.319 40.2967C158.42 40.2581 158.498 40.0807 158.498 39.8916C158.498 39.7068 158.572 39.4815 158.662 39.3912C158.752 39.3009 158.863 39.0557 158.909 38.8462C158.955 38.6369 159.037 38.4657 159.093 38.4657C159.148 38.4657 159.228 38.3048 159.271 38.1081C159.314 37.9115 159.391 37.7506 159.443 37.7506C159.495 37.7506 159.567 37.527 159.603 37.2536C159.64 36.9803 159.754 36.7095 159.857 36.6519C159.96 36.5942 160.043 36.4212 160.043 36.2676C160.043 36.1139 160.124 35.9574 160.222 35.9196C160.32 35.882 160.4 35.7115 160.4 35.5409C160.4 35.3702 160.481 35.1502 160.579 35.0519C160.677 34.9535 160.757 34.6892 160.757 34.4645C160.757 34.1807 160.812 34.0559 160.935 34.0559C161.055 34.0559 161.114 33.9367 161.114 33.6983C161.114 33.4599 161.173 33.3407 161.293 33.3407C161.425 33.3407 161.47 33.2016 161.47 32.8043C161.47 32.4072 161.517 32.268 161.649 32.268C161.768 32.268 161.827 32.1488 161.827 31.9104C161.827 31.6721 161.887 31.5529 162.006 31.5529C162.13 31.5529 162.184 31.4271 162.184 31.1357C162.184 30.8623 162.24 30.7186 162.346 30.7186C162.447 30.7186 162.534 30.5309 162.576 30.2247C162.612 29.9531 162.695 29.6978 162.76 29.6573C162.825 29.617 162.915 29.437 162.96 29.2574C163.005 29.0777 163.087 28.9308 163.142 28.9308C163.198 28.9308 163.278 28.7431 163.321 28.5137C163.364 28.2843 163.446 28.0965 163.504 28.0965C163.561 28.0965 163.641 27.8853 163.682 27.6272C163.724 27.369 163.832 27.1293 163.922 27.0946C164.012 27.0597 164.086 26.8688 164.086 26.67C164.086 26.4283 164.145 26.3088 164.265 26.3088C164.382 26.3088 164.443 26.191 164.443 25.9639C164.443 25.7674 164.519 25.5895 164.621 25.5505C164.726 25.5104 164.799 25.3317 164.799 25.1206C164.799 24.8789 164.859 24.7593 164.978 24.7593C165.107 24.7593 165.157 24.6269 165.157 24.2825C165.157 23.9382 165.206 23.8058 165.334 23.8058C165.459 23.8058 165.513 23.68 165.513 23.3887C165.513 23.0973 165.567 22.9715 165.691 22.9715C165.81 22.9715 165.87 22.8523 165.87 22.6139C165.87 22.3756 165.929 22.2564 166.048 22.2564C166.167 22.2564 166.226 22.1369 166.226 21.8951C166.226 21.6839 166.3 21.5053 166.405 21.4652C166.503 21.4275 166.583 21.2665 166.583 21.1077C166.583 20.9487 166.663 20.7877 166.762 20.7498C166.86 20.712 166.974 20.4757 167.013 20.2246C167.054 19.9737 167.16 19.7398 167.251 19.705C167.342 19.6701 167.415 19.4792 167.415 19.2804C167.415 19.0387 167.474 18.9192 167.594 18.9192C167.712 18.9192 167.772 18.8 167.772 18.5617C167.772 18.3233 167.832 18.2041 167.95 18.2041C168.069 18.2041 168.129 18.0849 168.129 17.8465C168.129 17.6081 168.188 17.4889 168.307 17.4889C168.426 17.4889 168.485 17.3697 168.485 17.1314C168.485 16.893 168.545 16.7738 168.663 16.7738C168.788 16.7738 168.842 16.648 168.842 16.3567C168.842 16.0654 168.896 15.9395 169.021 15.9395C169.139 15.9395 169.198 15.8203 169.198 15.582C169.198 15.3436 169.258 15.2244 169.377 15.2244C169.496 15.2244 169.555 15.1052 169.555 14.8669C169.555 14.6438 169.617 14.5093 169.718 14.5093C169.819 14.5093 169.906 14.3193 169.948 14.0054C169.985 13.7282 170.073 13.4823 170.142 13.4591C170.214 13.435 170.269 13.0868 170.269 12.652C170.269 12.0517 170.23 11.8872 170.09 11.8872C169.992 11.8872 169.912 11.8067 169.912 11.7084C169.912 11.6101 169.859 11.5297 169.793 11.5297C169.727 11.5297 169.674 11.4492 169.674 11.3509C169.674 11.2516 169.568 11.1721 169.436 11.1721C169.304 11.1721 169.198 11.0926 169.198 10.9933C169.198 10.8542 169.04 10.8146 168.485 10.8146C167.93 10.8146 167.772 10.8542 167.772 10.9933ZM78.2443 15.8046C78.2443 15.8616 78.4704 15.9386 78.747 15.9757C79.0237 16.013 79.2688 16.1005 79.2917 16.1702C79.3154 16.24 79.4103 16.2971 79.5028 16.2971C79.5953 16.2971 79.6712 16.3775 79.6712 16.4758C79.6712 16.5742 79.751 16.6546 79.849 16.6546C79.9478 16.6546 80.0277 16.7351 80.0277 16.8334C80.0277 16.9317 80.087 17.0122 80.1597 17.0122C80.3423 17.0122 80.8553 17.5159 80.8577 17.6975C80.8593 17.7795 80.9399 17.8465 81.038 17.8465C81.1368 17.8465 81.2166 17.927 81.2166 18.0253C81.2166 18.1236 81.2656 18.2041 81.3265 18.2041C81.3866 18.2041 81.4712 18.365 81.5138 18.5617C81.5573 18.7583 81.668 18.9192 81.7613 18.9192C81.8696 18.9192 81.9297 19.0473 81.9297 19.2768C81.9297 19.5151 81.9897 19.6343 82.1083 19.6343C82.2403 19.6343 82.287 19.7734 82.287 20.1707C82.287 20.5679 82.3328 20.707 82.4648 20.707C82.6055 20.707 82.6435 20.8725 82.6435 21.4817C82.6435 22.0908 82.6055 22.2564 82.4648 22.2564C82.3328 22.2564 82.287 22.3955 82.287 22.7927C82.287 23.19 82.2403 23.3291 82.1083 23.3291C81.9929 23.3291 81.9297 23.4453 81.9297 23.6601C81.9297 23.8438 81.8237 24.0821 81.6925 24.1953C81.5613 24.3076 81.4546 24.4747 81.4546 24.5666C81.4546 24.6586 81.3739 24.7647 81.2759 24.8025C81.1779 24.8401 81.098 24.9531 81.098 25.0536C81.098 25.1539 81.0174 25.236 80.9194 25.236C80.8214 25.236 80.7407 25.3165 80.7407 25.4148C80.7407 25.5131 80.6609 25.5936 80.5629 25.5936C80.4648 25.5936 80.3842 25.6741 80.3842 25.7724C80.3842 25.8707 80.3044 25.9512 80.2063 25.9512C80.1083 25.9512 80.0277 26.0316 80.0277 26.13C80.0277 26.2492 79.9091 26.3088 79.6712 26.3088C79.4332 26.3088 79.3146 26.3684 79.3146 26.4875C79.3146 26.5858 79.234 26.6663 79.136 26.6663C79.038 26.6663 78.9573 26.7425 78.9573 26.8357C78.9573 26.9287 78.7969 27.0403 78.6008 27.0835C78.4048 27.1266 78.2443 27.2113 78.2443 27.2717C78.2443 27.3321 78.1376 27.3814 78.0063 27.3814C77.8759 27.3814 77.7684 27.455 77.7684 27.5449C77.7684 27.6436 77.5803 27.7387 77.2933 27.7847C77.0316 27.8267 76.8174 27.9079 76.8174 27.9655C76.8174 28.023 76.634 28.1045 76.4103 28.1466C76.1858 28.1888 75.9842 28.2786 75.9613 28.3463C75.9391 28.4141 75.6949 28.4998 75.4182 28.5371C75.1415 28.5742 74.9154 28.6512 74.9154 28.7081C74.9154 28.765 74.6743 28.8116 74.3802 28.8116C74.0862 28.8116 73.8451 28.758 73.8451 28.6925C73.8451 28.6269 73.7676 28.5733 73.672 28.5733C73.3478 28.5733 73.2656 26.886 73.5803 26.6789C73.6403 26.6392 73.7225 26.3965 73.7629 26.1396C73.804 25.8827 73.8941 25.637 73.9644 25.5936C74.034 25.5502 74.1249 25.3046 74.1652 25.0477C74.2056 24.7907 74.2901 24.5469 74.3518 24.5059C74.4142 24.4648 74.4933 24.1832 74.5273 23.8802C74.5676 23.5232 74.6467 23.3291 74.7526 23.3291C74.8664 23.3291 74.9154 23.1673 74.9154 22.7927C74.9154 22.3955 74.9613 22.2564 75.0933 22.2564C75.2253 22.2564 75.2719 22.1173 75.2719 21.7201C75.2719 21.3228 75.3178 21.1837 75.4506 21.1837C75.5826 21.1837 75.6285 21.0447 75.6285 20.6474C75.6285 20.2501 75.6751 20.1111 75.8071 20.1111C75.9312 20.1111 75.985 19.9852 75.985 19.6939C75.985 19.4026 76.0388 19.2768 76.1637 19.2768C76.2957 19.2768 76.3423 19.1376 76.3423 18.7404C76.3423 18.3432 76.3882 18.2041 76.5202 18.2041C76.653 18.2041 76.6988 18.0646 76.6988 17.6641C76.6988 17.2938 76.755 17.1023 76.8767 17.0554C76.9747 17.0176 77.0561 16.8718 77.0577 16.7313C77.0593 16.4666 77.5241 15.9395 77.7557 15.9395C77.8285 15.9395 77.8878 15.8859 77.8878 15.8203C77.8878 15.7548 77.9676 15.7011 78.0656 15.7011C78.1637 15.7011 78.2443 15.7477 78.2443 15.8046ZM119.144 15.8046C119.144 15.8616 119.37 15.9386 119.647 15.9757C119.923 16.013 120.168 16.1005 120.191 16.1702C120.215 16.24 120.31 16.2971 120.402 16.2971C120.495 16.2971 120.571 16.3775 120.571 16.4758C120.571 16.5742 120.651 16.6546 120.749 16.6546C120.847 16.6546 120.927 16.7351 120.927 16.8334C120.927 16.9317 120.987 17.0122 121.059 17.0122C121.242 17.0122 121.755 17.5159 121.757 17.6975C121.759 17.7795 121.84 17.8465 121.938 17.8465C122.036 17.8465 122.116 17.927 122.116 18.0253C122.116 18.1236 122.165 18.2041 122.226 18.2041C122.286 18.2041 122.371 18.365 122.413 18.5617C122.457 18.7583 122.568 18.9192 122.661 18.9192C122.769 18.9192 122.83 19.0473 122.83 19.2768C122.83 19.5151 122.889 19.6343 123.008 19.6343C123.14 19.6343 123.187 19.7734 123.187 20.1707C123.187 20.5679 123.232 20.707 123.364 20.707C123.505 20.707 123.543 20.8725 123.543 21.4817C123.543 22.0908 123.505 22.2564 123.364 22.2564C123.232 22.2564 123.187 22.3955 123.187 22.7927C123.187 23.19 123.14 23.3291 123.008 23.3291C122.893 23.3291 122.83 23.4453 122.83 23.6601C122.83 23.8438 122.724 24.0821 122.592 24.1953C122.461 24.3076 122.354 24.4747 122.354 24.5666C122.354 24.6586 122.274 24.7647 122.176 24.8025C122.077 24.8401 121.998 24.9531 121.998 25.0536C121.998 25.1539 121.917 25.236 121.819 25.236C121.721 25.236 121.641 25.3165 121.641 25.4148C121.641 25.5131 121.56 25.5936 121.462 25.5936C121.364 25.5936 121.284 25.6741 121.284 25.7724C121.284 25.8707 121.204 25.9512 121.106 25.9512C121.008 25.9512 120.927 26.0316 120.927 26.13C120.927 26.2492 120.809 26.3088 120.571 26.3088C120.333 26.3088 120.214 26.3684 120.214 26.4875C120.214 26.5858 120.134 26.6663 120.036 26.6663C119.938 26.6663 119.858 26.7425 119.858 26.8357C119.858 26.9287 119.697 27.0403 119.5 27.0835C119.304 27.1266 119.144 27.2113 119.144 27.2717C119.144 27.3321 119.037 27.3814 118.906 27.3814C118.776 27.3814 118.669 27.455 118.669 27.5449C118.669 27.6436 118.48 27.7387 118.193 27.7847C117.931 27.8267 117.717 27.9079 117.717 27.9655C117.717 28.023 117.534 28.1045 117.31 28.1466C117.085 28.1888 116.884 28.2786 116.862 28.3463C116.839 28.4141 116.594 28.4998 116.318 28.5371C116.041 28.5742 115.815 28.6512 115.815 28.7081C115.815 28.765 115.574 28.8116 115.28 28.8116C114.986 28.8116 114.745 28.758 114.745 28.6925C114.745 28.6269 114.667 28.5733 114.572 28.5733C114.247 28.5733 114.166 26.886 114.48 26.6789C114.54 26.6392 114.622 26.3965 114.663 26.1396C114.704 25.8827 114.787 25.6412 114.849 25.603C114.911 25.5648 115 25.319 115.048 25.057C115.096 24.7949 115.187 24.5469 115.251 24.5059C115.314 24.4648 115.393 24.1832 115.427 23.8802C115.467 23.5232 115.546 23.3291 115.652 23.3291C115.766 23.3291 115.815 23.1673 115.815 22.7927C115.815 22.3955 115.861 22.2564 115.994 22.2564C116.126 22.2564 116.172 22.1173 116.172 21.7201C116.172 21.3228 116.218 21.1837 116.35 21.1837C116.482 21.1837 116.528 21.0447 116.528 20.6474C116.528 20.2501 116.575 20.1111 116.707 20.1111C116.832 20.1111 116.885 19.9852 116.885 19.6939C116.885 19.4026 116.939 19.2768 117.063 19.2768C117.195 19.2768 117.242 19.1376 117.242 18.7404C117.242 18.3432 117.288 18.2041 117.42 18.2041C117.553 18.2041 117.598 18.0646 117.598 17.6641C117.598 17.2938 117.655 17.1023 117.777 17.0554C117.875 17.0176 117.956 16.8718 117.957 16.7313C117.959 16.4666 118.424 15.9395 118.655 15.9395C118.728 15.9395 118.787 15.8859 118.787 15.8203C118.787 15.7548 118.867 15.7011 118.966 15.7011C119.064 15.7011 119.144 15.7477 119.144 15.8046ZM139.713 15.8203C139.713 15.8859 139.896 15.9395 140.12 15.9395C140.345 15.9395 140.608 16.0199 140.707 16.1183C140.805 16.2166 140.944 16.2971 141.016 16.2971C141.088 16.2971 141.178 16.3775 141.215 16.4758C141.253 16.5742 141.358 16.6546 141.45 16.6546C141.541 16.6546 141.615 16.7351 141.615 16.8334C141.615 16.9317 141.696 17.0122 141.794 17.0122C141.892 17.0122 141.972 17.0927 141.972 17.191C141.972 17.2893 142.052 17.3697 142.15 17.3697C142.249 17.3697 142.328 17.4757 142.328 17.6081C142.328 17.7405 142.408 17.8465 142.507 17.8465C142.605 17.8465 142.685 17.927 142.685 18.0253C142.685 18.1236 142.765 18.2041 142.863 18.2041C142.983 18.2041 143.042 18.3233 143.042 18.5617C143.042 18.8 143.101 18.9192 143.22 18.9192C143.319 18.9192 143.398 19.0226 143.398 19.1491C143.398 19.2754 143.47 19.4503 143.557 19.5374C143.643 19.6247 143.749 19.9096 143.791 20.1707C143.834 20.4319 143.923 20.6638 143.99 20.6861C144.057 20.7085 144.111 21.0665 144.111 21.4817C144.111 21.8968 144.057 22.2549 143.99 22.2772C143.923 22.2996 143.835 22.5319 143.794 22.7937C143.753 23.0554 143.647 23.3124 143.559 23.3648C143.47 23.4173 143.398 23.6183 143.398 23.8117C143.398 24.0449 143.338 24.1634 143.22 24.1634C143.109 24.1634 143.042 24.2759 143.042 24.4613C143.042 24.6468 142.975 24.7593 142.863 24.7593C142.764 24.7593 142.685 24.8652 142.685 24.9976C142.685 25.1288 142.618 25.2383 142.537 25.2411C142.455 25.2439 142.257 25.4048 142.096 25.5986C141.936 25.7926 141.735 25.9512 141.651 25.9512C141.565 25.9512 141.496 26.0316 141.496 26.13C141.496 26.2412 141.384 26.3088 141.199 26.3088C141.014 26.3088 140.902 26.3763 140.902 26.4875C140.902 26.5858 140.82 26.6663 140.719 26.6663C140.62 26.6663 140.508 26.7418 140.474 26.8343C140.438 26.9267 140.279 27.035 140.12 27.075C139.961 27.1149 139.832 27.2003 139.832 27.2645C139.832 27.3288 139.725 27.3814 139.594 27.3814C139.463 27.3814 139.356 27.4548 139.356 27.5444C139.356 27.6456 139.169 27.7328 138.863 27.7738C138.592 27.8102 138.338 27.8935 138.297 27.9589C138.257 28.0242 138.077 28.1145 137.898 28.1595C137.719 28.2046 137.572 28.2876 137.572 28.3437C137.572 28.3999 137.305 28.4815 136.978 28.5249C136.651 28.5684 136.383 28.6507 136.383 28.7078C136.383 28.7649 136.143 28.8116 135.849 28.8116C135.554 28.8116 135.314 28.758 135.314 28.6925C135.314 28.6269 135.233 28.5733 135.135 28.5733C134.991 28.5733 134.957 28.3878 134.957 27.6198C134.957 26.8517 134.991 26.6663 135.135 26.6663C135.267 26.6663 135.314 26.5272 135.314 26.13C135.314 25.7327 135.36 25.5936 135.492 25.5936C135.624 25.5936 135.67 25.4545 135.67 25.0572C135.67 24.6826 135.719 24.5209 135.833 24.5209C135.938 24.5209 136.018 24.3268 136.058 23.9698C136.093 23.6667 136.171 23.3852 136.233 23.3441C136.296 23.3031 136.38 23.0592 136.421 22.8024C136.461 22.5454 136.542 22.3041 136.599 22.2661C136.656 22.2279 136.737 21.9866 136.777 21.7297C136.817 21.4727 136.904 21.2298 136.968 21.1898C137.033 21.1497 137.122 20.894 137.165 20.6214C137.209 20.3488 137.318 20.0974 137.409 20.0626C137.499 20.0277 137.572 19.8412 137.572 19.648C137.572 19.4547 137.628 19.2783 137.694 19.2558C137.761 19.2336 137.85 19.0012 137.891 18.7395C137.932 18.4777 138.017 18.23 138.08 18.189C138.142 18.1479 138.221 17.8664 138.255 17.5633C138.295 17.2063 138.375 17.0122 138.48 17.0122C138.582 17.0122 138.643 16.8779 138.643 16.6546C138.643 16.4163 138.702 16.2971 138.821 16.2971C138.919 16.2971 138.999 16.2166 138.999 16.1183C138.999 16.0199 139.08 15.9395 139.178 15.9395C139.276 15.9395 139.356 15.8859 139.356 15.8203C139.356 15.7548 139.436 15.7011 139.534 15.7011C139.632 15.7011 139.713 15.7548 139.713 15.8203ZM101.786 21.4817C101.786 23.0443 101.758 23.3291 101.607 23.3291C101.509 23.3291 101.428 23.3976 101.428 23.4814C101.428 23.7537 100.923 24.077 100.404 24.1355C99.6957 24.2156 98.8127 24.0673 98.8127 23.868C98.8127 23.7792 98.7636 23.6887 98.7028 23.6667C98.6427 23.6449 98.5565 23.4795 98.5115 23.2993C98.4482 23.0439 98.4727 22.9715 98.6221 22.9715C98.7692 22.9715 98.8127 22.8485 98.8127 22.4352C98.8127 22.0564 98.8617 21.8988 98.9787 21.8988C99.0696 21.8988 99.1795 21.7574 99.2229 21.5846C99.2656 21.4116 99.4593 21.1315 99.6514 20.962C99.8443 20.7926 100.002 20.5854 100.002 20.5016C100.002 20.418 100.082 20.3494 100.18 20.3494C100.278 20.3494 100.359 20.269 100.359 20.1707C100.359 20.0723 100.416 19.9919 100.486 19.9919C100.557 19.9919 100.694 19.9114 100.792 19.8131C100.89 19.7148 101.153 19.6343 101.378 19.6343H101.786V21.4817Z" fill="#4C5165"/>
</g>
<defs>
<clipPath id="clip0_263:5389">
<rect width="180.269" height="44.0755" fill="white"/>
</clipPath>
</defs>
</svg>
