<svg width="181" height="45" viewBox="0 0 181 45" id="Layer_1" data-name="Layer 1" xmlns="http://www.w3.org/2000/svg"><title>logo-heymaty</title><path d="M23.15,22.3q-2,.18-5.45.84l-5.89,1.09A27,27,0,0,1,11,27.47c-.27,1-.52,2.06-.74,3.28a3.22,3.22,0,0,1-1,2,2.93,2.93,0,0,1-2,.73,2.18,2.18,0,0,1-1.61-.6A2.1,2.1,0,0,1,5,31.26a19.1,19.1,0,0,1,.66-3.51Q6.81,23,7.4,18.81v-.33l.31-2.05c.15-1,.31-1.94.49-2.79,0-.16.09-.39.15-.67a5.85,5.85,0,0,1,.16-.66c.19-.72.33-1.36.43-1.91a13.25,13.25,0,0,1,.51-2.28,2.8,2.8,0,0,1,1-1.18,2.85,2.85,0,0,1,1.74-.56,2.17,2.17,0,0,1,2.22,2.24,15,15,0,0,1-.29,1.83c-.19,1-.4,1.88-.64,2.78A22.06,22.06,0,0,0,13,16.17l-.35,2.64,5.6-1a41.41,41.41,0,0,1,6.13-.72c.17-.63.41-2,.72-4a23.09,23.09,0,0,1,.83-3.79,4.74,4.74,0,0,1,1.32-2,2.79,2.79,0,0,1,1.87-.81,2.29,2.29,0,0,1,1.6.59,2.1,2.1,0,0,1,.63,1.6,9,9,0,0,1-.43,2.22,7.2,7.2,0,0,0-.51,1.9c0,.46-.62,3.38-1.87,8.78a40.94,40.94,0,0,0-.79,5.54v.45a19.17,19.17,0,0,1-.25,2.19,3.47,3.47,0,0,1-1.14,2.32,3,3,0,0,1-1.9.7,2.15,2.15,0,0,1-1.63-.65,2.18,2.18,0,0,1-.6-1.55,10,10,0,0,1,.12-1q.06-.45.15-1.35c.12-1.88.28-3.46.49-4.74Z" transform="translate(-4.98 -6.3)" style="fill:#4c5165"/><path d="M40.87,12.64l-.08.59a40.18,40.18,0,0,1-.84,4l1.06-.1c4.57-.46,7.41-.7,8.52-.7,1.57,0,2.35.67,2.35,2a2.66,2.66,0,0,1-2.76,3l-10.34.92c-.11.48-.2.94-.27,1.37s-.13.85-.2,1.23A16.57,16.57,0,0,0,38,27.47a1.15,1.15,0,0,0,.08.55h3.65l4.43-.23,1.21-.08c1.68,0,2.53.67,2.53,2a3.11,3.11,0,0,1-.67,2,3.32,3.32,0,0,1-2.11,1.09,53.26,53.26,0,0,1-6.56.24c-3.13,0-5.22-.33-6.28-1s-1.59-2.07-1.59-4.17a33.67,33.67,0,0,1,1.07-7,2.61,2.61,0,0,1,.47-2.13,61.94,61.94,0,0,0,1.21-6.13,9.79,9.79,0,0,0,.07-1.65,3.79,3.79,0,0,1,.84-2.54,3,3,0,0,1,2.33-.94A2.27,2.27,0,0,1,40,7.82a34.15,34.15,0,0,1,6.64-.55q5.19,0,6.5.64a2,2,0,0,1,1.32,1.78,2.89,2.89,0,0,1-.92,2.15,3,3,0,0,1-2.2.88,2.2,2.2,0,0,1-.76-.12,33.9,33.9,0,0,0-4.74-.33A37.37,37.37,0,0,0,40.87,12.64Z" transform="translate(-4.98 -6.3)" style="fill:#4c5165"/><path d="M61.56,28.58q-1-3.19-5-13.1a7.71,7.71,0,0,1-1.09-2.93,3,3,0,0,1,1.07-2.15,3.32,3.32,0,0,1,2.32-1,2.44,2.44,0,0,1,1.55.5q.64.51,2.22,4a82.84,82.84,0,0,1,3.12,8.18,123.45,123.45,0,0,1,7.08-11,4,4,0,0,1,2.88-1.71A2.58,2.58,0,0,1,77.5,10a2.13,2.13,0,0,1,.74,1.6,3.29,3.29,0,0,1-.55,1.68q-.54.9-9.4,14.69A108.2,108.2,0,0,0,62,38.41a15.89,15.89,0,0,1-2.12,3.5,3,3,0,0,1-3.76,0,2.09,2.09,0,0,1-.73-1.6Q55.43,38.51,61.56,28.58Z" transform="translate(-4.98 -6.3)" style="fill:#4c5165"/><path d="M99.69,16.25l-1,3.08L96.24,25.5l-1.45,3a13.51,13.51,0,0,1-2.49,3.87,3.36,3.36,0,0,1-2.27,1q-2.23,0-2.61-3.52l-.16-1.77c-.1-1-.14-2.8-.14-5.33V20.62c0-1.81,0-3-.07-3.69L83.73,27.26a30,30,0,0,1-2.08,5.38,2.17,2.17,0,0,1-1.94,1.08,2,2,0,0,1-2.31-2.3c0-1.77,1.18-5.25,3.56-10.41.51-1.1,1-2.15,1.36-3.16l1.72-5q2.19-6.35,5.07-6.34,1.26,0,1.71,1.77a32.64,32.64,0,0,1,.56,6v2.5a69.62,69.62,0,0,0,.41,8.39l4.45-10.68,1.6-4q1.72-4.29,3.75-4.29,2.56,0,2.57,5.6L104.1,15c0,3.4.15,7,.47,10.66L104.9,29c.11,1.13.16,1.77.16,1.92a3,3,0,0,1-1,2.09,3.11,3.11,0,0,1-2.3,1,1.68,1.68,0,0,1-1.57-.92,8.43,8.43,0,0,1-.58-3.37l-.13-2.83q-.12-2.64,0-8.14Z" transform="translate(-4.98 -6.3)" style="fill:#4c5165"/><path d="M124.21,25.58c-3.48.25-5.81.43-7,.55-.19.33-.38.67-.57,1a23.57,23.57,0,0,1-3.24,5,2.94,2.94,0,0,1-2,.83,2.38,2.38,0,0,1-1.69-.66,2,2,0,0,1-.71-1.55,3,3,0,0,1,.41-1.32c.27-.53,1.15-2,2.62-4.44a4.1,4.1,0,0,1,.09-.93,3,3,0,0,1,2.21-2.6Q124.5,7.19,126.78,7.18c1.57,0,2.38.9,2.44,2.69l0,5.25c0,1.22.23,4.84.64,10.87l.45,2.44c.16.9.24,1.43.24,1.58a3,3,0,0,1-1,2.22,3.11,3.11,0,0,1-2.25,1c-1.43,0-2.36-1.53-2.77-4.6l-.1-.67C124.42,27.49,124.32,26.71,124.21,25.58Zm0-9.91-.69.93a45.36,45.36,0,0,0-3,4.37,16.31,16.31,0,0,0,1.66-.13c.7-.07,1.36-.1,2-.1Z" transform="translate(-4.98 -6.3)" style="fill:#4c5165"/><path d="M147.37,12.48c-.17,1-.34,2.94-.54,5.8q-.22,3.24-.79,7.22l-.09,1a21.11,21.11,0,0,1-.51,3.65,4,4,0,0,1-1.28,1.82,3,3,0,0,1-1.92.87,2.25,2.25,0,0,1-1.63-.64,2.12,2.12,0,0,1-.67-1.6,3.13,3.13,0,0,1,.25-1.12,14.54,14.54,0,0,0,.37-2.3c.14-1.52.25-2.54.35-3.08q.5-3.21.82-9.41a16.32,16.32,0,0,1,.18-2l-2.09,0h-1.23a7.16,7.16,0,0,1-3.41-.59,2,2,0,0,1-1-1.83,3,3,0,0,1,.39-1.48,3.59,3.59,0,0,1,1.18-1.22,3.5,3.5,0,0,1,2.06-.48l1.5.1c.42,0,1.13.05,2.13.05h.92a9.13,9.13,0,0,0,1.15-.09l1.77-.08c1.17,0,2.15-.08,2.93-.08h.47c1.23,0,2.26,0,3.1.08s2.18.12,3.61.12a2.22,2.22,0,0,1,1.64.65,2.19,2.19,0,0,1,.63,1.59,3,3,0,0,1-.94,2.18,3,3,0,0,1-2.22,1c-.86,0-1.72,0-2.58-.08s-1.78-.09-2.71-.09A15,15,0,0,0,147.37,12.48Z" transform="translate(-4.98 -6.3)" style="fill:#4c5165"/><path d="M164,28.58q-1-3.19-5-13.1a7.71,7.71,0,0,1-1.09-2.93A2.94,2.94,0,0,1,159,10.4a3.32,3.32,0,0,1,2.31-1,2.45,2.45,0,0,1,1.56.5c.43.34,1.16,1.67,2.22,4a80.54,80.54,0,0,1,3.11,8.18,125,125,0,0,1,7.09-11,4,4,0,0,1,2.88-1.71A2.6,2.6,0,0,1,180,10a2.12,2.12,0,0,1,.73,1.6,3.36,3.36,0,0,1-.54,1.68q-.54.9-9.4,14.69a108.64,108.64,0,0,0-6.26,10.42,15.6,15.6,0,0,1-2.11,3.5,2.64,2.64,0,0,1-1.93.66,2.57,2.57,0,0,1-1.83-.68,2.09,2.09,0,0,1-.73-1.6Q157.89,38.51,164,28.58Z" transform="translate(-4.98 -6.3)" style="fill:#4c5165"/></svg>