<svg width="36" height="36" viewBox="0 0 36 36" fill="none" xmlns="http://www.w3.org/2000/svg">
<path d="M11.3081 6.89037C12.9106 6.56336 14.5748 6.81174 16.0178 7.59328C16.7726 8.00208 17.4426 8.54355 18 9.18688C18.5575 8.54355 19.2274 8.00208 19.9822 7.59328C21.4252 6.81174 23.0894 6.56336 24.6919 6.89037C26.2944 7.21739 27.7363 8.0996 28.7724 9.38704C29.8084 10.6745 30.3747 12.2876 30.375 13.9523C30.375 18.4002 27.2109 22.2373 24.4115 24.8035C22.9717 26.1233 21.538 27.1888 20.467 27.9233C19.9302 28.2914 19.4813 28.5786 19.1641 28.7753C19.0054 28.8736 18.8794 28.9495 18.7916 29.0016C18.3422 29.2683 17.8263 29.3562 17.3505 29.0847C17.1769 28.9852 17.0061 28.8807 16.8359 28.7753C16.5187 28.5786 16.0698 28.2914 15.533 27.9233C14.462 27.1888 13.0283 26.1233 11.5885 24.8035C8.78908 22.2373 5.625 18.4004 5.625 13.9525C5.62528 12.2879 6.19158 10.6745 7.22764 9.38704C8.2637 8.09961 9.70555 7.21739 11.3081 6.89037Z" stroke="#121212" stroke-width="2" stroke-linecap="round" stroke-linejoin="round"/>
</svg>
