<svg width="48" height="48" viewBox="0 0 48 48" fill="none" xmlns="http://www.w3.org/2000/svg">
<g filter="url(#filter0_b)">
<path d="M0 24C0 10.7452 10.7452 0 24 0C37.2548 0 48 10.7452 48 24C48 37.2548 37.2548 48 24 48C10.7452 48 0 37.2548 0 24Z" fill="#434CA5" fill-opacity="0.22"/>
<path d="M33.8319 23.2834L31.8403 21.2914C31.4446 20.8961 30.8038 20.8961 30.4081 21.2914C30.0124 21.6871 30.0124 22.3286 30.4081 22.724L32.3997 24.7159C34.5037 26.8203 34.5017 30.269 32.3997 32.3994C30.2959 34.5031 26.8472 34.5014 24.7161 32.3994L22.7242 30.4078C22.3288 30.0122 21.6874 30.0122 21.2917 30.4078C20.8959 30.8035 20.8959 31.4446 21.2917 31.84L23.2883 33.8367C24.7492 35.278 26.6608 35.9991 28.5683 35.9991C30.4799 35.9991 32.3881 35.2749 33.8368 33.8269C36.7229 30.9014 36.7208 26.1721 33.8319 23.2834Z" fill="white"/>
<path d="M26.7079 16.16L24.7112 14.163C21.7865 11.2774 17.0568 11.2798 14.1631 14.1728C11.2771 17.098 11.2795 21.8273 14.1681 24.7159L16.1601 26.7079C16.3576 26.9057 16.6169 27.0047 16.8762 27.0047C17.1351 27.0047 17.3944 26.9057 17.5923 26.7076C17.9879 26.3122 17.9879 25.6708 17.5923 25.2754L15.6003 23.2834C13.4963 21.1794 13.4983 17.7306 15.6003 15.6002C17.7047 13.4965 21.1534 13.4986 23.2838 15.6002L25.2758 17.5922C25.6715 17.9879 26.3123 17.9879 26.708 17.5922C27.1036 17.1969 27.1036 16.5554 26.7079 16.16Z" fill="white"/>
<path d="M27.2816 25.8499L22.1498 20.7181C21.7545 20.3224 21.113 20.3224 20.7176 20.7181C20.322 21.1135 20.322 21.7549 20.7176 22.1503L25.8494 27.2821C26.0473 27.4799 26.3062 27.5788 26.5655 27.5788C26.8248 27.5788 27.0838 27.4799 27.2816 27.2821C27.6773 26.8867 27.6773 26.2452 27.2816 25.8499Z" fill="white"/>
</g>
<defs>
<filter id="filter0_b" x="-9.42899" y="-9.42899" width="66.858" height="66.858" filterUnits="userSpaceOnUse" color-interpolation-filters="sRGB">
<feFlood flood-opacity="0" result="BackgroundImageFix"/>
<feGaussianBlur in="BackgroundImage" stdDeviation="4.7145"/>
<feComposite in2="SourceAlpha" operator="in" result="effect1_backgroundBlur"/>
<feBlend mode="normal" in="SourceGraphic" in2="effect1_backgroundBlur" result="shape"/>
</filter>
</defs>
</svg>
