<svg width="21" height="20" viewBox="0 0 21 20" fill="none" xmlns="http://www.w3.org/2000/svg">
<path d="M17.0574 4.375L3.30743 4.37501" stroke="#FF6974" stroke-linecap="round" stroke-linejoin="round"/>
<path d="M8.30774 8.125V13.125" stroke="#FF6974" stroke-linecap="round" stroke-linejoin="round"/>
<path d="M12.0577 8.125V13.125" stroke="#FF6974" stroke-linecap="round" stroke-linejoin="round"/>
<path d="M15.8077 4.375V16.25C15.8077 16.4158 15.7419 16.5747 15.6247 16.6919C15.5075 16.8092 15.3485 16.875 15.1827 16.875H5.18274C5.01698 16.875 4.85801 16.8092 4.7408 16.6919C4.62359 16.5747 4.55774 16.4158 4.55774 16.25V4.375" stroke="#FF6974" stroke-linecap="round" stroke-linejoin="round"/>
<path d="M13.3077 4.375V3.125C13.3077 2.79348 13.176 2.47554 12.9416 2.24112C12.7072 2.0067 12.3893 1.875 12.0577 1.875H8.30774C7.97622 1.875 7.65828 2.0067 7.42386 2.24112C7.18944 2.47554 7.05774 2.79348 7.05774 3.125V4.375" stroke="#FF6974" stroke-linecap="round" stroke-linejoin="round"/>
</svg>
