<svg width="40" height="40" viewBox="0 0 40 40" fill="none" xmlns="http://www.w3.org/2000/svg">
<g clip-path="url(#clip0_704:1760)">
<path d="M29.9563 10.0251C28.5038 10.0155 27.0666 10.3232 25.7453 10.9267C24.424 11.5301 23.2503 12.4148 22.3063 13.5189L20.8251 15.2251L24.1313 19.0439L26.0813 16.7939C26.5599 16.2352 27.1546 15.7876 27.8238 15.4821C28.493 15.1766 29.2207 15.0207 29.9563 15.0251C30.6163 15.0147 31.2718 15.1356 31.8845 15.3809C32.4973 15.6263 33.0551 15.991 33.5255 16.454C33.9959 16.9171 34.3695 17.469 34.6245 18.0778C34.8795 18.6866 35.0108 19.3401 35.0108 20.0001C35.0108 20.6602 34.8795 21.3136 34.6245 21.9224C34.3695 22.5312 33.9959 23.0832 33.5255 23.5462C33.0551 24.0092 32.4973 24.374 31.8845 24.6193C31.2718 24.8646 30.6163 24.9856 29.9563 24.9751C29.2231 24.98 28.4976 24.8248 27.8305 24.5204C27.1634 24.216 26.5707 23.7697 26.0938 23.2126C18.8526 14.8514 22.2932 18.8376 17.6938 13.5126C16.7486 12.4105 15.5746 11.5275 14.2535 10.9252C12.9323 10.3229 11.4958 10.0158 10.0438 10.0251C7.39831 10.0251 4.86113 11.0761 2.99046 12.9467C1.11978 14.8174 0.0688477 17.3546 0.0688477 20.0001C0.0688477 22.6457 1.11978 25.1828 2.99046 27.0535C4.86113 28.9242 7.39831 29.9751 10.0438 29.9751C11.4964 29.9847 12.9336 29.677 14.2549 29.0736C15.5762 28.4701 16.7499 27.5855 17.6938 26.4814L19.1751 24.7751L15.8688 20.9564L13.9188 23.2064C13.4402 23.765 12.8456 24.2127 12.1764 24.5181C11.5072 24.8236 10.7795 24.9795 10.0438 24.9751C9.38389 24.9856 8.72844 24.8646 8.11568 24.6193C7.50292 24.374 6.94509 24.0092 6.47468 23.5462C6.00427 23.0832 5.63069 22.5312 5.37569 21.9224C5.12069 21.3136 4.98936 20.6602 4.98936 20.0001C4.98936 19.3401 5.12069 18.6866 5.37569 18.0778C5.63069 17.469 6.00427 16.9171 6.47468 16.454C6.94509 15.991 7.50292 15.6263 8.11568 15.3809C8.72844 15.1356 9.38389 15.0147 10.0438 15.0251C10.7771 15.0203 11.5026 15.1755 12.1697 15.4799C12.8368 15.7843 13.4295 16.2306 13.9063 16.7876C21.1476 25.1489 17.707 21.1626 22.3063 26.4876C23.3902 27.7787 24.7823 28.7755 26.3537 29.3857C27.9251 29.9958 29.6251 30.1997 31.2962 29.9783C32.9674 29.757 34.5556 29.1176 35.914 28.1194C37.2724 27.1212 38.357 25.7964 39.0674 24.2677C39.7778 22.7389 40.091 21.0557 39.9781 19.3737C39.8651 17.6918 39.3297 16.0655 38.4213 14.6455C37.5129 13.2255 36.2609 12.0576 34.7812 11.25C33.3016 10.4423 31.6421 10.021 29.9563 10.0251Z" fill="#5171E4"/>
</g>
<defs>
<clipPath id="clip0_704:1760">
<rect width="40" height="40" fill="white"/>
</clipPath>
</defs>
</svg>
